SplineFontDB: 3.0
FontName: Oxygen-Bold
FullName: Oxygen Bold
FamilyName: Oxygen
Weight: Bold
Copyright: Copyright (c) 2011 by vernon adams. All rights reserved.
Version: 1.000
ItalicAngle: 0
UnderlinePosition: -119
UnderlineWidth: 119
Ascent: 1638
Descent: 410
UFOAscent: 1638
UFODescent: -410
LayerCount: 2
Layer: 0 0 "Back"  1
Layer: 1 0 "Fore"  0
NeedsXUIDChange: 1
OS2Version: 0
OS2_WeightWidthSlopeOnly: 0
OS2_UseTypoMetrics: 0
CreationTime: 1329697855
ModificationTime: 1329698012
PfmFamily: 0
TTFWeight: 700
TTFWidth: 5
LineGap: 0
VLineGap: 0
Panose: 2 0 8 3 0 0 0 9 0 4
OS2TypoAscent: 1567
OS2TypoAOffset: 0
OS2TypoDescent: -492
OS2TypoDOffset: 0
OS2TypoLinegap: 132
OS2WinAscent: 1901
OS2WinAOffset: 0
OS2WinDescent: 483
OS2WinDOffset: 0
HheadAscent: 0
HheadAOffset: 1
HheadDescent: 0
HheadDOffset: 1
OS2SubXSize: 1434
OS2SubYSize: 1331
OS2SubXOff: 0
OS2SubYOff: 286
OS2SupXSize: 1434
OS2SupYSize: 1331
OS2SupXOff: 0
OS2SupYOff: 976
OS2StrikeYSize: 102
OS2StrikeYPos: 498
OS2Vendor: 'newt'
OS2CodePages: 20000007.00000000
Lookup: 258 0 0 "'kern' Horizontal Kerning lookup 0"  {"'kern' Horizontal Kerning lookup 0 per glyph data 0"  "'kern' Horizontal Kerning lookup 0 kerning class 1"  } ['kern' ('DFLT' <'dflt' > 'latn' <'dflt' > ) ]
MarkAttachClasses: 1
DEI: 91125
KernClass2: 34 26 "'kern' Horizontal Kerning lookup 0 kerning class 1" 
 89 A Aacute Abreve Acircumflex Adieresis Agrave Amacron Aogonek Aring Atilde uni0200 uni0202
 1 B
 75 D Eth O Oacute Ocircumflex Odieresis Ograve Oslash Otilde Q uni020C uni020E
 1 F
 1 K
 1 L
 7 P Thorn
 44 R Racute Rcaron Rcommaaccent uni0210 uni0212
 22 T Tcommaaccent uni021A
 53 U Uacute Ucircumflex Udieresis Ugrave uni0214 uni0216
 1 V
 1 W
 18 Y Yacute Ydieresis
 89 a aacute abreve acircumflex adieresis agrave amacron aogonek aring atilde uni0201 uni0203
 1 b
 69 e eacute ecircumflex edieresis egrave emacron eogonek uni0205 uni0207
 1 f
 10 g gcedilla
 19 h m n nacute ntilde
 14 k kcommaaccent
 1 l

StartChar: A
Encoding: 65 65 1
Width: 1342
VWidth: 0
Flags: HW
PickledData: "(dp1
S'com.fontlab.hintData'
p2
(dp3
S'hhints'
p4
((dp5
S'position'
p6
I0
sS'width'
p7
I21
s(dp8
g6
I444
sg7
I205
s(dp9
g6
I1425
sg7
I20
stp10
ssS'com.typemytype.robofont.layerData'
p11
(dp12
s."
HStem: 0 21<8 276 8 8 1069 1334 1069 1069> 444 205<506 834 506 904 432 834> 1425 20<552 796 796 796>
LayerCount: 2
Fore
SplineSet
506 649 m 1
 834 649 l 1
 673 1119 l 1
 506 649 l 1
1069 0 m 1
 904 444 l 1
 432 444 l 1
 276 0 l 1
 8 0 l 1
 552 1445 l 1
 796 1445 l 1
 1334 0 l 1
 1069 0 l 1
EndSplineSet
EndChar

StartChar: AE
Encoding: 198 198 2
Width: 1937
VWidth: 0
Flags: HW
PickledData: "(dp1
S'com.fontlab.hintData'
p2
(dp3
S'hhints'
p4
((dp5
S'position'
p6
I15
sS'width'
p7
I208
s(dp8
g6
I373
sg7
I208
s(dp9
g6
I647
sg7
I208
s(dp10
g6
I1253
sg7
I208
stp11
ss."
HStem: 15 208<1238 1834 1238 1834 1048 1834> 373 208<581 999 581 1019 478 999> 647 208<1204 1773 1204 1204> 1253 208<1154 1813 1154 1154>
LayerCount: 2
Fore
SplineSet
1048 15 m 1
 1019 373 l 1
 478 373 l 1
 274 15 l 1
 21 15 l 1
 815 1461 l 1
 1813 1461 l 1
 1813 1253 l 1
 1154 1253 l 1
 1184 855 l 1
 1773 855 l 1
 1773 647 l 1
 1204 647 l 1
 1204 643 1205 640 1205 636 c 2
 1238 223 l 1
 1834 223 l 1
 1834 15 l 1
 1048 15 l 1
999 581 m 1
 948 1263 l 1
 581 581 l 1
 999 581 l 1
EndSplineSet
EndChar

StartChar: B
Encoding: 66 66 12
Width: 1256
VWidth: 0
Flags: HW
PickledData: "(dp1
S'com.fontlab.hintData'
p2
(dp3
S'vhints'
p4
((dp5
S'position'
p6
I70
sS'width'
p7
I298
s(dp8
g6
I860
sg7
I289
s(dp9
g6
I901
sg7
I296
stp10
sS'hhints'
p11
((dp12
g6
I0
sg7
I202
s(dp13
g6
I672
sg7
I199
s(dp14
g6
I1242
sg7
I203
stp15
ssS'com.typemytype.robofont.layerData'
p16
(dp17
s."
HStem: 0 202<388 599 599 639> 672 199<388 617 617 619 388 617> 1242 203<388 529 388 388>
VStem: 70 298 860 289 901 296
LayerCount: 2
Fore
SplineSet
921 434 m 0
 921 616 826 672 619 672 c 2
 388 672 l 1
 388 202 l 1
 599 202 l 2
 804 202 921 252 921 434 c 0
880 1039 m 0
 880 1226 748 1242 529 1242 c 2
 388 1242 l 1
 388 871 l 1
 617 871 l 2
 782 871 880 907 880 1039 c 0
1217 423 m 0
 1217 116 977 0 639 0 c 2
 90 0 l 1
 90 1445 l 1
 581 1445 l 2
 880 1445 1169 1378 1169 1079 c 0
 1169 934 1090 848 984 785 c 1
 1138 720 1217 597 1217 423 c 0
EndSplineSet
EndChar

StartChar: C
Encoding: 67 67 13
Width: 1298
VWidth: 0
Flags: HW
PickledData: "(dp1
S'com.fontlab.hintData'
p2
(dp3
S'vhints'
p4
((dp5
S'position'
p6
I57
sS'width'
p7
I297
stp8
sS'hhints'
p9
((dp10
g6
I-20
sg7
I225
s(dp11
g6
I1253
sg7
I225
stp12
ssS'com.typemytype.robofont.layerData'
p13
(dp14
s."
HStem: -20 225<677.5 855 677.5 858> 1253 225<676.5 853>
VStem: 57 297
LayerCount: 2
Fore
SplineSet
1171 327 m 1
 1258 113 l 1
 1095 24 932 -20 784 -20 c 0
 401 -20 66 278 66 733 c 0
 66 1194 415 1478 791 1478 c 0
 941 1478 1107 1432 1260 1338 c 1
 1172 1122 l 1
 1049 1205 916 1253 790 1253 c 0
 563 1253 363 1051 363 732 c 0
 363 385 562 205 793 205 c 0
 917 205 1051 252 1171 327 c 1
EndSplineSet
EndChar

StartChar: D
Encoding: 68 68 17
Width: 1458
VWidth: 0
Flags: HW
PickledData: "(dp1
S'com.fontlab.hintData'
p2
(dp3
S'vhints'
p4
((dp5
S'position'
p6
I70
sS'width'
p7
I298
s(dp8
g6
I1075
sg7
I297
stp9
sS'hhints'
p10
((dp11
g6
I1
sg7
I222
s(dp12
g6
I1220
sg7
I225
stp13
ssS'com.typemytype.robofont.layerData'
p14
(dp15
s."
HStem: 1 222<388 571> 1220 225<388 481 481 503 388 388>
VStem: 70 298 1075 297
LayerCount: 2
Fore
SplineSet
1095 715 m 0
 1095 1095 899 1220 503 1220 c 2
 388 1220 l 1
 388 223 l 1
 589 223 l 2
 914 223 1095 397 1095 715 c 0
1392 719 m 0
 1392 248 1057 1 571 1 c 2
 90 1 l 1
 90 1445 l 1
 481 1445 l 2
 1024 1445 1392 1249 1392 719 c 0
EndSplineSet
EndChar

StartChar: E
Encoding: 69 69 18
Width: 1112
VWidth: 0
Flags: HW
PickledData: "(dp1
S'com.fontlab.hintData'
p2
(dp3
S'vhints'
p4
((dp5
S'position'
p6
I70
sS'width'
p7
I298
stp8
sS'hhints'
p9
((dp10
g6
I0
sg7
I219
s(dp11
g6
I651
sg7
I218
s(dp12
g6
I1227
sg7
I218
stp13
ssS'com.typemytype.robofont.layerData'
p14
(dp15
s."
HStem: 0 219<388 1052> 651 218<388 994 388 994> 1227 218<388 1022 388 388>
VStem: 70 298
LayerCount: 2
Fore
SplineSet
1040 1445 m 1
 1022 1227 l 1
 388 1227 l 1
 388 869 l 1
 994 869 l 1
 994 651 l 1
 388 651 l 1
 388 219 l 1
 1070 219 l 1
 1052 0 l 1
 90 0 l 1
 90 1445 l 1
 1040 1445 l 1
EndSplineSet
EndChar

StartChar: Eth
Encoding: 208 208 25
Width: 1549
VWidth: 0
Flags: HW
PickledData: "(dp1
S'com.fontlab.hintData'
p2
(dp3
S'vhints'
p4
((dp5
S'position'
p6
I130
sS'width'
p7
I298
s(dp8
g6
I1135
sg7
I297
stp9
sS'hhints'
p10
((dp11
g6
I1
sg7
I222
s(dp12
g6
I634
sg7
I194
s(dp13
g6
I1220
sg7
I225
stp14
ss."
HStem: 1 222<428 611> 634 194<-2 597 -2 597> 1220 225<428 521 521 543 428 428>
VStem: 130 298<223 1220 223 1445 223 1445> 1135 297<556 905>
LayerCount: 2
Fore
SplineSet
1135 715 m 0
 1135 1095 939 1220 543 1220 c 2
 428 1220 l 1
 428 223 l 1
 629 223 l 2
 954 223 1135 397 1135 715 c 0
1432 719 m 0
 1432 248 1097 1 611 1 c 2
 130 1 l 1
 130 1445 l 1
 521 1445 l 2
 1064 1445 1432 1249 1432 719 c 0
-2 634 m 1
 -2 828 l 1
 597 828 l 1
 597 634 l 1
 -2 634 l 1
EndSplineSet
EndChar

StartChar: Euro
Encoding: 8364 8364 26
Width: 1184
VWidth: 0
Flags: HW
PickledData: "(dp1
S'com.fontlab.hintData'
p2
(dp3
S'vhints'
p4
((dp5
S'position'
p6
I207
sS'width'
p7
I241
stp8
sS'hhints'
p9
((dp10
g6
I-19
sg7
I206
s(dp11
g6
I493
sg7
I198
s(dp12
g6
I760
sg7
I198
s(dp13
g6
I1254
sg7
I204
stp14
ss."
HStem: -19 206<663.5 822.5> 493 198<98 188 98 207 70 188 448 448 448 947> 760 198<453 978 425 1006> 1254 204<678 833.5>
VStem: 207 241<493 493>
LayerCount: 2
Fore
SplineSet
750 -19 m 0
 406 -19 252 215 207 493 c 1
 70 493 l 1
 98 691 l 1
 188 691 l 1
 188 759 l 1
 67 759 l 1
 96 957 l 1
 212 957 l 1
 271 1227 447 1458 780 1458 c 0
 917 1458 1032 1410 1116 1320 c 1
 1066 1040 l 1
 1024 1105 l 2
 970 1190 893 1254 774 1254 c 0
 582 1254 498 1114 453 958 c 1
 1006 958 l 1
 978 760 l 1
 425 760 l 1
 425 715 l 2
 425 710 426 703 426 701 c 2
 426 691 l 1
 974 691 l 1
 974 688 973 687 973 685 c 2
 947 493 l 1
 448 493 l 1
 483 314 561 187 766 187 c 0
 880 187 963 239 1044 307 c 1
 1094 350 l 1
 1093 91 l 1
 999 25 895 -19 750 -19 c 0
EndSplineSet
EndChar

StartChar: F
Encoding: 70 70 27
Width: 1070
VWidth: 0
Flags: HW
PickledData: "(dp1
S'com.fontlab.hintData'
p2
(dp3
S'vhints'
p4
((dp5
S'position'
p6
I70
sS'width'
p7
I298
stp8
sS'hhints'
p9
((dp10
g6
I1
sg7
I21
s(dp11
g6
I636
sg7
I217
s(dp12
g6
I1227
sg7
I218
stp13
ssS'com.typemytype.robofont.layerData'
p14
(dp15
s."
HStem: 1 21<90 388 90 90> 636 217<388 990 388 388> 1227 218<387 1010 387 387>
VStem: 70 298
LayerCount: 2
Fore
SplineSet
1031 1445 m 1
 1010 1227 l 1
 387 1227 l 1
 387 853 l 1
 990 853 l 1
 990 636 l 1
 388 636 l 1
 388 1 l 1
 90 1 l 1
 90 1445 l 1
 1031 1445 l 1
EndSplineSet
EndChar

StartChar: G
Encoding: 71 71 28
Width: 1399
VWidth: 0
Flags: HW
PickledData: "(dp1
S'com.fontlab.hintData'
p2
(dp3
S'vhints'
p4
((dp5
S'position'
p6
I58
sS'width'
p7
I308
s(dp8
g6
I1072
sg7
I235
stp9
sS'hhints'
p10
((dp11
g6
I-20
sg7
I224
s(dp12
g6
I583
sg7
I208
s(dp13
g6
I1253
sg7
I225
stp14
ssS'com.typemytype.robofont.layerData'
p15
(dp16
s."
HStem: -20 224<667.5 866.5 667.5 908> 583 208<739 1080 739 1315> 1253 225<682 882.5>
VStem: 58 308 1072 235
LayerCount: 2
Fore
SplineSet
813 204 m 0
 920 204 1014 231 1080 268 c 1
 1080 583 l 1
 739 583 l 1
 739 791 l 1
 1315 791 l 1
 1315 115 l 1
 1166 42 1016 -20 800 -20 c 0
 362 -20 66 273 66 733 c 0
 66 1158 368 1478 811 1478 c 0
 1002 1478 1159 1426 1281 1328 c 1
 1191 1119 l 1
 1083 1203 959 1253 806 1253 c 0
 558 1253 374 1037 374 732 c 0
 374 434 522 204 813 204 c 0
EndSplineSet
EndChar

StartChar: H
Encoding: 72 72 30
Width: 1412
VWidth: 0
Flags: HW
PickledData: "(dp1
S'com.fontlab.hintData'
p2
(dp3
S'vhints'
p4
((dp5
S'position'
p6
I70
sS'width'
p7
I298
s(dp8
g6
I1004
sg7
I298
stp9
sS'hhints'
p10
((dp11
g6
I1
sg7
I30
s(dp12
g6
I645
sg7
I210
s(dp13
g6
I1425
sg7
I20
stp14
ssS'com.typemytype.robofont.layerData'
p15
(dp16
s."
HStem: 1 30 645 210<388 1024 388 1024> 1425 20<90 388 388 388 1024 1322 1322 1322>
VStem: 70 298 1004 298
LayerCount: 2
Fore
SplineSet
1024 1445 m 1
 1322 1445 l 1
 1322 10 l 1
 1024 10 l 1
 1024 645 l 1
 388 645 l 1
 388 1 l 1
 90 1 l 1
 90 1445 l 1
 388 1445 l 1
 388 855 l 1
 1024 855 l 1
 1024 1445 l 1
EndSplineSet
EndChar

StartChar: I
Encoding: 73 73 31
Width: 488
VWidth: 0
Flags: HW
PickledData: "(dp1
S'com.fontlab.hintData'
p2
(dp3
S'vhints'
p4
((dp5
S'position'
p6
I75
sS'width'
p7
I298
stp8
sS'hhints'
p9
((dp10
g6
I0
sg7
I21
s(dp11
g6
I1425
sg7
I20
stp12
ssS'com.typemytype.robofont.layerData'
p13
(dp14
s."
HStem: 0 21<95 393 95 95> 1425 20<95 393 393 393>
VStem: 75 298
LayerCount: 2
Fore
SplineSet
393 1445 m 1
 393 0 l 1
 95 0 l 1
 95 1445 l 1
 393 1445 l 1
EndSplineSet
EndChar

StartChar: IJ
Encoding: 306 306 32
Width: 1494
VWidth: 0
Flags: HW
PickledData: "(dp1
S'com.fontlab.hintData'
p2
(dp3
S'vhints'
p4
((dp5
S'position'
p6
I194
sS'width'
p7
I251
s(dp8
g6
I1077
sg7
I252
stp9
sS'hhints'
p10
((dp11
g6
I-18
sg7
I201
s(dp12
g6
I15
sg7
I21
s(dp13
g6
I1411
sg7
I29
stp14
ss."
HStem: -18 201<836 892 836 836> 15 21<194 445 194 194> 1411 29
VStem: 194 251<15 1440 15 1440> 1077 252<390 439 439 1430 1430 1430>
LayerCount: 2
Fore
SplineSet
836 183 m 1
 910 185 l 2
 1052 189 1077 235 1077 390 c 2
 1077 1430 l 1
 1329 1431 l 1
 1329 439 l 2
 1329 117 1232 -18 892 -18 c 2
 836 -18 l 1
 836 183 l 1
445 1440 m 1
 445 15 l 1
 194 15 l 1
 194 1440 l 1
 445 1440 l 1
EndSplineSet
EndChar

StartChar: J
Encoding: 74 74 40
Width: 645
VWidth: 0
Flags: HW
PickledData: "(dp1
S'com.fontlab.hintData'
p2
(dp3
S'vhints'
p4
((dp5
S'position'
p6
I305
sS'width'
p7
I295
stp8
sS'hhints'
p9
((dp10
g6
I-187
sg7
I201
s(dp11
g6
I1425
sg7
I20
stp12
ssS'com.typemytype.robofont.layerData'
p13
(dp14
s."
HStem: -187 201<15 61 15 80> 1425 20<260 555 555 555>
VStem: 305 295
LayerCount: 2
Fore
SplineSet
15 14 m 1
 80 14 l 2
 234 14 260 65 260 223 c 2
 260 1445 l 1
 555 1445 l 1
 555 272 l 2
 555 -51 448 -187 61 -187 c 2
 15 -187 l 1
 15 14 l 1
EndSplineSet
EndChar

StartChar: K
Encoding: 75 75 42
Width: 1296
VWidth: 0
Flags: HW
PickledData: "(dp1
S'com.fontlab.hintData'
p2
(dp3
S'vhints'
p4
((dp5
S'position'
p6
I70
sS'width'
p7
I298
s(dp8
g6
I873
sg7
I353
s(dp9
g6
I941
sg7
I345
stp10
sS'hhints'
p11
((dp12
g6
I0
sg7
I21
s(dp13
g6
I1425
sg7
I20
stp14
ssS'com.typemytype.robofont.layerData'
p15
(dp16
s."
HStem: 0 21<90 388 90 90 961 961 961 1306> 1425 20<90 388 388 388 893 1246 1246 1246>
VStem: 70 298 873 353 941 345
LayerCount: 2
Fore
SplineSet
388 582 m 1
 388 0 l 1
 90 0 l 1
 90 1445 l 1
 388 1445 l 1
 388 844 l 1
 893 1445 l 1
 1246 1445 l 1
 699 787 l 1
 1306 0 l 1
 961 0 l 1
 464 658 l 1
 388 582 l 1
EndSplineSet
EndChar

StartChar: L
Encoding: 76 76 43
Width: 1054
VWidth: 0
Flags: HW
PickledData: "(dp1
S'com.fontlab.hintData'
p2
(dp3
S'vhints'
p4
((dp5
S'position'
p6
I70
sS'width'
p7
I298
stp8
sS'hhints'
p9
((dp10
g6
I0
sg7
I218
s(dp11
g6
I1425
sg7
I20
stp12
ssS'com.typemytype.robofont.layerData'
p13
(dp14
s."
HStem: 0 218<388 1028 388 1028> 1425 20<90 388 388 388>
VStem: 70 298
LayerCount: 2
Fore
SplineSet
388 218 m 1
 1028 218 l 1
 1028 0 l 1
 90 0 l 1
 90 1445 l 1
 388 1445 l 1
 388 218 l 1
EndSplineSet
EndChar

StartChar: Lslash
Encoding: 321 321 45
Width: 1175
VWidth: 0
Flags: HW
PickledData: "(dp1
S'com.fontlab.hintData'
p2
(dp3
S'vhints'
p4
((dp5
S'position'
p6
I202
sS'width'
p7
I244
stp8
sS'hhints'
p9
((dp10
g6
I26
sg7
I203
s(dp11
g6
I884
sg7
I196
s(dp12
g6
I1441
sg7
I20
stp13
ss."
HStem: 26 203<446 446 446 1122> 884 196<724 724> 1441 20<202 446 446 446>
VStem: 202 244<229 575 575 575 229 912 912 1461>
LayerCount: 2
Fore
SplineSet
724 1080 m 1
 724 884 l 1
 446 716 l 1
 446 229 l 1
 1122 230 l 1
 1122 26 l 1
 202 26 l 1
 202 575 l 1
 24 465 l 1
 24 662 l 1
 202 772 l 1
 202 1461 l 1
 446 1461 l 1
 446 912 l 1
 724 1080 l 1
EndSplineSet
EndChar

StartChar: M
Encoding: 77 77 46
Width: 1631
VWidth: 0
Flags: HW
PickledData: "(dp1
S'com.fontlab.hintData'
p2
(dp3
S'vhints'
p4
((dp5
S'position'
p6
I70
sS'width'
p7
I240
s(dp8
g6
I1279
sg7
I242
stp9
sS'hhints'
p10
((dp11
g6
I0
sg7
I21
s(dp12
g6
I1425
sg7
I20
stp13
ssS'com.typemytype.robofont.layerData'
p14
(dp15
s."
HStem: 0 21<90 330 90 90 1299 1541 1299 1299> 1425 20<90 358 358 358 1279 1541 1541 1541>
VStem: 70 240 1279 242
LayerCount: 2
Fore
SplineSet
1299 0 m 1
 1299 976 l 1
 926 176 l 1
 711 176 l 1
 330 985 l 1
 330 0 l 1
 90 0 l 1
 90 1445 l 1
 358 1445 l 1
 821 487 l 1
 1279 1445 l 1
 1541 1445 l 1
 1541 0 l 1
 1299 0 l 1
EndSplineSet
EndChar

StartChar: N
Encoding: 78 78 47
Width: 1386
VWidth: 0
Flags: HW
PickledData: "(dp1
S'com.fontlab.hintData'
p2
(dp3
S'vhints'
p4
((dp5
S'position'
p6
I70
sS'width'
p7
I273
s(dp8
g6
I1003
sg7
I273
stp9
sS'hhints'
p10
((dp11
g6
I0
sg7
I21
s(dp12
g6
I1425
sg7
I20
stp13
ssS'com.typemytype.robofont.layerData'
p14
(dp15
s."
HStem: 0 21<90 363 90 90 1042 1296 1042 1042> 1425 20<90 338 338 338 1023 1296 1296 1296>
VStem: 70 273 1003 273
LayerCount: 2
Fore
SplineSet
1042 0 m 1
 363 975 l 1
 363 0 l 1
 90 0 l 1
 90 1445 l 1
 338 1445 l 1
 1023 471 l 1
 1023 1445 l 1
 1296 1445 l 1
 1296 0 l 1
 1042 0 l 1
EndSplineSet
EndChar

StartChar: O
Encoding: 79 79 50
Width: 1583
VWidth: 0
Flags: HW
PickledData: "(dp1
S'com.fontlab.hintData'
p2
(dp3
S'vhints'
p4
((dp5
S'position'
p6
I58
sS'width'
p7
I297
s(dp8
g6
I1212
sg7
I297
stp9
sS'hhints'
p10
((dp11
g6
I-20
sg7
I225
s(dp12
g6
I1253
sg7
I225
stp13
ssS'com.typemytype.robofont.layerData'
p14
(dp15
s."
HStem: -20 225<650 932 650 998> 1253 225<649 933>
VStem: 58 297 1212 297
LayerCount: 2
Fore
SplineSet
66 727 m 0
 66 1182 377 1478 791 1478 c 0
 1206 1478 1517 1182 1517 727 c 0
 1517 276 1205 -20 791 -20 c 0
 377 -20 66 276 66 727 c 0
1220 722 m 0
 1220 987 1075 1253 791 1253 c 0
 507 1253 363 987 363 722 c 0
 363 456 509 205 791 205 c 0
 1073 205 1220 456 1220 722 c 0
EndSplineSet
EndChar

StartChar: OE
Encoding: 338 338 51
Width: 2299
VWidth: 0
Flags: HW
PickledData: "(dp1
S'com.fontlab.hintData'
p2
(dp3
S'vhints'
p4
((dp5
S'position'
p6
I106
sS'width'
p7
I286
s(dp8
g6
I1181
sg7
I283
stp9
sS'hhints'
p10
((dp11
g6
I-18
sg7
I225
s(dp12
g6
I5
sg7
I221
s(dp13
g6
I651
sg7
I218
s(dp14
g6
I1228
sg7
I222
s(dp15
g6
I1253
sg7
I225
stp16
ss."
HStem: -18 225<683 896> 5 221<1464 2171> 651 218<1464 2113 1464 2113> 1228 222<1464 2141 1464 1464> 1253 225<682 896 621 909>
VStem: 106 286<589.5 854.5 589.5 944.5> 1181 283<5 651 86 651 333 651 869 1118 1118 1118>
LayerCount: 2
Fore
SplineSet
1181 1118 m 1
 1108 1196 992 1253 826 1253 c 0
 538 1253 392 987 392 722 c 0
 392 457 540 207 826 207 c 0
 992 207 1108 260 1181 333 c 1
 1181 1118 l 1
826 1478 m 0
 966 1478 1082 1438 1181 1374 c 1
 1181 1450 l 1
 2159 1450 l 1
 2141 1228 l 1
 1464 1228 l 1
 1464 869 l 1
 2113 869 l 1
 2113 651 l 1
 1464 651 l 1
 1464 226 l 1
 2189 226 l 1
 2171 5 l 1
 1181 5 l 1
 1181 86 l 1
 1082 21 966 -18 826 -18 c 0
 417 -18 106 298 106 727 c 0
 106 1162 416 1478 826 1478 c 0
EndSplineSet
EndChar

StartChar: Omega
Encoding: 937 937 56
Width: 1586
VWidth: 0
Flags: HW
PickledData: "(dp1
S'com.fontlab.hintData'
p2
(dp3
S'vhints'
p4
((dp5
S'position'
p6
I121
sS'width'
p7
I231
s(dp8
g6
I1235
sg7
I229
stp9
sS'hhints'
p10
((dp11
g6
I16
sg7
I188
s(dp12
g6
I1245
sg7
I199
stp13
ss."
HStem: 16 188<99 664 99 114> 1245 199<651 948>
VStem: 121 231<656.5 898.5 615.5 978> 1235 229<652 894.5>
LayerCount: 2
Fore
SplineSet
936 16 m 1
 929 173 l 1
 948 184 l 1
 1104 300 1235 482 1235 753 c 0
 1235 1036 1096 1245 800 1245 c 0
 502 1245 352 1040 352 757 c 0
 352 474 491 289 660 174 c 1
 664 16 l 1
 114 16 l 1
 99 204 l 1
 374 203 l 1
 356 220 l 2
 218 350 121 534 121 779 c 0
 121 1177 392 1444 805 1444 c 0
 1211 1444 1464 1164 1464 775 c 0
 1464 529 1355 349 1223 220 c 1
 1205 203 l 1
 1468 204 l 1
 1455 16 l 1
 936 16 l 1
EndSplineSet
EndChar

StartChar: Oslash
Encoding: 216 216 57
Width: 1712
VWidth: 0
Flags: HW
PickledData: "(dp1
S'com.fontlab.hintData'
p2
(dp3
S'vhints'
p4
((dp5
S'position'
p6
I118
sS'width'
p7
I297
s(dp8
g6
I1272
sg7
I297
stp9
sS'hhints'
p10
((dp11
g6
I-20
sg7
I225
s(dp12
g6
I1253
sg7
I225
stp13
ss."
HStem: -20 225 1253 225
VStem: 118 297 1272 297
LayerCount: 2
Fore
SplineSet
1138 1632 m 1
 1317 1572 l 1
 590 -169 l 1
 430 -110 l 1
 1138 1632 l 1
EndSplineSet
Refer: 50 79 N 1 0 0 1 0 0 2
EndChar

StartChar: P
Encoding: 80 80 59
Width: 1195
VWidth: 0
Flags: HW
PickledData: "(dp1
S'com.fontlab.hintData'
p2
(dp3
S'vhints'
p4
((dp5
S'position'
p6
I70
sS'width'
p7
I298
s(dp8
g6
I862
sg7
I297
stp9
sS'hhints'
p10
((dp11
g6
I0
sg7
I21
s(dp12
g6
I563
sg7
I212
s(dp13
g6
I1227
sg7
I218
stp14
ssS'com.typemytype.robofont.layerData'
p15
(dp16
s."
HStem: 0 21<90 388 90 90> 563 212<388 611 388 592> 1227 218<388 565 565 586 388 388>
VStem: 70 298 862 297
LayerCount: 2
Fore
SplineSet
611 775 m 2
 774 775 882 857 882 1003 c 0
 882 1161 767 1227 586 1227 c 2
 388 1227 l 1
 388 775 l 1
 611 775 l 2
388 563 m 1
 388 0 l 1
 90 0 l 1
 90 1445 l 1
 565 1445 l 2
 914 1445 1179 1321 1179 1006 c 0
 1179 713 924 563 592 563 c 2
 388 563 l 1
EndSplineSet
EndChar

StartChar: Q
Encoding: 81 81 60
Width: 1583
VWidth: 0
Flags: HW
PickledData: "(dp1
S'com.fontlab.hintData'
p2
(dp3
S'vhints'
p4
((dp5
S'position'
p6
I70
sS'width'
p7
I297
s(dp8
g6
I1224
sg7
I297
stp9
sS'hhints'
p10
((dp11
g6
I-429
sg7
I21
s(dp12
g6
I-20
sg7
I225
s(dp13
g6
I1253
sg7
I225
stp14
ssS'com.typemytype.robofont.layerData'
p15
(dp16
s."
HStem: -429 21<1144 1144> -20 225<650 932 650 998> 1253 225<649 933>
VStem: 70 297 1224 297
LayerCount: 2
Fore
SplineSet
66 727 m 0
 66 1162 377 1478 791 1478 c 0
 1206 1478 1517 1162 1517 727 c 0
 1517 296 1205 -20 791 -20 c 0
 377 -20 66 296 66 727 c 0
1220 722 m 0
 1220 987 1075 1253 791 1253 c 0
 507 1253 363 987 363 722 c 0
 363 456 509 205 791 205 c 0
 1073 205 1220 456 1220 722 c 0
1057 103 m 1
 1126 -21 1230 -172 1323 -289 c 1
 1144 -429 l 1
 1054 -308 948 -161 869 -13 c 1
 1057 103 l 1
EndSplineSet
EndChar

StartChar: R
Encoding: 82 82 61
Width: 1289
VWidth: 0
Flags: HW
PickledData: "(dp1
S'com.fontlab.hintData'
p2
(dp3
S'vhints'
p4
((dp5
S'position'
p6
I70
sS'width'
p7
I299
s(dp8
g6
I877
sg7
I297
stp9
sS'hhints'
p10
((dp11
g6
I0
sg7
I21
s(dp12
g6
I615
sg7
I215
s(dp13
g6
I1228
sg7
I217
stp14
ssS'com.typemytype.robofont.layerData'
p15
(dp16
s."
HStem: 0 21<90 389 90 90 946 1284 946 946> 615 215<389 531 389 598> 1228 217<389 558 558 639 389 389>
VStem: 70 299 877 297
LayerCount: 2
Fore
SplineSet
897 1037 m 0
 897 1177 808 1228 639 1228 c 2
 389 1228 l 1
 389 830 l 1
 598 830 l 2
 784 830 897 879 897 1037 c 0
1194 1043 m 0
 1194 841 1078 730 907 675 c 1
 969 604 1018 531 1064 439 c 2
 1284 0 l 1
 946 0 l 1
 781 356 l 2
 745 433 703 539 658 607 c 1
 616 612 579 615 531 615 c 2
 389 615 l 1
 389 0 l 1
 90 0 l 1
 90 1445 l 1
 558 1445 l 2
 896 1445 1194 1379 1194 1043 c 0
EndSplineSet
EndChar

StartChar: R.alt
Encoding: 65537 -1 62
Width: 1403
VWidth: 0
Flags: HW
PickledData: "(dp1
S'com.fontlab.hintData'
p2
(dp3
S'vhints'
p4
((dp5
S'position'
p6
I205
sS'width'
p7
I237
s(dp8
g6
I992
sg7
I249
stp9
sS'hhints'
p10
((dp11
g6
I0
sg7
I21
s(dp12
g6
I615
sg7
I218
s(dp13
g6
I1228
sg7
I217
stp14
ss."
HStem: 0 21<205 442 205 205 1051 1073 1051 1051> 615 218<443 609 442 704> 1228 217<442 652 652 703 442 442>
VStem: 205 237<0 615> 992 249<970 1106>
LayerCount: 2
Fore
SplineSet
704 833 m 2
 878 833 992 900 992 1040 c 0
 992 1172 880 1228 703 1228 c 2
 442 1228 l 1
 443 833 l 1
 704 833 l 2
1241 1051 m 0
 1241 846 1121 732 947 675 c 1
 1115 499 1196 260 1296 42 c 2
 1315 1 l 1
 1269 1 l 2
 1204 1 1139 0 1073 0 c 2
 1051 0 l 1
 881 369 l 1
 838 466 793 542 734 608 c 1
 693 613 657 615 609 615 c 2
 442 615 l 1
 442 0 l 1
 205 0 l 1
 205 1445 l 1
 652 1445 l 2
 961 1445 1241 1357 1241 1051 c 0
EndSplineSet
EndChar

StartChar: R.alt.001
Encoding: 65538 -1 63
Width: 1403
VWidth: 0
Flags: HW
PickledData: "(dp1
S'com.fontlab.hintData'
p2
(dp3
S'vhints'
p4
((dp5
S'position'
p6
I205
sS'width'
p7
I237
s(dp8
g6
I992
sg7
I249
stp9
sS'hhints'
p10
((dp11
g6
I0
sg7
I21
s(dp12
g6
I615
sg7
I218
s(dp13
g6
I1228
sg7
I217
stp14
ss."
HStem: 0 21<205 442 205 205 1051 1073 1051 1051> 615 218<443 609 442 704> 1228 217<442 652 652 703 442 442>
VStem: 205 237<0 615> 992 249<970 1106>
LayerCount: 2
Fore
SplineSet
704 833 m 2
 878 833 992 900 992 1040 c 0
 992 1172 880 1228 703 1228 c 2
 442 1228 l 1
 443 833 l 1
 704 833 l 2
1241 1051 m 0
 1241 846 1121 732 947 675 c 1
 1115 499 1196 260 1296 42 c 2
 1315 1 l 1
 1269 1 l 2
 1204 1 1139 0 1073 0 c 2
 1051 0 l 1
 881 369 l 1
 838 466 793 542 734 608 c 1
 693 613 657 615 609 615 c 2
 442 615 l 1
 442 0 l 1
 205 0 l 1
 205 1445 l 1
 652 1445 l 2
 961 1445 1241 1357 1241 1051 c 0
EndSplineSet
EndChar

StartChar: S
Encoding: 83 83 67
Width: 1178
VWidth: 0
Flags: HW
PickledData: "(dp1
S'com.fontlab.hintData'
p2
(dp3
S'vhints'
p4
((dp5
S'position'
p6
I55
sS'width'
p7
I298
s(dp8
g6
I828
sg7
I299
stp9
sS'hhints'
p10
((dp11
g6
I-20
sg7
I229
s(dp12
g6
I1253
sg7
I225
stp13
ssS'com.typemytype.robofont.layerData'
p14
(dp15
s."
HStem: -20 229<482 660 482 731.356> 1253 225<523.5 676>
VStem: 55 298 828 299
LayerCount: 2
Fore
SplineSet
979 1144 m 1
 883 1203 760 1253 592 1253 c 0
 455 1253 363 1208 363 1096 c 0
 363 985 429 946 515 918 c 2
 703 856 l 1
 917 791 1137 693 1137 415 c 0
 1136 119 890 -20 573 -20 c 0
 350 -20 185 41 53 125 c 1
 141 347 l 1
 249 267 383 209 581 209 c 0
 739 209 838 260 838 380 c 0
 838 516 735 559 610 601 c 2
 430 661 l 1
 248 720 65 821 65 1068 c 0
 65 1345 303 1478 592 1478 c 0
 790 1478 950 1431 1067 1347 c 1
 979 1144 l 1
EndSplineSet
EndChar

StartChar: Scommaaccent
Encoding: 65539 -1 70
Width: 1173
VWidth: 0
Flags: HW
PickledData: "(dp1
S'com.fontlab.hintData'
p2
(dp3
S'vhints'
p4
((dp5
S'position'
p6
I130
sS'width'
p7
I249
s(dp8
g6
I897
sg7
I253
stp9
sS'hhints'
p10
((dp11
g6
I-23
sg7
I229
s(dp12
g6
I1258
sg7
I226
stp13
ss."
HStem: -23 229<548.5 712.5 548.5 767.859> 1258 226<562 720.5>
VStem: 130 249<1021 1140 1021 1209> 897 253<412.933 476.5>
LayerCount: 2
Fore
SplineSet
600 -674 m 1
 436 -674 l 1
 539 -151 l 1
 758 -151 l 1
 600 -674 l 1
1014 1149 m 1
 919 1208 801 1258 640 1258 c 0
 484 1258 379 1205 379 1075 c 0
 379 967 463 931 568 897 c 2
 746 841 l 1
 941 778 1150 684 1150 413 c 0
 1149 116 913 -23 623 -23 c 0
 424 -23 264 31 138 107 c 1
 116 120 l 1
 205 342 l 1
 236 319 l 1
 332 251 466 206 631 206 c 0
 794 206 897 268 897 410 c 0
 897 543 791 588 662 628 c 2
 488 682 l 1
 312 735 130 834 130 1069 c 0
 130 1349 367 1484 640 1484 c 0
 815 1484 969 1442 1081 1367 c 1
 1102 1352 l 1
 1017 1155 l 1
 1014 1149 l 1
EndSplineSet
EndChar

StartChar: T
Encoding: 84 84 71
Width: 1210
VWidth: 0
Flags: HW
PickledData: "(dp1
S'com.fontlab.hintData'
p2
(dp3
S'vhints'
p4
((dp5
S'position'
p6
I488
sS'width'
p7
I298
stp8
sS'hhints'
p9
((dp10
g6
I0
sg7
I21
s(dp11
g6
I1227
sg7
I218
stp12
ssS'com.typemytype.robofont.layerData'
p13
(dp14
s."
HStem: 0 21<455 753 455 455> 1227 218<33 455 33 1177 753 1177 753 753>
VStem: 488 298
LayerCount: 2
Fore
SplineSet
753 1227 m 1
 753 0 l 1
 455 0 l 1
 455 1227 l 1
 33 1227 l 1
 33 1445 l 1
 1177 1445 l 1
 1177 1227 l 1
 753 1227 l 1
EndSplineSet
EndChar

StartChar: Thorn
Encoding: 222 222 73
Width: 1319
VWidth: 0
Flags: HW
PickledData: "(dp1
S'com.fontlab.hintData'
p2
(dp3
S'vhints'
p4
((dp5
S'position'
p6
I182
sS'width'
p7
I237
s(dp8
g6
I1027
sg7
I243
stp9
sS'hhints'
p10
((dp11
g6
I15
sg7
I21
s(dp12
g6
I321
sg7
I213
s(dp13
g6
I1012
sg7
I186
s(dp14
g6
I1420
sg7
I20
stp15
ss."
HStem: 15 21<182 182 182 419> 321 213<420 713 419 731> 1012 186<419 688 688 708 419 688> 1420 20<182 419 419 419>
VStem: 182 237<15 321 1198 1440> 1027 243<694.5 858>
LayerCount: 2
Fore
SplineSet
731 534 m 2
 907 534 1027 617 1027 772 c 0
 1027 944 905 1012 708 1012 c 2
 419 1012 l 1
 420 534 l 1
 731 534 l 2
182 15 m 1
 182 1440 l 1
 419 1440 l 1
 419 1198 l 1
 688 1198 l 2
 1008 1198 1270 1076 1270 759 c 0
 1270 467 1011 321 713 321 c 2
 419 321 l 1
 419 15 l 1
 182 15 l 1
EndSplineSet
EndChar

StartChar: U
Encoding: 85 85 74
Width: 1332
VWidth: 0
Flags: HW
PickledData: "(dp1
S'com.fontlab.hintData'
p2
(dp3
S'vhints'
p4
((dp5
S'position'
p6
I69
sS'width'
p7
I298
s(dp8
g6
I947
sg7
I298
stp9
sS'hhints'
p10
((dp11
g6
I-20
sg7
I225
s(dp12
g6
I1425
sg7
I20
stp13
ssS'com.typemytype.robofont.layerData'
p14
(dp15
s."
HStem: -20 225<556.5 775.5 556.5 864.5> 1425 20<78 376 376 376 956 1254 1254 1254>
VStem: 69 298 947 298
LayerCount: 2
Fore
SplineSet
666 205 m 0
 885 205 956 314 956 553 c 2
 956 1445 l 1
 1254 1445 l 1
 1254 538 l 2
 1254 177 1063 -20 666 -20 c 0
 269 -20 78 177 78 538 c 2
 78 1445 l 1
 376 1445 l 1
 376 553 l 2
 376 314 447 205 666 205 c 0
EndSplineSet
EndChar

StartChar: V
Encoding: 86 86 79
Width: 1372
VWidth: 0
Flags: HW
PickledData: "(dp1
S'com.fontlab.hintData'
p2
(dp3
S'hhints'
p4
((dp5
S'position'
p6
I0
sS'width'
p7
I21
s(dp8
g6
I1425
sg7
I20
stp9
ssS'com.typemytype.robofont.layerData'
p10
(dp11
s."
HStem: 0 21<565 829 565 565> 1425 20<15 312 312 312 1069 1357 1357 1357>
LayerCount: 2
Fore
SplineSet
829 0 m 1
 565 0 l 1
 15 1445 l 1
 312 1445 l 1
 700 358 l 1
 1069 1445 l 1
 1357 1445 l 1
 829 0 l 1
EndSplineSet
EndChar

StartChar: W
Encoding: 87 87 80
Width: 2153
VWidth: 0
Flags: HW
PickledData: "(dp1
S'com.fontlab.hintData'
p2
(dp3
S'vhints'
p4
((dp5
S'position'
p6
I39
sS'width'
p7
I271
s(dp8
g6
I1881
sg7
I269
stp9
sS'hhints'
p10
((dp11
g6
I0
sg7
I21
s(dp12
g6
I1425
sg7
I20
stp13
ssS'com.typemytype.robofont.layerData'
p14
(dp15
s."
HStem: 0 21<440 708 440 440 1393 1664 1393 1393> 1425 20<21 292 292 292 970 1188 1188 1188 1863 2132 2132 2132>
VStem: 39 271 1881 269
LayerCount: 2
Fore
SplineSet
292 1445 m 1
 593 340 l 1
 970 1445 l 1
 1188 1445 l 1
 1524 330 l 1
 1863 1445 l 1
 2132 1445 l 1
 1664 0 l 1
 1393 0 l 1
 1073 1062 l 1
 708 0 l 1
 440 0 l 1
 21 1445 l 1
 292 1445 l 1
EndSplineSet
EndChar

StartChar: X
Encoding: 88 88 81
Width: 1393
VWidth: 0
Flags: HW
PickledData: "(dp1
S'com.fontlab.hintData'
p2
(dp3
S'vhints'
p4
((dp5
S'position'
p6
I24
sS'width'
p7
I305
s(dp8
g6
I71
sg7
I301
s(dp9
g6
I1076
sg7
I315
s(dp10
g6
I1084
sg7
I289
stp11
sS'hhints'
p12
((dp13
g6
I0
sg7
I21
s(dp14
g6
I1425
sg7
I20
stp15
ssS'com.typemytype.robofont.layerData'
p16
(dp17
s."
HStem: 0 21<13 318 13 13 1065 1380 1065 1065> 1425 20<60 361 361 361 1073 1362 1362 1362>
VStem: 24 305 71 301 1076 315 1084 289
LayerCount: 2
Fore
SplineSet
1380 0 m 1
 1065 0 l 1
 694 529 l 1
 318 0 l 1
 13 0 l 1
 545 732 l 1
 60 1445 l 1
 361 1445 l 1
 708 912 l 1
 1073 1445 l 1
 1362 1445 l 1
 861 732 l 1
 1380 0 l 1
EndSplineSet
EndChar

StartChar: Y
Encoding: 89 89 82
Width: 1340
VWidth: 0
Flags: HW
PickledData: "(dp1
S'com.fontlab.hintData'
p2
(dp3
S'vhints'
p4
((dp5
S'position'
p6
I552
sS'width'
p7
I298
stp8
sS'hhints'
p9
((dp10
g6
I0
sg7
I21
s(dp11
g6
I1425
sg7
I20
stp12
ssS'com.typemytype.robofont.layerData'
p13
(dp14
s."
HStem: 0 21<528 826 528 528> 1425 20<13 322 322 322 1022 1327 1327 1327>
VStem: 552 298
LayerCount: 2
Fore
SplineSet
13 1445 m 1
 322 1445 l 1
 673 834 l 1
 1022 1445 l 1
 1327 1445 l 1
 826 578 l 1
 826 0 l 1
 528 0 l 1
 528 578 l 1
 13 1445 l 1
EndSplineSet
EndChar

StartChar: Z
Encoding: 90 90 85
Width: 1230
VWidth: 0
Flags: HW
PickledData: "(dp1
S'com.fontlab.hintData'
p2
(dp3
S'hhints'
p4
((dp5
S'position'
p6
I0
sS'width'
p7
I218
s(dp8
g6
I1227
sg7
I218
stp9
ssS'com.typemytype.robofont.layerData'
p10
(dp11
s."
HStem: 0 218<424 1174 424 1174> 1227 218<91 812 91 1182>
LayerCount: 2
Fore
SplineSet
58 173 m 1
 812 1227 l 1
 91 1227 l 1
 91 1445 l 1
 1182 1445 l 1
 1182 1287 l 1
 424 218 l 1
 1174 218 l 1
 1174 0 l 1
 58 0 l 1
 58 173 l 1
EndSplineSet
EndChar

StartChar: a
Encoding: 97 97 89
Width: 1061
VWidth: 0
Flags: HW
PickledData: "(dp1
S'com.fontlab.hintData'
p2
(dp3
S'vhints'
p4
((dp5
S'position'
p6
I47
sS'width'
p7
I262
s(dp8
g6
I712
sg7
I285
stp9
sS'hhints'
p10
((dp11
g6
I-20
sg7
I186
s(dp12
g6
I0
sg7
I21
s(dp13
g6
I473
sg7
I138
s(dp14
g6
I908
sg7
I195
stp15
ssS'com.typemytype.robofont.layerData'
p16
(dp17
s."
HStem: -20 186<423.5 487.141> 0 21<780 997 780 780> 473 138<522.345 712 606 712 606 712> 908 195<455.814 601.5>
VStem: 47 262<261 378.5 261 422.317> 712 285<250 473 473 473 611 747 747 778 0 805.592>
LayerCount: 2
Fore
SplineSet
484 166 m 0
 581 166 644 205 712 250 c 1
 712 473 l 1
 605 473 l 2
 440 473 309 452 309 305 c 0
 309 217 363 166 484 166 c 0
750 135 m 1
 654 53 554 -20 420 -20 c 0
 201 -20 47 91 47 287 c 0
 47 558 238 611 606 611 c 2
 712 611 l 1
 712 747 l 2
 712 864 664 908 539 908 c 0
 373 908 259 861 168 804 c 1
 112 1001 l 1
 218 1059 352 1103 534 1103 c 0
 802 1103 997 1018 997 778 c 2
 997 0 l 1
 780 0 l 1
 750 135 l 1
EndSplineSet
EndChar

StartChar: acute
Encoding: 180 180 94
Width: 612
VWidth: 0
Flags: HW
PickledData: "(dp1
S'com.fontlab.hintData'
p2
(dp3
S'vhints'
p4
((dp5
S'position'
p6
I172
sS'width'
p7
I543
stp8
sS'hhints'
p9
((dp10
g6
I1176
sg7
I340
stp11
ss."
HStem: 1176 340<172 715 172 715>
VStem: 172 543<1176 1516>
LayerCount: 2
Fore
SplineSet
401 1516 m 1
 715 1516 l 1
 381 1176 l 1
 172 1176 l 1
 401 1516 l 1
EndSplineSet
EndChar

StartChar: ae
Encoding: 230 230 96
Width: 1954
VWidth: 0
Flags: HW
PickledData: "(dp1
S'com.fontlab.hintData'
p2
(dp3
S'vhints'
p4
((dp5
S'position'
p6
I129
sS'width'
p7
I251
s(dp8
g6
I829
sg7
I219
stp9
sS'hhints'
p10
((dp11
g6
I-18
sg7
I189
s(dp12
g6
I5
sg7
I21
s(dp13
g6
I445
sg7
I162
s(dp14
g6
I472
sg7
I183
s(dp15
g6
I900
sg7
I199
stp16
ss."
HStem: -18 189<483.5 559> 5 21<829 1048 829 829> 445 162<740 752 752 803 740 821> 472 183<1083 1623 1067 1902 1083 1083> 900 199<548 691.5>
VStem: 129 251<262 367.5 262 436> 829 219<5 107 107 107>
LayerCount: 2
Fore
SplineSet
1623 655 m 1
 1598 801 1528 898 1363 898 c 0
 1194 898 1100 783 1067 655 c 1
 1623 655 l 1
539 171 m 0
 654 171 733 205 821 239 c 1
 821 445 l 1
 752 445 l 2
 544 445 380 426 380 309 c 0
 380 215 428 171 539 171 c 0
625 1099 m 0
 774 1099 902 1061 975 946 c 1
 1076 1039 1201 1099 1360 1099 c 0
 1709 1099 1872 857 1873 563 c 1
 1873 559 l 1
 1902 531 1902 508 1902 477 c 2
 1902 472 l 1
 1083 472 l 1
 1116 299 1199 181 1410 181 c 0
 1585 181 1689 235 1766 304 c 1
 1873 134 l 1
 1764 39 1630 -18 1386 -18 c 0
 1257 -18 1147 26 1064 97 c 1
 1048 111 l 1
 1048 5 l 1
 829 5 l 1
 829 107 l 1
 732 43 627 -18 491 -18 c 0
 283 -18 129 92 129 287 c 0
 129 585 454 607 740 607 c 2
 803 607 l 1
 803 744 l 2
 803 858 754 900 629 900 c 0
 467 900 349 853 250 798 c 1
 194 998 l 1
 310 1055 450 1099 625 1099 c 0
EndSplineSet
EndChar

StartChar: afii10024
Encoding: 1046 1046 97
Width: 1339
VWidth: 0
Flags: HW
PickledData: "(dp1
S'com.fontlab.hintData'
p2
(dp3
S'vhints'
p4
((dp5
S'position'
p6
I16
sS'width'
p7
I284
s(dp8
g6
I789
sg7
I240
stp9
sS'hhints'
p10
((dp11
g6
I15
sg7
I21
s(dp12
g6
I1420
sg7
I20
stp13
ss."
HStem: 15 21<16 300 16 16 789 1029 789 789 1365 1649 1365 1365> 1420 20<52 354 354 354 789 1029 1029 1029 1330 1612 1612 1612>
VStem: 16 284<15 15> 789 240<15 546 546 546 917 1440>
LayerCount: 2
Fore
SplineSet
52 1440 m 1
 354 1440 l 1
 356 1438 355 1438 357 1436 c 2
 789 917 l 1
 789 1440 l 1
 1029 1440 l 1
 1029 905 l 1
 1330 1440 l 1
 1612 1440 l 1
 1137 742 l 1
 1649 15 l 1
 1365 15 l 1
 1029 550 l 1
 1029 15 l 1
 789 15 l 1
 789 546 l 1
 300 15 l 1
 16 15 l 1
 634 742 l 1
 52 1440 l 1
EndSplineSet
EndChar

StartChar: afii10025
Encoding: 1047 1047 98
Width: 1260
VWidth: 0
Flags: HW
PickledData: "(dp1
S'com.fontlab.hintData'
p2
(dp3
S'vhints'
p4
((dp5
S'position'
p6
I892
sS'width'
p7
I270
s(dp8
g6
I943
sg7
I254
stp9
sS'hhints'
p10
((dp11
g6
I-18
sg7
I229
s(dp12
g6
I634
sg7
I224
s(dp13
g6
I1243
sg7
I237
stp14
ss."
HStem: -18 229<571 768 571 829> 634 224<451 658 451 658> 1243 237<559 711>
VStem: 892 270<979 1093.5> 943 254<369.5 482 282 490>
LayerCount: 2
Fore
SplineSet
182 1366 m 1
 769 2083 l 1
 770 2082 786 2072 785 2071 c 2
 198 1354 l 1
 182 1366 l 1
1019 745 m 1
 1131 680 1197 548 1197 416 c 0
 1197 148 1019 -18 639 -18 c 0
 458 -18 257 29 159 117 c 1
 141 137 l 1
 153 158 l 1
 178 206 201 253 226 302 c 2
 243 336 l 1
 276 314 l 1
 347 262 502 211 640 211 c 0
 896 211 943 310 943 429 c 0
 943 551 781 634 658 634 c 2
 451 634 l 1
 451 858 l 1
 658 858 l 2
 773 858 892 893 892 1048 c 0
 892 1139 793 1243 629 1243 c 0
 489 1243 380 1212 317 1158 c 2
 285 1130 l 1
 182 1335 l 1
 197 1353 l 1
 297 1443 456 1480 641 1480 c 0
 899 1480 1162 1328 1162 1085 c 0
 1162 873 1105 797 1019 745 c 1
EndSplineSet
EndChar

StartChar: afii10026
Encoding: 1048 1048 99
Width: 1569
VWidth: 0
Flags: HW
PickledData: "(dp1
S'com.fontlab.hintData'
p2
(dp3
S'vhints'
p4
((dp5
S'position'
p6
I182
sS'width'
p7
I235
s(dp8
g6
I1152
sg7
I235
stp9
sS'hhints'
p10
((dp11
g6
I15
sg7
I21
s(dp12
g6
I1420
sg7
I20
stp13
ss."
HStem: 15 21<182 430 182 182 1152 1387 1152 1152> 1420 20<182 417 417 417 1152 1388 1388 1388>
VStem: 182 235<337 351 337 381 381 1440> 1152 235<15 1008>
LayerCount: 2
Fore
SplineSet
404 364 m 1
 417 351 l 1
 417 337 l 1
 436 369 l 2
 439 373 443 381 447 388 c 1
 682 697 917 1008 1152 1317 c 1
 1152 1440 l 1
 1388 1440 l 1
 1387 15 l 1
 1152 15 l 1
 1152 1008 l 1
 430 15 l 1
 182 15 l 1
 182 1440 l 1
 417 1440 l 1
 417 381 l 1
 410 373 406 370 404 364 c 1
437 375 m 1
 436 374 436 373 435 372 c 1
 419 384 l 1
 421 387 l 1
 437 375 l 1
EndSplineSet
EndChar

StartChar: afii10027
Encoding: 1049 1049 100
Width: 1569
VWidth: 0
Flags: HW
PickledData: "(dp1
S'com.fontlab.hintData'
p2
(dp3
S'vhints'
p4
((dp5
S'position'
p6
I182
sS'width'
p7
I235
s(dp8
g6
I505
sg7
I171
s(dp9
g6
I894
sg7
I172
s(dp10
g6
I1152
sg7
I235
stp11
sS'hhints'
p12
((dp13
g6
I15
sg7
I21
s(dp14
g6
I1420
sg7
I20
s(dp15
g6
I1590
sg7
I168
stp16
ss."
HStem: 15 21<182 430 182 182 1152 1387 1152 1152> 1420 20<182 417 417 417 1152 1388 1388 1388> 1590 168<748.5 821.5 748.5 860>
VStem: 182 235<337 351 337 381 381 1440> 505 171<1810 1812 1812 1839 1796 1839> 894 172<1812 1839 1738.5 1839> 1152 235<15 1008>
LayerCount: 2
Fore
SplineSet
404 364 m 1
 417 351 l 1
 417 337 l 1
 436 369 l 2
 439 373 443 381 447 388 c 1
 682 697 917 1008 1152 1317 c 1
 1152 1440 l 1
 1388 1440 l 1
 1387 15 l 1
 1152 15 l 1
 1152 1008 l 1
 430 15 l 1
 182 15 l 1
 182 1440 l 1
 417 1440 l 1
 417 381 l 1
 410 373 406 370 404 364 c 1
785 1590 m 0
 635 1590 505 1668 505 1810 c 2
 505 1839 l 1
 676 1839 l 1
 676 1812 l 2
 676 1780 712 1758 785 1758 c 0
 858 1758 894 1780 894 1812 c 2
 894 1839 l 1
 1066 1839 l 1
 1066 1810 l 2
 1066 1667 935 1590 785 1590 c 0
437 375 m 1
 436 374 436 373 435 372 c 1
 419 384 l 1
 421 387 l 1
 437 375 l 1
EndSplineSet
EndChar

StartChar: afii10028
Encoding: 1050 1050 101
Width: 1313
VWidth: 0
Flags: HW
PickledData: "(dp1
S'com.fontlab.hintData'
p2
(dp3
S'vhints'
p4
((dp5
S'position'
p6
I182
sS'width'
p7
I251
s(dp8
g6
I989
sg7
I314
s(dp9
g6
I1056
sg7
I320
stp10
sS'hhints'
p11
((dp12
g6
I15
sg7
I21
s(dp13
g6
I1420
sg7
I20
stp14
ss."
HStem: 15 21<182 433 182 182 1056 1376 1056 1056> 1420 20<182 182 989 1303 1303 1303>
VStem: 182 251<15 607 804 1439> 989 314<1440 1440> 1056 320<15 15>
LayerCount: 2
Fore
SplineSet
433 804 m 1
 451 824 l 1
 632 1031 811 1235 989 1440 c 1
 1303 1440 l 1
 687 773 l 1
 1376 15 l 1
 1056 15 l 1
 509 676 l 1
 433 607 l 1
 433 15 l 1
 182 15 l 1
 182 1440 l 1
 433 1439 l 1
 433 804 l 1
EndSplineSet
EndChar

StartChar: afii10037
Encoding: 1059 1059 102
Width: 1285
VWidth: 0
Flags: HW
PickledData: "(dp1
S'com.fontlab.hintData'
p2
(dp3
S'vhints'
p4
((dp5
S'position'
p6
I499
sS'width'
p7
I256
stp8
sS'hhints'
p9
((dp10
g6
I-378
sg7
I192
s(dp11
g6
I1450
sg7
I20
stp12
ss."
HStem: -378 192<171 188 171 188> 1450 20<-22 228 228 228 1008 1264 1264 1264>
VStem: 499 256<236 236>
LayerCount: 2
Fore
SplineSet
228 1470 m 1
 629 529 l 1
 1008 1470 l 1
 1264 1470 l 1
 755 340 l 1
 755 196 l 2
 755 -204 517 -378 188 -378 c 2
 171 -378 l 1
 171 -186 l 1
 188 -186 l 2
 384 -186 498 -90 499 236 c 1
 500 338 l 1
 -22 1470 l 1
 228 1470 l 1
EndSplineSet
EndChar

StartChar: afii10040
Encoding: 1062 1062 103
Width: 1540
VWidth: 0
Flags: HW
PickledData: "(dp1
S'com.fontlab.hintData'
p2
(dp3
S'vhints'
p4
((dp5
S'position'
p6
I162
sS'width'
p7
I231
s(dp8
g6
I1097
sg7
I220
s(dp9
g6
I1314
sg7
I176
stp10
sS'hhints'
p11
((dp12
g6
I15
sg7
I190
s(dp13
g6
I1420
sg7
I20
stp14
ss."
HStem: 15 190<393 1097 393 1314> 1420 20<162 393 393 393 1097 1317 1317 1317>
VStem: 162 231<205 1440 205 1440 205 1440> 1097 220<205 1440 89 1440> 1314 176<-297 15 15 15>
LayerCount: 2
Fore
SplineSet
1097 1440 m 1
 1317 1440 l 1
 1317 89 l 1
 1490 89 l 1
 1490 -297 l 1
 1314 -297 l 1
 1314 15 l 1
 162 15 l 1
 162 1440 l 1
 393 1440 l 1
 393 205 l 1
 1097 205 l 1
 1097 1440 l 1
EndSplineSet
EndChar

StartChar: afii10041
Encoding: 1063 1063 104
Width: 1976
VWidth: 0
Flags: HW
PickledData: "(dp1
S'com.fontlab.hintData'
p2
(dp3
S'vhints'
p4
((dp5
S'position'
p6
I188
sS'width'
p7
I241
s(dp8
g6
I1097
sg7
I264
stp9
sS'hhints'
p10
((dp11
g6
I15
sg7
I21
s(dp12
g6
I576
sg7
I218
s(dp13
g6
I1420
sg7
I20
stp14
ss."
HStem: 15 21<1097 1361 1097 1097> 576 218<798 846 846 1096> 1420 20<188 429 429 429 1097 1361 1361 1361>
VStem: 188 241<1008 1009 1009 1440> 1097 264<15 1440 794 1440 15 1440>
LayerCount: 2
Fore
SplineSet
1097 1440 m 1
 1361 1440 l 1
 1361 15 l 1
 1097 15 l 1
 1096 576 l 1
 846 576 l 2
 467 576 188 615 188 1008 c 2
 188 1440 l 1
 429 1440 l 1
 429 1009 l 2
 429 818 548 794 798 794 c 2
 1097 794 l 1
 1097 1440 l 1
EndSplineSet
EndChar

StartChar: afii10043
Encoding: 1065 1065 105
Width: 1924
VWidth: 0
Flags: HW
PickledData: "(dp1
S'com.fontlab.hintData'
p2
(dp3
S'vhints'
p4
((dp5
S'position'
p6
I182
sS'width'
p7
I251
s(dp8
g6
I833
sg7
I251
s(dp9
g6
I1492
sg7
I251
s(dp10
g6
I1720
sg7
I196
stp11
sS'hhints'
p12
((dp13
g6
I5
sg7
I210
s(dp14
g6
I1410
sg7
I20
stp15
ss."
HStem: 5 210<433 833 1084 1492> 1410 20<182 433 433 433 833 1084 1084 1084 1492 1743 1743 1743>
VStem: 182 251<215 1430 215 1430 215 1430> 833 251<215 1430 215 1430> 1492 251<215 1430 171 1430> 1720 196<-307 5 5 5>
LayerCount: 2
Fore
SplineSet
1720 5 m 1
 182 5 l 1
 182 1430 l 1
 433 1430 l 1
 433 215 l 1
 833 215 l 1
 833 1430 l 1
 1084 1430 l 1
 1084 215 l 1
 1492 215 l 1
 1492 1430 l 1
 1743 1430 l 1
 1743 171 l 1
 1916 171 l 1
 1916 -307 l 1
 1720 -307 l 1
 1720 5 l 1
EndSplineSet
EndChar

StartChar: afii10047
Encoding: 1069 1069 106
Width: 1416
VWidth: 0
Flags: HW
LayerCount: 2
Fore
SplineSet
979 851 m 0
 979 849 980 848 980 846 c 1
 313 846 l 1
 313 653 l 1
 986 653 l 1
 950 361 758 207 523 207 c 0
 407 207 278 250 163 323 c 1
 84 131 l 1
 243 44 404 2 549 2 c 0
 928 2 1254 292 1254 734 c 0
 1254 1184 542 1458 542 1458 c 1
 395 1458 233 1414 84 1324 c 1
 162 1128 l 1
 280 1210 407 1253 526 1253 c 0
 742 1253 933 1097 979 852 c 0
EndSplineSet
EndChar

StartChar: afii10051
Encoding: 1026 1026 107
Width: 1896
VWidth: 0
Flags: HW
PickledData: "(dp1
S'com.fontlab.hintData'
p2
(dp3
S'vhints'
p4
((dp5
S'position'
p6
I620
sS'width'
p7
I273
s(dp8
g6
I644
sg7
I264
s(dp9
g6
I1395
sg7
I241
stp10
sS'hhints'
p11
((dp12
g6
I-203
sg7
I218
s(dp13
g6
I662
sg7
I218
s(dp14
g6
I1222
sg7
I218
stp15
ss."
HStem: -203 218<1217 1222 1217 1222> 662 218<908 1031 1031 1089 908 908> 1222 218<188 620 188 1289>
VStem: 620 273 644 264<16 662> 1395 241<232 234 234 442 35 444 35 540>
LayerCount: 2
Fore
SplineSet
1636 442 m 1
 1636 234 l 2
 1636 -164 1443 -203 1222 -203 c 2
 1217 -203 l 1
 1217 15 l 1
 1222 15 l 2
 1371 15 1395 37 1395 232 c 2
 1395 444 l 2
 1395 636 1296 662 1089 662 c 2
 908 662 l 1
 908 16 l 1
 644 16 l 1
 620 1222 l 1
 188 1222 l 1
 188 1440 l 1
 1289 1440 l 1
 1289 1221 l 1
 892 1221 l 1
 893 880 l 1
 1031 880 l 2
 1334 880 1606 840 1636 442 c 1
EndSplineSet
EndChar

StartChar: afii10053
Encoding: 1028 1028 108
Width: 1412
VWidth: 0
Flags: HW
PickledData: "(dp1
S'com.fontlab.hintData'
p2
(dp3
S'vhints'
p4
((dp5
S'position'
p6
I106
sS'width'
p7
I956
stp8
sS'hhints'
p9
((dp10
g6
I-18
sg7
I225
s(dp11
g6
I641
sg7
I218
s(dp12
g6
I1253
sg7
I225
stp13
ss."
HStem: -18 225<731.5 893> 641 218<394 1062 400 1062 400 1062> 1253 225<735 901 638 902>
VStem: 106 956<641 859 641 963.5>
LayerCount: 2
Fore
SplineSet
394 641 m 1
 432 356 618 207 845 207 c 0
 963 207 1091 254 1206 329 c 1
 1293 115 l 1
 1130 26 967 -18 819 -18 c 0
 436 -18 106 279 106 733 c 0
 106 1194 450 1478 826 1478 c 0
 976 1478 1142 1432 1295 1338 c 1
 1207 1122 l 1
 1089 1205 962 1253 842 1253 c 0
 628 1253 452 1101 400 859 c 1
 1062 859 l 1
 1062 641 l 1
 394 641 l 1
EndSplineSet
EndChar

StartChar: afii10060
Encoding: 1035 1035 109
Width: 1866
VWidth: 0
Flags: HW
PickledData: "(dp1
S'com.fontlab.hintData'
p2
(dp3
S'vhints'
p4
((dp5
S'position'
p6
I614
sS'width'
p7
I264
s(dp8
g6
I1365
sg7
I241
stp9
sS'hhints'
p10
((dp11
g6
I662
sg7
I218
s(dp12
g6
I1222
sg7
I218
stp13
ss."
HStem: 662 218<879 1020 1020 1059 878 1020> 1222 218<188 614 188 1285>
VStem: 614 264<16 662> 1365 241<16 447 447 448 16 541.5>
LayerCount: 2
Fore
SplineSet
879 880 m 1
 1020 880 l 2
 1333 880 1606 841 1606 448 c 2
 1606 16 l 1
 1365 16 l 1
 1365 447 l 2
 1365 636 1266 662 1059 662 c 2
 878 662 l 1
 878 16 l 1
 614 16 l 1
 614 1222 l 1
 188 1222 l 1
 188 1440 l 1
 1285 1440 l 1
 1285 1221 l 1
 878 1221 l 1
 879 880 l 1
EndSplineSet
EndChar

StartChar: afii10062
Encoding: 1038 1038 111
Width: 1290
VWidth: 0
Flags: HW
PickledData: "(dp1
S'com.fontlab.hintData'
p2
(dp3
S'vhints'
p4
((dp5
S'position'
p6
I389
sS'width'
p7
I173
s(dp8
g6
I780
sg7
I173
stp9
sS'hhints'
p10
((dp11
g6
I-28
sg7
I212
s(dp12
g6
I1410
sg7
I20
s(dp13
g6
I1590
sg7
I168
stp14
ss."
HStem: -28 212<131 158 158 256.5 131 277 131 158> 1410 20<41 310 310 310 980 1254 1254 1254> 1590 168<634.5 707.5 634.5 746.5>
VStem: 389 173<1810 1812 1812 1839 1796 1839> 780 173<1812 1839 1738.5 1839>
LayerCount: 2
Fore
SplineSet
694 668 m 1
 980 1430 l 1
 1254 1430 l 1
 875 546 l 1
 723 187 607 -28 277 -28 c 2
 131 -28 l 1
 131 184 l 1
 158 184 l 2
 355 184 463 189 540 355 c 2
 587 456 l 1
 405 780 224 1107 41 1430 c 1
 310 1430 l 1
 694 668 l 1
671 1590 m 0
 520 1590 389 1668 389 1810 c 2
 389 1839 l 1
 562 1839 l 1
 562 1812 l 2
 562 1780 598 1758 671 1758 c 0
 744 1758 780 1780 780 1812 c 2
 780 1839 l 1
 953 1839 l 1
 953 1810 l 2
 953 1667 822 1590 671 1590 c 0
EndSplineSet
EndChar

StartChar: afii10066
Encoding: 1073 1073 112
Width: 1233
VWidth: 0
Flags: HW
PickledData: "(dp1
S'com.fontlab.hintData'
p2
(dp3
S'vhints'
p4
((dp5
S'position'
p6
I233
sS'width'
p7
I253
s(dp8
g6
I917
sg7
I234
stp9
sS'hhints'
p10
((dp11
g6
I15
sg7
I207
s(dp12
g6
I543
sg7
I208
s(dp13
g6
I853
sg7
I208
stp14
ss."
HStem: 15 207<486 740 740 763> 543 208<486 486 486 740> 853 208<485 1046 485 485>
VStem: 233 253<222 543 222 1061> 917 234<337 418.5>
LayerCount: 2
Fore
SplineSet
1151 379 m 0
 1151 153 985 15 763 15 c 2
 233 15 l 1
 233 1061 l 1
 1046 1061 l 1
 1046 853 l 1
 485 853 l 1
 485 751 l 1
 750 751 l 2
 939 751 1151 608 1151 379 c 0
486 543 m 1
 486 222 l 1
 740 222 l 2
 850 222 917 295 917 379 c 0
 917 458 847 543 740 543 c 2
 486 543 l 1
EndSplineSet
EndChar

StartChar: afii10072
Encoding: 1078 1078 113
Width: 1407
VWidth: 0
Flags: HW
PickledData: "(dp1
S'com.fontlab.hintData'
p2
(dp3
S'vhints'
p4
((dp5
S'position'
p6
I61
sS'width'
p7
I284
s(dp8
g6
I663
sg7
I219
stp9
sS'hhints'
p10
((dp11
g6
I15
sg7
I21
s(dp12
g6
I1039
sg7
I20
stp13
ss."
HStem: 15 21<61 345 61 61 663 882 663 663 1097 1381 1097 1097> 1039 20<81 376 376 376 1076 1361 1361 1361>
VStem: 61 284<15 15> 663 219<15 372 372 372 702 1061>
LayerCount: 2
Fore
SplineSet
81 1059 m 1
 376 1059 l 1
 379 1056 l 1
 663 702 l 1
 663 1061 l 1
 882 1061 l 1
 882 698 l 1
 1076 1059 l 1
 1361 1059 l 1
 980 538 l 1
 1381 15 l 1
 1097 15 l 1
 882 375 l 1
 882 15 l 1
 663 15 l 1
 663 372 l 1
 345 15 l 1
 61 15 l 1
 520 538 l 1
 81 1059 l 1
EndSplineSet
EndChar

StartChar: afii10088
Encoding: 1094 1094 114
Width: 1298
VWidth: 0
Flags: HW
PickledData: "(dp1
S'com.fontlab.hintData'
p2
(dp3
S'vhints'
p4
((dp5
S'position'
p6
I182
sS'width'
p7
I223
s(dp8
g6
I900
sg7
I217
s(dp9
g6
I1072
sg7
I176
stp10
sS'hhints'
p11
((dp12
g6
I15
sg7
I191
s(dp13
g6
I1039
sg7
I20
stp14
ss."
HStem: 15 191<405 900 405 1072> 1039 20<182 405 405 405 900 1117 1117 1117>
VStem: 182 223<206 1059 206 1059 206 1059> 900 217<206 1059 89 1059> 1072 176<-297 15 15 15>
LayerCount: 2
Fore
SplineSet
900 206 m 1
 900 1059 l 1
 1117 1059 l 1
 1117 89 l 1
 1248 89 l 1
 1248 -297 l 1
 1072 -297 l 1
 1072 15 l 1
 182 15 l 1
 182 1059 l 1
 405 1059 l 1
 405 206 l 1
 900 206 l 1
EndSplineSet
EndChar

StartChar: afii10091
Encoding: 1097 1097 115
Width: 1579
VWidth: 0
Flags: HW
PickledData: "(dp1
S'com.fontlab.hintData'
p2
(dp3
S'vhints'
p4
((dp5
S'position'
p6
I122
sS'width'
p7
I223
s(dp8
g6
I673
sg7
I207
s(dp9
g6
I1206
sg7
I217
s(dp10
g6
I1353
sg7
I176
stp11
sS'hhints'
p12
((dp13
g6
I15
sg7
I191
s(dp14
g6
I1039
sg7
I20
stp15
ss."
HStem: 15 191<345 673 880 1206> 1039 20<122 345 345 345 673 880 880 880 1206 1423 1423 1423>
VStem: 122 223<206 1059 206 1059 206 1059> 673 207<206 1059 206 1059> 1206 217<206 1059> 1353 176<-297 15 15 15>
LayerCount: 2
Fore
SplineSet
1423 89 m 1
 1529 89 l 1
 1529 -297 l 1
 1353 -297 l 1
 1353 15 l 1
 122 15 l 1
 122 1059 l 1
 345 1059 l 1
 345 206 l 1
 673 206 l 1
 673 1059 l 1
 880 1059 l 1
 880 206 l 1
 1206 206 l 1
 1206 1059 l 1
 1423 1059 l 1
 1423 89 l 1
EndSplineSet
EndChar

StartChar: afii10093
Encoding: 1099 1099 116
Width: 1635
VWidth: 0
Flags: HW
PickledData: "(dp1
S'com.fontlab.hintData'
p2
(dp3
S'vhints'
p4
((dp5
S'position'
p6
I233
sS'width'
p7
I251
s(dp8
g6
I902
sg7
I245
s(dp9
g6
I1245
sg7
I259
s(dp10
g6
I1270
sg7
I259
stp11
sS'hhints'
p12
((dp13
g6
I15
sg7
I207
s(dp14
g6
I483
sg7
I208
s(dp15
g6
I1041
sg7
I20
stp16
ss."
HStem: 15 207<485 729 729 751> 483 208<485 485 485 729> 1041 20<233 484 484 484 1245 1504 1504 1504>
VStem: 233 251<691 691 691 1061> 902 245<316.5 358 245 396.5> 1245 259<1061 1061> 1270 259<15 15>
LayerCount: 2
Fore
SplineSet
485 483 m 1
 485 222 l 1
 729 222 l 2
 837 222 902 275 902 358 c 0
 902 435 834 483 729 483 c 2
 485 483 l 1
484 691 m 1
 741 691 l 2
 924 691 1121 586 1147 358 c 1
 1147 132 973 15 751 15 c 2
 233 15 l 1
 233 1061 l 1
 484 1061 l 1
 484 691 l 1
1504 1061 m 1
 1529 15 l 1
 1270 15 l 1
 1245 1061 l 1
 1504 1061 l 1
EndSplineSet
EndChar

StartChar: afii10095
Encoding: 1101 1101 117
Width: 1180
VWidth: 0
Flags: HW
PickledData: "(dp1
S'com.fontlab.hintData'
p2
(dp3
S'vhints'
p4
((dp5
S'position'
p6
I792
sS'width'
p7
I144
stp8
sS'hhints'
p9
((dp10
g6
I-18
sg7
I201
s(dp11
g6
I459
sg7
I168
s(dp12
g6
I898
sg7
I201
stp13
ss."
HStem: -18 201<440 571 440 639> 459 168<348 936 348 936> 898 201<431.5 563.5>
VStem: 792 144<459 627 459 665>
LayerCount: 2
Fore
SplineSet
792 544 m 0
 792 786 641 898 486 898 c 0
 377 898 273 848 203 762 c 1
 76 936 l 1
 202 1042 352 1099 498 1099 c 0
 779 1099 1055 901 1055 542 c 0
 1055 176 779 -18 499 -18 c 0
 352 -18 200 40 74 146 c 1
 203 318 l 1
 280 233 386 183 494 183 c 0
 648 183 792 296 792 544 c 0
348 627 m 1
 936 627 l 1
 936 459 l 1
 348 459 l 1
 348 627 l 1
EndSplineSet
EndChar

StartChar: afii10101
Encoding: 1108 1108 118
Width: 1180
VWidth: 0
Flags: HW
PickledData: "(dp1
S'com.fontlab.hintData'
p2
(dp3
S'vhints'
p4
((dp5
S'position'
p6
I84
sS'width'
p7
I263
stp8
sS'hhints'
p9
((dp10
g6
I-18
sg7
I201
s(dp11
g6
I449
sg7
I188
s(dp12
g6
I898
sg7
I201
stp13
ss."
HStem: -18 201 449 188<234 842 234 842> 898 201
VStem: 84 263
LayerCount: 2
Fore
SplineSet
842 637 m 1
 842 449 l 1
 234 449 l 1
 234 637 l 1
 842 637 l 1
EndSplineSet
Refer: 398 1089 N 1 0 0 1 0 0 2
EndChar

StartChar: afii10106
Encoding: 1113 1113 120
Width: 1743
VWidth: 0
Flags: HW
PickledData: "(dp1
S'com.fontlab.hintData'
p2
(dp3
S'vhints'
p4
((dp5
S'position'
p6
I162
sS'width'
p7
I243
s(dp8
g6
I866
sg7
I243
s(dp9
g6
I1448
sg7
I234
stp10
sS'hhints'
p11
((dp12
g6
I15
sg7
I207
s(dp13
g6
I483
sg7
I208
s(dp14
g6
I852
sg7
I209
stp15
ss."
HStem: 15 207<1109 1282 1282 1304> 483 208<1109 1311 1109 1282> 852 209<405 866 405 405>
VStem: 162 243<15 852 15 1061 15 1061> 866 243<222 483 691 852 852 852> 1448 234<358 359 358 396>
LayerCount: 2
Fore
SplineSet
1311 691 m 2
 1509 691 1686 603 1686 412 c 0
 1686 395 1685 377 1682 359 c 1
 1682 358 l 1
 1681 131 1515 15 1304 15 c 2
 866 15 l 1
 866 852 l 1
 405 852 l 1
 405 15 l 1
 162 15 l 1
 162 1061 l 1
 1109 1061 l 1
 1109 691 l 1
 1311 691 l 2
1109 483 m 1
 1109 222 l 1
 1282 222 l 2
 1387 222 1448 276 1448 358 c 0
 1448 434 1384 483 1282 483 c 2
 1109 483 l 1
EndSplineSet
EndChar

StartChar: afii10107
Encoding: 1114 1114 121
Width: 1743
VWidth: 0
Flags: HW
PickledData: "(dp1
S'com.fontlab.hintData'
p2
(dp3
S'vhints'
p4
((dp5
S'position'
p6
I162
sS'width'
p7
I243
s(dp8
g6
I866
sg7
I243
s(dp9
g6
I1448
sg7
I234
stp10
sS'hhints'
p11
((dp12
g6
I15
sg7
I207
s(dp13
g6
I475
sg7
I209
s(dp14
g6
I493
sg7
I195
s(dp15
g6
I1041
sg7
I20
stp16
ss."
HStem: 15 207<1109 1282 1282 1304> 475 209<405 866 405 866> 493 195<1109 1311 1109 1282> 1041 20<162 405 405 405 866 1109 1109 1109>
VStem: 162 243<15 475 15 684 684 1061> 866 243<222 475 475 475 688 1061> 1448 234<357 358 357 402.5>
LayerCount: 2
Fore
SplineSet
1311 688 m 2
 1509 688 1686 601 1686 410 c 0
 1686 393 1685 376 1682 358 c 1
 1682 357 l 1
 1681 129 1513 15 1304 15 c 2
 866 15 l 1
 866 475 l 1
 405 475 l 1
 405 15 l 1
 162 15 l 1
 162 1061 l 1
 405 1061 l 1
 405 684 l 1
 866 684 l 1
 866 1061 l 1
 1109 1061 l 1
 1109 688 l 1
 1311 688 l 2
1109 493 m 1
 1109 222 l 1
 1282 222 l 2
 1386 222 1448 278 1448 363 c 0
 1448 442 1384 493 1282 493 c 2
 1109 493 l 1
EndSplineSet
EndChar

StartChar: afii10145
Encoding: 1039 1039 124
Width: 1557
VWidth: 0
Flags: HW
PickledData: "(dp1
S'com.fontlab.hintData'
p2
(dp3
S'vhints'
p4
((dp5
S'position'
p6
I162
sS'width'
p7
I231
s(dp8
g6
I648
sg7
I165
s(dp9
g6
I1104
sg7
I231
stp10
sS'hhints'
p11
((dp12
g6
I15
sg7
I190
s(dp13
g6
I1420
sg7
I20
stp14
ss."
HStem: 15 190<393 648 813 1104 393 1335 813 813> 1420 20<162 393 393 393 1104 1335 1335 1335>
VStem: 162 231<205 1440 205 1440 205 1440> 648 165<-297 15 -297 15> 1104 231<205 1440 15 1440>
LayerCount: 2
Fore
SplineSet
1104 1440 m 1
 1335 1440 l 1
 1335 15 l 1
 813 15 l 1
 813 -297 l 1
 648 -297 l 1
 648 15 l 1
 162 15 l 1
 162 1440 l 1
 393 1440 l 1
 393 205 l 1
 1104 205 l 1
 1104 1440 l 1
EndSplineSet
EndChar

StartChar: afii10193
Encoding: 1119 1119 125
Width: 1263
VWidth: 0
Flags: HW
PickledData: "(dp1
S'com.fontlab.hintData'
p2
(dp3
S'vhints'
p4
((dp5
S'position'
p6
I142
sS'width'
p7
I223
s(dp8
g6
I539
sg7
I169
s(dp9
g6
I858
sg7
I223
stp10
sS'hhints'
p11
((dp12
g6
I15
sg7
I191
s(dp13
g6
I1041
sg7
I20
stp14
ss."
HStem: 15 191<365 539 708 858 365 1081 708 708> 1041 20<142 365 365 365 858 1081 1081 1081>
VStem: 142 223<206 1061 206 1061 206 1061> 539 169<-297 15 -297 15> 858 223<206 1061 15 1061>
LayerCount: 2
Fore
SplineSet
142 1061 m 1
 365 1061 l 1
 365 206 l 1
 858 206 l 1
 858 1061 l 1
 1081 1061 l 1
 1081 15 l 1
 708 15 l 1
 708 -297 l 1
 539 -297 l 1
 539 15 l 1
 142 15 l 1
 142 1061 l 1
EndSplineSet
EndChar

StartChar: ampersand
Encoding: 38 38 128
Width: 1400
VWidth: 0
Flags: HW
PickledData: "(dp1
S'com.fontlab.hintData'
p2
(dp3
S'vhints'
p4
((dp5
S'position'
p6
I41
sS'width'
p7
I249
s(dp8
g6
I216
sg7
I226
s(dp9
g6
I738
sg7
I247
stp10
sS'hhints'
p11
((dp12
g6
I-23
sg7
I217
s(dp13
g6
I-17
sg7
I21
s(dp14
g6
I1283
sg7
I200
stp15
ss."
HStem: -23 217<494.5 617 494.5 637> -17 21<1143 1143> 1283 200<549 635>
VStem: 41 249<343 504 343 517> 216 226<1090 1187.5 1090 1264> 738 247<1082.5 1190.5>
LayerCount: 2
Fore
SplineSet
549 917 m 1
 637 967 738 1023 738 1142 c 0
 738 1239 677 1283 593 1283 c 0
 505 1283 442 1239 442 1136 c 0
 442 1044 493 978 549 917 c 1
484 714 m 1
 379 652 290 575 290 433 c 0
 290 253 422 194 567 194 c 0
 667 194 763 232 849 291 c 1
 484 714 l 1
1012 432 m 1
 1069 497 1114 569 1154 645 c 1
 1335 525 l 1
 1287 433 1231 349 1165 274 c 1
 1373 55 l 1
 1143 -17 l 1
 1003 129 l 1
 867 28 714 -23 560 -23 c 0
 312 -23 41 88 41 407 c 0
 41 627 191 749 359 840 c 1
 282 929 216 1014 216 1145 c 0
 216 1383 401 1483 591 1483 c 0
 773 1483 985 1393 985 1163 c 0
 985 969 825 864 679 789 c 1
 1012 432 l 1
EndSplineSet
EndChar

StartChar: approxequal
Encoding: 8776 8776 130
Width: 1315
VWidth: 0
Flags: HW
PickledData: "(dp1
S'com.fontlab.hintData'
p2
(dp3
S'vhints'
p4
((dp5
S'position'
p6
I137
sS'width'
p7
I168
s(dp8
g6
I138
sg7
I165
stp9
sS'hhints'
p10
((dp11
g6
I259
sg7
I178
s(dp12
g6
I403
sg7
I180
s(dp13
g6
I611
sg7
I177
s(dp14
g6
I751
sg7
I177
stp15
ss."
HStem: 259 178<861 908 861 958> 403 180<445 449 449 457.5> 611 177<800 907 800 955.5> 751 177<404 455.5>
VStem: 137 168<580 621> 138 165<256 295>
LayerCount: 2
Fore
SplineSet
445 583 m 1
 449 583 l 2
 596 583 709 500 797 457 c 0
 825 444 850 437 872 437 c 0
 944 437 975 500 1005 583 c 1
 1014 605 l 2
 1014 606 1015 608 1015 609 c 2
 1174 567 l 1
 1168 539 l 2
 1136 392 1050 259 866 259 c 0
 719 259 615 349 517 388 c 0
 492 397 469 403 446 403 c 0
 365 403 331 352 311 284 c 2
 303 256 l 1
 138 295 l 1
 146 322 l 1
 181 459 271 574 445 581 c 1
 445 583 l 1
870 788 m 0
 944 788 975 840 1002 910 c 1
 1011 936 l 1
 1171 897 l 1
 1165 870 l 2
 1135 734 1047 611 864 611 c 0
 715 611 613 696 513 736 c 0
 489 745 467 751 444 751 c 0
 364 751 331 691 312 608 c 1
 305 580 l 1
 137 621 l 1
 143 648 l 2
 175 796 270 928 447 928 c 0
 638 928 730 788 870 788 c 0
EndSplineSet
EndChar

StartChar: asciicircum
Encoding: 94 94 132
Width: 1181
VWidth: 0
Flags: HW
PickledData: "(dp1
S'com.fontlab.hintData'
p2
(dp3
S'hhints'
p4
((dp5
S'position'
p6
I1422
sS'width'
p7
I20
stp8
ss."
HStem: 1422 20<524 651 651 651>
LayerCount: 2
Fore
SplineSet
41 550 m 1
 524 1442 l 1
 651 1442 l 1
 1140 550 l 1
 925 550 l 1
 586 1192 l 1
 258 550 l 1
 41 550 l 1
EndSplineSet
EndChar

StartChar: asciitilde
Encoding: 126 126 133
Width: 1419
VWidth: 0
Flags: HW
LayerCount: 2
Fore
SplineSet
1057 710 m 0
 1060 720 1062 732 1064 742 c 1
 1240 687 l 1
 1233 662 l 1
 1200 524 1109 385 922 385 c 0
 737 385 645 522 495 526 c 1
 494 525 l 1
 492 525 l 2
 408 525 362 467 345 407 c 1
 338 370 l 1
 172 443 l 1
 177 464 l 1
 205 594 311 719 490 719 c 0
 650 719 772 625 880 588 c 0
 899 582 915 579 924 579 c 0
 996 579 1039 646 1056 710 c 0
EndSplineSet
EndChar

StartChar: asterisk
Encoding: 42 42 134
Width: 1060
VWidth: 0
Flags: HW
LayerCount: 2
Fore
SplineSet
530 731 m 1
 338 427 l 1
 138 547 l 1
 390 840 l 1
 40 963 l 1
 144 1151 l 1
 448 1002 l 1
 422 1349 l 1
 638 1349 l 1
 612 1002 l 1
 916 1151 l 1
 1020 963 l 1
 670 840 l 1
 922 547 l 1
 722 427 l 1
 530 731 l 1
EndSplineSet
EndChar

StartChar: at
Encoding: 64 64 135
Width: 1633
VWidth: 0
Flags: HW
PickledData: "(dp1
S'com.fontlab.hintData'
p2
(dp3
S'vhints'
p4
((dp5
S'position'
p6
I56
sS'width'
p7
I197
s(dp8
g6
I413
sg7
I211
s(dp9
g6
I1384
sg7
I195
stp10
sS'hhints'
p11
((dp12
g6
I-230
sg7
I179
s(dp13
g6
I122
sg7
I179
s(dp14
g6
I139
sg7
I185
s(dp15
g6
I837
sg7
I173
s(dp16
g6
I1215
sg7
I154
stp17
ss."
HStem: -230 179<754 969 684.5 989.5> 122 179<1143.5 1171.5> 139 185<737 747 737 766.5> 837 173<820 921> 1215 154
VStem: 56 197<444 612.392 380.5 693> 413 211<425.5 566 425.5 624> 1384 195<586.5 787 554.5 839.5>
LayerCount: 2
Fore
SplineSet
737 324 m 2
 747 324 l 1
 926 334 973 617 1010 829 c 1
 976 834 939 837 903 837 c 0
 737 837 624 660 624 472 c 0
 624 379 660 324 737 324 c 2
945 246 m 1
 886 184 818 139 715 139 c 0
 520 139 413 293 413 481 c 0
 413 767 630 1010 903 1010 c 0
 1016 1010 1110 979 1193 951 c 1
 1217 942 l 1
 1212 916 l 1
 1179 764 1139 606 1113 456 c 0
 1107 419 1104 390 1104 374 c 0
 1104 317 1120 301 1167 301 c 0
 1311 301 1384 496 1384 677 c 0
 1384 1002 1177 1189 856 1189 c 2
 855 1189 l 1
 838 1207 815 1215 788 1215 c 0
 664 1215 460 1049 425 1018 c 0
 424 1018 424 1018 423 1018 c 0
 366 1018 253 654 253 571 c 0
 253 190 492 -51 877 -51 c 0
 1061 -51 1206 6 1311 91 c 2
 1331 107 l 1
 1442 -20 l 1
 1418 -41 l 1
 1289 -156 1104 -230 875 -230 c 0
 633 -230 422 -139 291 -11 c 0
 155 122 56 317 56 571 c 0
 56 815 162 1006 290 1137 c 0
 416 1265 620 1369 857 1369 c 0
 1066 1369 1236 1289 1355 1181 c 0
 1480 1068 1579 900 1579 674 c 0
 1579 435 1465 252 1307 166 c 0
 1255 137 1200 122 1143 122 c 0
 1041 122 981 169 945 246 c 1
EndSplineSet
EndChar

StartChar: b
Encoding: 98 98 137
Width: 1206
VWidth: 0
Flags: HW
PickledData: "(dp1
S'com.fontlab.hintData'
p2
(dp3
S'vhints'
p4
((dp5
S'position'
p6
I61
sS'width'
p7
I285
s(dp8
g6
I860
sg7
I282
stp9
sS'hhints'
p10
((dp11
g6
I-20
sg7
I198
s(dp12
g6
I0
sg7
I21
s(dp13
g6
I905
sg7
I198
s(dp14
g6
I1458
sg7
I20
stp15
ssS'com.typemytype.robofont.layerData'
p16
(dp17
s."
HStem: -20 198<608 687.5 561 841.5> 0 21<73 353 73 73> 905 198<610 687> 1458 20<73 358 358 358>
VStem: 61 285 860 282
LayerCount: 2
Fore
SplineSet
625 178 m 0
 750 178 872 297 872 538 c 0
 872 782 749 905 625 905 c 0
 498 905 373 782 373 538 c 0
 373 298 497 178 625 178 c 0
353 0 m 1
 73 0 l 1
 73 1478 l 1
 358 1478 l 1
 358 925 l 1
 439 1029 538 1103 682 1103 c 0
 992 1103 1154 804 1154 551 c 0
 1154 267 1001 -20 682 -20 c 0
 534 -20 438 60 359 162 c 1
 353 0 l 1
EndSplineSet
EndChar

StartChar: backslash
Encoding: 92 92 138
Width: 972
VWidth: 0
Flags: HW
PickledData: "(dp1
S'com.fontlab.hintData'
p2
(dp3
S'hhints'
p4
((dp5
S'position'
p6
I1441
sS'width'
p7
I20
stp8
ss."
HStem: 1441 20<34 259 259 259>
LayerCount: 2
Fore
SplineSet
259 1461 m 1
 939 -119 l 1
 716 -119 l 1
 34 1461 l 1
 259 1461 l 1
EndSplineSet
EndChar

StartChar: bar
Encoding: 124 124 139
Width: 364
VWidth: 0
Flags: HW
PickledData: "(dp1
S'com.fontlab.hintData'
p2
(dp3
S'vhints'
p4
((dp5
S'position'
p6
I70
sS'width'
p7
I224
stp8
ss."
VStem: 70 224<-280 1499>
LayerCount: 2
Fore
SplineSet
294 -280 m 1
 70 -280 l 1
 70 1499 l 1
 294 1499 l 1
 294 -280 l 1
EndSplineSet
EndChar

StartChar: braceleft
Encoding: 123 123 140
Width: 662
VWidth: 0
Flags: HW
PickledData: "(dp1
S'com.fontlab.hintData'
p2
(dp3
S'vhints'
p4
((dp5
S'position'
p6
I231
sS'width'
p7
I234
stp8
sS'hhints'
p9
((dp10
g6
I-221
sg7
I186
s(dp11
g6
I547
sg7
I196
s(dp12
g6
I1325
sg7
I186
stp13
ss."
HStem: -221 186<486 624 594 624> 547 196<34 128 34 128> 1325 186<531.653 624 594 624>
VStem: 231 234<70 130 130 325 325 378 965 1123>
LayerCount: 2
Fore
SplineSet
341 645 m 1
 421 585 465 500 465 378 c 2
 465 130 l 2
 465 6 469 -35 594 -35 c 2
 624 -35 l 1
 624 -221 l 1
 594 -221 l 2
 378 -221 231 -152 231 70 c 2
 231 325 l 2
 231 455 221 547 128 547 c 2
 34 547 l 1
 34 743 l 1
 128 743 l 2
 221 743 231 835 231 965 c 2
 231 1220 l 2
 231 1442 378 1511 594 1511 c 2
 624 1511 l 1
 624 1325 l 1
 594 1325 l 2
 469 1325 465 1286 465 1154 c 0
 465 1144 465 1134 465 1123 c 2
 465 913 l 2
 465 789 418 703 341 645 c 1
EndSplineSet
EndChar

StartChar: braceright
Encoding: 125 125 141
Width: 662
VWidth: 0
Flags: HW
PickledData: "(dp1
S'com.fontlab.hintData'
p2
(dp3
S'vhints'
p4
((dp5
S'position'
p6
I198
sS'width'
p7
I234
stp8
sS'hhints'
p9
((dp10
g6
I-221
sg7
I186
s(dp11
g6
I547
sg7
I196
s(dp12
g6
I1325
sg7
I186
stp13
ss."
HStem: -221 186<39 69 39 69> 547 196<488.5 629 535 629> 1325 186<39 69 39 69>
VStem: 198 234<167 325 912 965 965 1160 1160 1220>
LayerCount: 2
Fore
SplineSet
322 645 m 1
 242 705 198 790 198 912 c 2
 198 1160 l 2
 198 1284 194 1325 69 1325 c 2
 39 1325 l 1
 39 1511 l 1
 69 1511 l 2
 285 1511 432 1442 432 1220 c 2
 432 965 l 2
 432 835 442 743 535 743 c 2
 629 743 l 1
 629 547 l 1
 535 547 l 2
 442 547 432 455 432 325 c 2
 432 70 l 2
 432 -152 285 -221 69 -221 c 2
 39 -221 l 1
 39 -35 l 1
 69 -35 l 2
 194 -35 198 4 198 136 c 0
 198 146 198 156 198 167 c 2
 198 377 l 2
 198 501 245 587 322 645 c 1
EndSplineSet
EndChar

StartChar: bracketleft
Encoding: 91 91 142
Width: 527
VWidth: 0
Flags: HW
PickledData: "(dp1
S'com.fontlab.hintData'
p2
(dp3
S'vhints'
p4
((dp5
S'position'
p6
I66
sS'width'
p7
I406
s(dp8
g6
I66
sg7
I251
stp9
sS'hhints'
p10
((dp11
g6
I-259
sg7
I182
s(dp12
g6
I1317
sg7
I182
stp13
ss."
HStem: -259 182<317 472 317 472> 1317 182<317 472 317 317>
VStem: 66 406<-259 -77 1317 1499> 66 251<-77 -77 -77 1317>
LayerCount: 2
Fore
SplineSet
317 -77 m 1
 472 -77 l 1
 472 -259 l 1
 66 -259 l 1
 66 1499 l 1
 472 1499 l 1
 472 1317 l 1
 317 1317 l 1
 317 -77 l 1
EndSplineSet
EndChar

StartChar: bracketright
Encoding: 93 93 143
Width: 527
VWidth: 0
Flags: HW
PickledData: "(dp1
S'com.fontlab.hintData'
p2
(dp3
S'vhints'
p4
((dp5
S'position'
p6
I56
sS'width'
p7
I406
s(dp8
g6
I211
sg7
I251
stp9
sS'hhints'
p10
((dp11
g6
I-259
sg7
I182
s(dp12
g6
I1317
sg7
I182
stp13
ss."
HStem: -259 182<56 211 56 462 56 211> 1317 182<56 211 56 462>
VStem: 56 406<-259 -77 -77 -77 1317 1499> 211 251<-77 1317 1317 1317>
LayerCount: 2
Fore
SplineSet
462 -259 m 1
 56 -259 l 1
 56 -77 l 1
 211 -77 l 1
 211 1317 l 1
 56 1317 l 1
 56 1499 l 1
 462 1499 l 1
 462 -259 l 1
EndSplineSet
EndChar

StartChar: breve
Encoding: 728 728 144
Width: 688
VWidth: 0
Flags: HW
PickledData: "(dp1
S'com.fontlab.hintData'
p2
(dp3
S'vhints'
p4
((dp5
S'position'
p6
I38
sS'width'
p7
I184
s(dp8
g6
I454
sg7
I184
stp9
sS'hhints'
p10
((dp11
g6
I1206
sg7
I168
stp12
ss."
HStem: 1206 168<299 377 299 418.5>
VStem: 38 184<1426 1428 1428 1455 1412.5 1455> 454 184<1428 1455 1354.5 1455>
LayerCount: 2
Fore
SplineSet
222 1455 m 1
 222 1428 l 2
 222 1397 260 1374 338 1374 c 0
 416 1374 454 1397 454 1428 c 2
 454 1455 l 1
 638 1455 l 1
 638 1426 l 2
 638 1283 499 1206 338 1206 c 0
 177 1206 38 1284 38 1426 c 2
 38 1455 l 1
 222 1455 l 1
EndSplineSet
EndChar

StartChar: brokenbar
Encoding: 166 166 145
Width: 524
VWidth: 0
Flags: HW
PickledData: "(dp1
S'com.fontlab.hintData'
p2
(dp3
S'vhints'
p4
((dp5
S'position'
p6
I147
sS'width'
p7
I224
stp8
ss."
VStem: 147 224<-279 351 869 1499>
LayerCount: 2
Fore
SplineSet
371 -279 m 1
 147 -279 l 1
 147 351 l 1
 371 351 l 1
 371 -279 l 1
371 869 m 1
 147 869 l 1
 147 1499 l 1
 371 1499 l 1
 371 869 l 1
EndSplineSet
EndChar

StartChar: bullet
Encoding: 8226 8226 146
Width: 1038
VWidth: 0
Flags: HW
PickledData: "(dp1
S'com.fontlab.hintData'
p2
(dp3
S'vhints'
p4
((dp5
S'position'
p6
I145
sS'width'
p7
I752
stp8
sS'hhints'
p9
((dp10
g6
I335
sg7
I685
stp11
ss."
HStem: 335 685<415 628.5>
VStem: 145 752<581.5 772.5>
LayerCount: 2
Fore
SplineSet
518 335 m 0
 299 335 145 478 145 674 c 0
 145 871 305 1020 525 1020 c 0
 743 1020 897 877 897 681 c 0
 897 482 739 335 518 335 c 0
EndSplineSet
EndChar

StartChar: c
Encoding: 99 99 147
Width: 1042
VWidth: 0
Flags: HW
PickledData: "(dp1
S'com.fontlab.hintData'
p2
(dp3
S'vhints'
p4
((dp5
S'position'
p6
I35
sS'width'
p7
I291
stp8
sS'hhints'
p9
((dp10
g6
I-20
sg7
I198
s(dp11
g6
I905
sg7
I198
stp12
ssS'com.typemytype.robofont.layerData'
p13
(dp14
s."
HStem: -20 198<538.5 660 538.5 667> 905 198<539.5 662.5 447.5 664>
VStem: 35 291
LayerCount: 2
Fore
SplineSet
343 544 m 0
 343 293 470 178 607 178 c 0
 713 178 818 232 893 321 c 1
 1021 148 l 1
 884 27 743 -20 591 -20 c 0
 311 -20 52 178 52 542 c 0
 52 897 310 1103 585 1103 c 0
 740 1103 891 1061 1014 928 c 1
 896 766 l 1
 825 854 721 905 607 905 c 0
 472 905 343 784 343 544 c 0
EndSplineSet
EndChar

StartChar: caron
Encoding: 711 711 149
Width: 739
VWidth: 0
Flags: HW
PickledData: "(dp1
S'com.fontlab.hintData'
p2
(dp3
S'hhints'
p4
((dp5
S'position'
p6
I1174
sS'width'
p7
I341
stp8
ss."
HStem: 1174 341<16 294 16 487>
LayerCount: 2
Fore
SplineSet
294 1174 m 1
 16 1515 l 1
 230 1515 l 1
 385 1357 l 1
 545 1515 l 1
 765 1515 l 1
 487 1174 l 1
 294 1174 l 1
EndSplineSet
EndChar

StartChar: cedilla
Encoding: 184 184 152
Width: 586
VWidth: 0
Flags: HW
PickledData: "(dp1
S'com.fontlab.hintData'
p2
(dp3
S'vhints'
p4
((dp5
S'position'
p6
I44
sS'width'
p7
I290
stp8
sS'hhints'
p9
((dp10
g6
I-339
sg7
I366
stp11
ss."
HStem: -339 366<171 272 44 334>
VStem: 44 290
LayerCount: 2
Fore
SplineSet
272 -339 m 1
 44 -339 l 1
 171 27 l 1
 334 27 l 1
 272 -339 l 1
EndSplineSet
EndChar

StartChar: cent
Encoding: 162 162 153
Width: 966
VWidth: 0
Flags: HW
PickledData: "(dp1
S'com.fontlab.hintData'
p2
(dp3
S'vhints'
p4
((dp5
S'position'
p6
I39
sS'width'
p7
I226
s(dp8
g6
I415
sg7
I183
stp9
ss."
VStem: 39 226<422 608 422 658> 415 183<-256 -255>
LayerCount: 2
Fore
SplineSet
484 879 m 1
 339 828 265 703 265 513 c 0
 265 331 325 223 442 167 c 1
 484 879 l 1
430 -19 m 1
 179 35 39 230 39 507 c 0
 39 809 204 1032 495 1065 c 1
 509 1271 l 1
 692 1271 l 1
 678 1056 l 1
 781 1032 864 989 917 917 c 1
 929 900 l 1
 823 746 l 1
 798 778 l 2
 764 820 719 847 666 866 c 1
 622 158 l 1
 705 173 770 202 837 261 c 2
 871 291 l 1
 935 96 l 1
 848 25 749 -17 612 -28 c 1
 598 -255 l 1
 415 -256 l 1
 430 -19 l 1
EndSplineSet
EndChar

StartChar: circumflex
Encoding: 710 710 154
Width: 743
VWidth: 0
Flags: HW
PickledData: "(dp1
S'com.fontlab.hintData'
p2
(dp3
S'hhints'
p4
((dp5
S'position'
p6
I1133
sS'width'
p7
I382
stp8
ss."
HStem: 1133 382<25 488 25 488 288 557 288 751>
LayerCount: 2
Fore
SplineSet
214 1133 m 1
 25 1133 l 1
 288 1515 l 1
 488 1515 l 1
 751 1133 l 1
 557 1133 l 1
 384 1334 l 1
 214 1133 l 1
EndSplineSet
EndChar

StartChar: colon
Encoding: 58 58 155
Width: 411
VWidth: 0
Flags: HW
PickledData: "(dp1
S'com.fontlab.hintData'
p2
(dp3
S'vhints'
p4
((dp5
S'position'
p6
I77
sS'width'
p7
I260
stp8
sS'hhints'
p9
((dp10
g6
I-22
sg7
I264
s(dp11
g6
I789
sg7
I264
s(dp12
g6
I1045
sg7
I20
stp13
ss."
HStem: -22 264<58 348 58 348 337 337> 789 264<75 75 75 96 64 75> 1045 20<75 75>
VStem: 77 260
LayerCount: 2
Fore
SplineSet
58 -22 m 1
 74 10 77 58 77 106 c 0
 77 141 75 176 75 202 c 2
 75 254 l 1
 107 252 l 1
 176 246 244 242 316 242 c 2
 348 242 l 1
 346 192 l 1
 340 118 337 47 337 -22 c 2
 337 -34 l 1
 305 -32 l 1
 236 -26 168 -22 96 -22 c 2
 58 -22 l 1
337 775 m 1
 261 783 176 789 96 789 c 2
 64 789 l 1
 66 839 l 1
 72 913 75 984 75 1053 c 2
 75 1065 l 1
 107 1063 l 1
 176 1057 244 1053 316 1053 c 2
 354 1053 l 1
 339 1021 335 969 335 920 c 0
 335 886 337 853 337 828 c 2
 337 775 l 1
EndSplineSet
EndChar

StartChar: comma
Encoding: 44 44 156
Width: 424
VWidth: 0
Flags: HW
PickledData: "(dp1
S'com.fontlab.hintData'
p2
(dp3
S'vhints'
p4
((dp5
S'position'
p6
I36
sS'width'
p7
I355
stp8
sS'hhints'
p9
((dp10
g6
I-306
sg7
I530
stp11
ss."
HStem: -306 530<151 218 36 391>
VStem: 36 355
LayerCount: 2
Fore
SplineSet
151 224 m 1
 391 224 l 1
 218 -306 l 1
 36 -306 l 1
 151 224 l 1
EndSplineSet
EndChar

StartChar: commaaccent
Encoding: 63171 63171 157
Width: 657
VWidth: 0
Flags: HW
PickledData: "(dp1
S'com.fontlab.hintData'
p2
(dp3
S'vhints'
p4
((dp5
S'position'
p6
I97
sS'width'
p7
I360
stp8
sS'hhints'
p9
((dp10
g6
I-653
sg7
I523
stp11
ss."
HStem: -653 523<213 282 97 457>
VStem: 97 360
LayerCount: 2
Fore
SplineSet
282 -653 m 1
 97 -653 l 1
 213 -130 l 1
 457 -130 l 1
 282 -653 l 1
EndSplineSet
EndChar

StartChar: copyright
Encoding: 169 169 158
Width: 1732
VWidth: 0
Flags: HW
PickledData: "(dp1
S'com.fontlab.hintData'
p2
(dp3
S'vhints'
p4
((dp5
S'position'
p6
I93
sS'width'
p7
I180
s(dp8
g6
I421
sg7
I197
s(dp9
g6
I1482
sg7
I180
stp10
sS'hhints'
p11
((dp12
g6
I-20
sg7
I156
s(dp13
g6
I245
sg7
I167
s(dp14
g6
I1046
sg7
I167
s(dp15
g6
I1318
sg7
I159
stp16
ss."
HStem: -20 156<703.5 1057 703.5 1103> 245 167<818 935.5 818 953> 1046 167<818 935.5> 1318 159<717 1045>
VStem: 93 180<552.5 911 552.5 947> 421 197 1482 180<552.5 911>
LayerCount: 2
Fore
SplineSet
890 245 m 0
 619 245 421 458 421 725 c 0
 421 994 619 1213 890 1213 c 0
 1016 1213 1122 1180 1208 1125 c 1
 1141 979 l 1
 1057 1025 973 1046 898 1046 c 0
 738 1046 618 917 618 723 c 0
 618 537 738 412 898 412 c 0
 973 412 1057 433 1141 479 c 1
 1208 333 l 1
 1122 278 1016 245 890 245 c 0
882 1477 m 0
 1323 1477 1662 1160 1662 734 c 0
 1662 295 1324 -20 882 -20 c 0
 434 -20 93 295 93 734 c 0
 93 1160 435 1477 882 1477 c 0
882 136 m 0
 1232 136 1482 370 1482 735 c 0
 1482 1087 1208 1318 882 1318 c 0
 552 1318 273 1087 273 735 c 0
 273 370 525 136 882 136 c 0
EndSplineSet
EndChar

StartChar: currency
Encoding: 164 164 159
Width: 880
VWidth: 0
Flags: HW
PickledData: "(dp1
S'com.fontlab.hintData'
p2
(dp3
S'vhints'
p4
((dp5
S'position'
p6
I54
sS'width'
p7
I149
s(dp8
g6
I675
sg7
I150
stp9
sS'hhints'
p10
((dp11
g6
I270
sg7
I110
s(dp12
g6
I954
sg7
I133
stp13
ss."
HStem: 270 110<419.5 472> 954 133<415 460 415 521.5>
VStem: 54 149<581.5 743> 675 150<655 665 665 751>
LayerCount: 2
Fore
SplineSet
675 655 m 1
 675 665 l 2
 675 837 606 954 437 954 c 0
 275 954 203 831 203 665 c 0
 203 498 276 380 441 380 c 0
 602 380 672 495 675 655 c 1
437 270 m 0
 402 270 368 273 342 277 c 1
 252 31 l 1
 169 69 l 1
 253 305 l 1
 131 371 54 491 54 664 c 0
 54 822 119 938 219 1009 c 1
 74 1282 l 1
 167 1319 l 1
 299 1066 l 1
 344 1080 388 1087 442 1087 c 0
 478 1087 516 1081 550 1075 c 1
 644 1320 l 1
 675 1307 705 1296 735 1284 c 1
 639 1025 l 1
 756 955 825 836 825 669 c 0
 825 525 766 415 683 346 c 1
 828 72 l 1
 742 31 l 1
 607 303 l 1
 558 282 507 270 437 270 c 0
EndSplineSet
EndChar

StartChar: d
Encoding: 100 100 160
Width: 1204
VWidth: 0
Flags: HW
PickledData: "(dp1
S'com.fontlab.hintData'
p2
(dp3
S'vhints'
p4
((dp5
S'position'
p6
I49
sS'width'
p7
I282
s(dp8
g6
I845
sg7
I285
stp9
sS'hhints'
p10
((dp11
g6
I-20
sg7
I198
s(dp12
g6
I0
sg7
I21
s(dp13
g6
I905
sg7
I198
s(dp14
g6
I1458
sg7
I20
stp15
ssS'com.typemytype.robofont.layerData'
p16
(dp17
s."
HStem: -20 198<524.5 598> 0 21<853 853 853 1133> 905 198<525 596 369 650.5> 1458 20<848 1133 1133 1133>
VStem: 49 282 845 285
LayerCount: 2
Fore
SplineSet
587 178 m 0
 715 178 847 298 847 538 c 0
 847 782 714 905 587 905 c 0
 463 905 334 782 334 538 c 0
 334 297 462 178 587 178 c 0
853 0 m 1
 847 162 l 1
 768 60 672 -20 524 -20 c 0
 205 -20 52 267 52 551 c 0
 52 804 214 1103 524 1103 c 0
 668 1103 767 1029 848 925 c 1
 848 1478 l 1
 1133 1478 l 1
 1133 0 l 1
 853 0 l 1
EndSplineSet
EndChar

StartChar: dagger
Encoding: 8224 8224 161
Width: 992
VWidth: 0
Flags: HW
PickledData: "(dp1
S'com.fontlab.hintData'
p2
(dp3
S'vhints'
p4
((dp5
S'position'
p6
I377
sS'width'
p7
I207
stp8
sS'hhints'
p9
((dp10
g6
I909
sg7
I192
s(dp11
g6
I1441
sg7
I20
stp12
ss."
HStem: 909 192<64 377 64 377 597 928> 1441 20<377 597 597 597>
VStem: 377 207<113 909>
LayerCount: 2
Fore
SplineSet
584 113 m 1
 377 113 l 1
 377 909 l 1
 64 909 l 1
 64 1101 l 1
 377 1101 l 1
 377 1461 l 1
 597 1461 l 1
 597 1101 l 1
 928 1101 l 1
 928 909 l 1
 584 909 l 1
 584 113 l 1
EndSplineSet
EndChar

StartChar: daggerdbl
Encoding: 8225 8225 162
Width: 994
VWidth: 0
Flags: HW
PickledData: "(dp1
S'com.fontlab.hintData'
p2
(dp3
S'vhints'
p4
((dp5
S'position'
p6
I372
sS'width'
p7
I229
s(dp8
g6
I394
sg7
I200
stp9
sS'hhints'
p10
((dp11
g6
I410
sg7
I187
s(dp12
g6
I958
sg7
I192
s(dp13
g6
I1441
sg7
I20
stp14
ss."
HStem: 410 187<64 392 64 394 596 924 596 596> 958 192<69 394 69 397 601 931> 1441 20<372 601 601 601>
VStem: 372 229<1150 1461> 394 200<597 958 597 958>
LayerCount: 2
Fore
SplineSet
64 597 m 1
 394 597 l 1
 394 958 l 1
 69 958 l 1
 69 1150 l 1
 397 1150 l 1
 372 1461 l 1
 601 1461 l 1
 601 1150 l 1
 931 1150 l 1
 931 958 l 1
 594 958 l 1
 594 597 l 1
 924 597 l 1
 924 410 l 1
 596 410 l 1
 622 113 l 1
 370 113 l 1
 392 410 l 1
 64 410 l 1
 64 597 l 1
EndSplineSet
EndChar

StartChar: degree
Encoding: 176 176 163
Width: 842
VWidth: 0
Flags: HW
PickledData: "(dp1
S'com.fontlab.hintData'
p2
(dp3
S'vhints'
p4
((dp5
S'position'
p6
I85
sS'width'
p7
I179
s(dp8
g6
I564
sg7
I178
stp9
sS'hhints'
p10
((dp11
g6
I854
sg7
I176
s(dp12
g6
I1277
sg7
I176
stp13
ss."
HStem: 854 176<369.5 457 369.5 502.5> 1277 176<369.5 413 413 423>
VStem: 85 179<1118.5 1190 1118.5 1241> 564 178<1119 1190>
LayerCount: 2
Fore
SplineSet
423 1277 m 1
 413 1277 l 2
 326 1277 264 1225 264 1155 c 0
 264 1082 326 1030 413 1030 c 0
 501 1030 564 1083 564 1155 c 0
 564 1225 503 1273 423 1277 c 1
413 1453 m 0
 585 1453 742 1341 742 1154 c 0
 742 980 592 854 413 854 c 0
 234 854 85 981 85 1154 c 0
 85 1328 233 1453 413 1453 c 0
EndSplineSet
EndChar

StartChar: dieresis
Encoding: 168 168 164
Width: 766
VWidth: 0
Flags: HW
PickledData: "(dp1
S'com.fontlab.hintData'
p2
(dp3
S'vhints'
p4
((dp5
S'position'
p6
I81
sS'width'
p7
I226
s(dp8
g6
I455
sg7
I226
stp9
sS'hhints'
p10
((dp11
g6
I1230
sg7
I225
stp12
ss."
HStem: 1230 225<81 307 81 307 81 455 455 681>
VStem: 81 226<1230 1455 1230 1455> 455 226<1230 1455 1230 1455>
LayerCount: 2
Fore
SplineSet
307 1455 m 1
 307 1230 l 1
 81 1230 l 1
 81 1455 l 1
 307 1455 l 1
681 1455 m 1
 681 1230 l 1
 455 1230 l 1
 455 1455 l 1
 681 1455 l 1
EndSplineSet
EndChar

StartChar: divide
Encoding: 247 247 165
Width: 1511
VWidth: 0
Flags: HW
PickledData: "(dp1
S'com.fontlab.hintData'
p2
(dp3
S'vhints'
p4
((dp5
S'position'
p6
I603
sS'width'
p7
I303
stp8
sS'hhints'
p9
((dp10
g6
I21
sg7
I270
s(dp11
g6
I460
sg7
I199
s(dp12
g6
I818
sg7
I270
stp13
ss."
HStem: 21 270<603 906 603 906> 460 199<198 1300 198 1300> 818 270<603 906 603 906>
VStem: 603 303<21 291 21 291 818 1088>
LayerCount: 2
Fore
SplineSet
906 291 m 1
 906 21 l 1
 603 21 l 1
 603 291 l 1
 906 291 l 1
906 1088 m 1
 906 818 l 1
 603 818 l 1
 603 1088 l 1
 906 1088 l 1
1300 460 m 1
 198 460 l 1
 198 659 l 1
 1300 659 l 1
 1300 460 l 1
EndSplineSet
EndChar

StartChar: dollar
Encoding: 36 36 166
Width: 1176
VWidth: 0
Flags: HW
PickledData: "(dp1
S'com.fontlab.hintData'
p2
(dp3
S'vhints'
p4
((dp5
S'position'
p6
I47
sS'width'
p7
I250
s(dp8
g6
I553
sg7
I119
s(dp9
g6
I558
sg7
I119
s(dp10
g6
I880
sg7
I254
stp11
sS'hhints'
p12
((dp13
g6
I-15
sg7
I232
s(dp14
g6
I1262
sg7
I236
stp15
ss."
HStem: -15 232<549 553> 1262 236<566 569>
VStem: 47 250<1021.5 1140 1021.5 1215.5> 553 119<217 225> 558 119<631 662> 880 254<362.5 419 419 420 283.5 486>
LayerCount: 2
Fore
SplineSet
566 1262 m 1
 407 1251 297 1199 297 1081 c 0
 297 962 426 936 562 899 c 1
 566 1262 l 1
549 -15 m 1
 334 -9 176 42 55 115 c 1
 33 129 l 1
 121 354 l 1
 152 330 l 1
 242 265 380 224 553 217 c 1
 558 662 l 1
 434 693 l 1
 228 746 47 846 47 1082 c 0
 47 1349 259 1481 569 1498 c 1
 571 1639 l 1
 690 1639 l 1
 689 1498 l 1
 865 1489 1010 1449 1110 1380 c 1
 1131 1366 l 1
 1046 1166 l 1
 1043 1160 l 1
 954 1215 845 1258 685 1269 c 1
 680 871 l 1
 748 853 l 1
 950 795 1140 711 1140 492 c 0
 1140 470 1138 445 1134 420 c 1
 1134 419 l 2
 1134 148 938 13 669 -13 c 1
 666 -196 l 1
 547 -196 l 1
 549 -15 l 1
672 225 m 1
 801 244 880 302 880 423 c 0
 880 549 806 593 677 631 c 1
 672 225 l 1
EndSplineSet
EndChar

StartChar: dotaccent
Encoding: 729 729 167
Width: 582
VWidth: 0
Flags: HW
PickledData: "(dp1
S'com.fontlab.hintData'
p2
(dp3
S'vhints'
p4
((dp5
S'position'
p6
I169
sS'width'
p7
I212
stp8
sS'hhints'
p9
((dp10
g6
I1232
sg7
I223
stp11
ss."
HStem: 1232 223<169 381 169 381>
VStem: 169 212<1232 1455 1232 1455>
LayerCount: 2
Fore
SplineSet
381 1455 m 1
 381 1232 l 1
 169 1232 l 1
 169 1455 l 1
 381 1455 l 1
EndSplineSet
EndChar

StartChar: dotaccentcmb
Encoding: 775 775 168
Width: 549
VWidth: 0
Flags: HW
PickledData: "(dp1
S'com.fontlab.hintData'
p2
(dp3
S'vhints'
p4
((dp5
S'position'
p6
I169
sS'width'
p7
I212
stp8
sS'hhints'
p9
((dp10
g6
I1196
sg7
I223
stp11
ss."
HStem: 1196 223<169 381 169 381>
VStem: 169 212<1196 1419 1196 1419>
LayerCount: 2
Fore
SplineSet
381 1419 m 1
 381 1196 l 1
 169 1196 l 1
 169 1419 l 1
 381 1419 l 1
EndSplineSet
EndChar

StartChar: dotlessi
Encoding: 305 305 169
Width: 587
VWidth: 0
Flags: HW
PickledData: "(dp1
S'com.fontlab.hintData'
p2
(dp3
S'vhints'
p4
((dp5
S'position'
p6
I197
sS'width'
p7
I259
stp8
sS'hhints'
p9
((dp10
g6
I15
sg7
I21
s(dp11
g6
I1041
sg7
I20
stp12
ss."
HStem: 15 21<197 456 197 197> 1041 20<197 456 456 456>
VStem: 197 259<15 1061 15 1061>
LayerCount: 2
Fore
SplineSet
456 1061 m 1
 456 15 l 1
 197 15 l 1
 197 1061 l 1
 456 1061 l 1
EndSplineSet
EndChar

StartChar: dotlessj
Encoding: 567 567 170
Width: 548
VWidth: 0
Flags: HW
PickledData: "(dp1
S'com.fontlab.hintData'
p2
(dp3
S'vhints'
p4
((dp5
S'position'
p6
I171
sS'width'
p7
I259
stp8
sS'hhints'
p9
((dp10
g6
I-318
sg7
I213
stp11
ss."
HStem: -318 213<-31 -2 -2 5 -31 -2>
VStem: 171 259<107 165 165 1051>
LayerCount: 2
Fore
SplineSet
430 1051 m 1
 430 165 l 2
 430 -157 354 -318 5 -318 c 2
 -31 -318 l 1
 -31 -105 l 1
 -2 -105 l 2
 151 -105 171 -58 171 107 c 2
 171 1051 l 1
 430 1051 l 1
EndSplineSet
EndChar

StartChar: e
Encoding: 101 101 171
Width: 1127
VWidth: 0
Flags: HW
PickledData: "(dp1
S'com.fontlab.hintData'
p2
(dp3
S'vhints'
p4
((dp5
S'position'
p6
I49
sS'width'
p7
I295
s(dp8
g6
I791
sg7
I278
stp9
sS'hhints'
p10
((dp11
g6
I-20
sg7
I198
s(dp12
g6
I475
sg7
I136
s(dp13
g6
I914
sg7
I189
stp14
ssS'com.typemytype.robofont.layerData'
p15
(dp16
s."
HStem: -20 198<530 692.5 530 699.5> 475 136<347 794 350 794 350 1071> 914 189<522 656.765>
VStem: 49 295 791 278
LayerCount: 2
Fore
SplineSet
794 611 m 1
 794 614 794 617 794 620 c 0
 794 792 720 914 594 914 c 0
 450 914 366 800 350 611 c 1
 794 611 l 1
347 475 m 1
 351 297 443 178 617 178 c 0
 768 178 863 236 935 305 c 1
 1041 133 l 1
 935 38 807 -20 592 -20 c 0
 241 -20 52 254 52 541 c 0
 52 845 258 1103 589 1103 c 0
 911 1103 1072 859 1072 560 c 0
 1072 534 1071 507 1071 480 c 2
 1071 475 l 1
 347 475 l 1
EndSplineSet
EndChar

StartChar: eight
Encoding: 56 56 176
Width: 1137
VWidth: 0
Flags: HW
PickledData: "(dp1
S'com.fontlab.hintData'
p2
(dp3
S'vhints'
p4
((dp5
S'position'
p6
I55
sS'width'
p7
I267
s(dp8
g6
I82
sg7
I247
s(dp9
g6
I808
sg7
I248
s(dp10
g6
I815
sg7
I267
stp11
sS'hhints'
p12
((dp13
g6
I2
sg7
I215
s(dp14
g6
I1263
sg7
I235
stp15
ss."
HStem: 2 215<490.5 648.319 490.5 708.5> 1263 235<500 638>
VStem: 55 267<360.5 504.5> 82 247<1032 1143.5 1013.5 1246> 808 248<1033.5 1143.5> 815 267
LayerCount: 2
Fore
SplineSet
569 849 m 1
 716 884 808 943 808 1086 c 0
 808 1201 707 1263 569 1263 c 0
 431 1263 329 1201 329 1086 c 0
 329 941 427 882 569 849 c 1
569 691 m 1
 427 653 322 583 322 431 c 0
 322 290 412 217 569 217 c 0
 728 217 815 290 815 433 c 0
 815 585 704 654 569 691 c 1
857 780 m 1
 992 707 1082 594 1082 409 c 0
 1082 139 848 2 569 2 c 0
 288 2 55 141 55 410 c 0
 55 599 158 710 296 780 c 1
 173 846 82 946 82 1118 c 0
 82 1374 303 1498 569 1498 c 0
 837 1498 1056 1373 1056 1118 c 0
 1056 949 971 847 857 780 c 1
EndSplineSet
EndChar

StartChar: ellipsis
Encoding: 8230 8230 177
Width: 1587
VWidth: 0
Flags: HW
PickledData: "(dp1
S'com.fontlab.hintData'
p2
(dp3
S'vhints'
p4
((dp5
S'position'
p6
I147
sS'width'
p7
I266
s(dp8
g6
I652
sg7
I282
s(dp9
g6
I1172
sg7
I266
stp10
sS'hhints'
p11
((dp12
g6
I-61
sg7
I270
stp13
ss."
HStem: -61 270<147 413 147 413 652 934 147 652 1172 1438>
VStem: 147 266<-61 209 -61 209> 652 282<-61 209 -61 209> 1172 266<-61 209 -61 209>
LayerCount: 2
Fore
SplineSet
1172 209 m 1
 1438 209 l 1
 1438 -61 l 1
 1172 -61 l 1
 1172 209 l 1
652 209 m 1
 934 209 l 1
 934 -61 l 1
 652 -61 l 1
 652 209 l 1
147 209 m 1
 413 209 l 1
 413 -61 l 1
 147 -61 l 1
 147 209 l 1
EndSplineSet
EndChar

StartChar: emdash
Encoding: 8212 8212 179
Width: 1994
VWidth: 0
Flags: HW
PickledData: "(dp1
S'com.fontlab.hintData'
p2
(dp3
S'hhints'
p4
((dp5
S'position'
p6
I439
sS'width'
p7
I197
stp8
ss."
HStem: 439 197<-7 1990 -7 1990>
LayerCount: 2
Fore
SplineSet
-7 636 m 1
 1990 636 l 1
 1990 439 l 1
 -7 439 l 1
 -7 636 l 1
EndSplineSet
EndChar

StartChar: endash
Encoding: 8211 8211 180
Width: 1220
VWidth: 0
Flags: HW
PickledData: "(dp1
S'com.fontlab.hintData'
p2
(dp3
S'hhints'
p4
((dp5
S'position'
p6
I439
sS'width'
p7
I197
stp8
ss."
HStem: 439 197<70 1150 70 1150>
LayerCount: 2
Fore
SplineSet
70 636 m 1
 1150 636 l 1
 1150 439 l 1
 70 439 l 1
 70 636 l 1
EndSplineSet
EndChar

StartChar: equal
Encoding: 61 61 182
Width: 1184
VWidth: 0
Flags: HW
PickledData: "(dp1
S'com.fontlab.hintData'
p2
(dp3
S'hhints'
p4
((dp5
S'position'
p6
I283
sS'width'
p7
I197
s(dp8
g6
I639
sg7
I198
stp9
ss."
HStem: 283 197<71 1114 71 1114> 639 198<70 1113 70 1113>
LayerCount: 2
Fore
SplineSet
70 639 m 1
 70 837 l 1
 1113 837 l 1
 1113 639 l 1
 70 639 l 1
71 283 m 1
 71 480 l 1
 1114 480 l 1
 1114 283 l 1
 71 283 l 1
EndSplineSet
EndChar

StartChar: eth
Encoding: 240 240 183
Width: 1215
VWidth: 0
Flags: HW
PickledData: "(dp1
S'com.fontlab.hintData'
p2
(dp3
S'vhints'
p4
((dp5
S'position'
p6
I80
sS'width'
p7
I258
s(dp8
g6
I910
sg7
I247
stp9
sS'hhints'
p10
((dp11
g6
I-19
sg7
I218
s(dp12
g6
I754
sg7
I161
s(dp13
g6
I1458
sg7
I20
stp14
ss."
HStem: -19 218<540 716.5 540 782.5> 754 161<530.5 584.5 419 712.5> 1458 20<201 518 518 518>
VStem: 80 258<391 562.5 391 597.5> 910 247<388 466 466 469 315 559>
LayerCount: 2
Fore
SplineSet
338 475 m 0
 338 307 452 199 628 199 c 0
 805 199 910 304 910 472 c 0
 910 646 803 754 622 754 c 0
 439 754 338 650 338 475 c 0
756 1189 m 1
 864 1068 966 954 1051 817 c 0
 1111 721 1153 617 1155 470 c 1
 1157 469 l 1
 1157 466 l 2
 1157 164 944 -19 621 -19 c 0
 305 -19 80 167 80 460 c 0
 80 735 271 915 567 915 c 0
 602 915 638 911 669 905 c 2
 698 899 l 1
 525 1094 l 1
 289 997 l 1
 223 1179 l 1
 393 1250 l 1
 201 1478 l 1
 518 1478 l 1
 626 1345 l 1
 883 1451 l 1
 951 1270 l 1
 756 1189 l 1
EndSplineSet
EndChar

StartChar: exclam
Encoding: 33 33 184
Width: 399
VWidth: 0
Flags: HW
PickledData: "(dp1
S'com.fontlab.hintData'
p2
(dp3
S'vhints'
p4
((dp5
S'position'
p6
I59
sS'width'
p7
I7
s(dp8
g6
I81
sg7
I254
s(dp9
g6
I126
sg7
I20
s(dp10
g6
I153
sg7
I117
stp11
sS'hhints'
p12
((dp13
g6
I-23
sg7
I266
s(dp14
g6
I1435
sg7
I20
stp15
ss."
HStem: -23 266<80.7812 334.781 80.7812 334.781> 1435 20<80.7812 334.781 334.781 334.781>
VStem: 59 7 81 254 126 20 153 117
LayerCount: 2
Fore
SplineSet
63 1171 m 1
 66 1171 l 1
 63 1171 l 1
 60 1205 59 1238 59 1266 c 0
 59 1340 66 1389 66 1389 c 2
 66 1388 70 1334 81 1199 c 2
 83 1173 l 1
 86 1141 l 2
 87 1124 89 1107 90 1090 c 2
 146 410 l 1
 145 407 126 408 126 409 c 0
 126 413 87 884 63 1171 c 1
81 1455 m 1
 335 1455 l 1
 335 1198 l 1
 270 323 l 1
 153 323 l 1
 146 410 l 1
 147 413 131 590 90 1090 c 1
 86 1141 l 2
 84 1160 81 1179 81 1198 c 2
 81 1455 l 1
335 -23 m 1
 81 -23 l 1
 81 243 l 1
 335 243 l 1
 335 -23 l 1
EndSplineSet
EndChar

StartChar: exclamdown
Encoding: 161 161 185
Width: 750
VWidth: 0
Flags: HW
PickledData: "(dp1
S'com.fontlab.hintData'
p2
(dp3
S'vhints'
p4
((dp5
S'position'
p6
I243
sS'width'
p7
I263
s(dp8
g6
I291
sg7
I207
stp9
sS'hhints'
p10
((dp11
g6
I-384
sg7
I21
s(dp12
g6
I834
sg7
I266
stp13
ss."
HStem: -384 21<291 498 291 291> 834 266<243 506 243 506>
VStem: 243 263<834 1100> 291 207<-384 754 -384 754>
LayerCount: 2
Fore
SplineSet
291 754 m 1
 498 754 l 1
 498 -384 l 1
 291 -384 l 1
 291 754 l 1
506 834 m 1
 243 834 l 1
 243 1100 l 1
 506 1100 l 1
 506 834 l 1
EndSplineSet
EndChar

StartChar: f
Encoding: 102 102 186
Width: 752
VWidth: 0
Flags: HW
PickledData: "(dp1
S'com.fontlab.hintData'
p2
(dp3
S'vhints'
p4
((dp5
S'position'
p6
I208
sS'width'
p7
I285
stp8
sS'hhints'
p9
((dp10
g6
I0
sg7
I21
s(dp11
g6
I896
sg7
I165
s(dp12
g6
I1352
sg7
I184
stp13
ssS'com.typemytype.robofont.layerData'
p14
(dp15
s."
HStem: 0 21<194 479 194 194> 896 165<23 194 23 194 479 717> 1352 184<543 726 606 726>
VStem: 208 285
LayerCount: 2
Fore
SplineSet
194 1091 m 2
 194 1373 227 1536 606 1536 c 2
 726 1536 l 1
 726 1352 l 1
 606 1352 l 2
 480 1352 479 1312 479 1228 c 2
 479 1061 l 1
 717 1061 l 1
 717 896 l 1
 479 896 l 1
 479 0 l 1
 194 0 l 1
 194 896 l 1
 23 896 l 1
 23 1061 l 1
 194 1061 l 1
 194 1091 l 2
EndSplineSet
EndChar

StartChar: five
Encoding: 53 53 188
Width: 1091
VWidth: 0
Flags: HW
PickledData: "(dp1
S'com.fontlab.hintData'
p2
(dp3
S'vhints'
p4
((dp5
S'position'
p6
I797
sS'width'
p7
I253
stp8
sS'hhints'
p9
((dp10
g6
I-8
sg7
I218
s(dp11
g6
I745
sg7
I213
s(dp12
g6
I1227
sg7
I220
stp13
ss."
HStem: -8 218<421.5 590 421.5 655.5> 745 213<521.5 615> 1227 220<381 986 381 381>
VStem: 797 253<405.5 571.5>
LayerCount: 2
Fore
SplineSet
352 922 m 1
 416 943 482 958 561 958 c 0
 862 958 1050 771 1050 494 c 0
 1050 185 822 -8 489 -8 c 0
 297 -8 147 55 46 143 c 1
 27 158 l 1
 139 331 l 1
 162 318 l 1
 260 268 350 210 493 210 c 0
 687 210 797 319 797 492 c 0
 797 651 703 745 527 745 c 0
 424 745 354 711 298 666 c 1
 111 690 l 1
 174 1447 l 1
 986 1447 l 1
 986 1227 l 1
 381 1227 l 1
 352 922 l 1
EndSplineSet
EndChar

StartChar: florin
Encoding: 402 402 190
Width: 1048
VWidth: 0
Flags: HW
PickledData: "(dp1
S'com.fontlab.hintData'
p2
(dp3
S'hhints'
p4
((dp5
S'position'
p6
I-329
sS'width'
p7
I199
s(dp8
g6
I759
sg7
I193
s(dp9
g6
I1236
sg7
I205
stp10
ss."
HStem: -329 199<149 192.5 143 306.5> 759 193<704 880> 1236 205<822.5 872 724.5 886.5>
LayerCount: 2
Fore
SplineSet
486 1071 m 2
 514 1267 603 1441 846 1441 c 0
 898 1441 947 1432 990 1421 c 2
 1013 1415 l 1
 1000 1200 l 1
 961 1216 l 2
 931 1228 904 1236 869 1236 c 0
 776 1236 750 1194 733 1106 c 2
 704 952 l 1
 894 952 l 1
 880 759 l 1
 669 759 l 1
 544 127 l 2
 504 -73 448 -329 165 -329 c 0
 133 -329 99 -322 58 -311 c 2
 34 -305 l 1
 52 -102 l 1
 89 -116 l 2
 114 -125 134 -130 152 -130 c 0
 233 -130 262 -49 285 40 c 0
 345 268 385 520 433 761 c 1
 281 761 l 1
 295 952 l 1
 469 952 l 1
 486 1071 l 2
EndSplineSet
EndChar

StartChar: four
Encoding: 52 52 191
Width: 1270
VWidth: 0
Flags: HW
PickledData: "(dp1
S'com.fontlab.hintData'
p2
(dp3
S'vhints'
p4
((dp5
S'position'
p6
I759
sS'width'
p7
I266
stp8
sS'hhints'
p9
((dp10
g6
I0
sg7
I21
s(dp11
g6
I341
sg7
I216
s(dp12
g6
I1457
sg7
I20
stp13
ss."
HStem: 0 21<773 1025 773 773> 341 216<352 352 352 773 1025 1209> 1457 20<756 1025 1025 1025>
VStem: 759 266<557 1151 1151 1151>
LayerCount: 2
Fore
SplineSet
352 557 m 1
 759 556 l 1
 759 1151 l 1
 741 1124 l 1
 610 933 481 744 352 557 c 1
756 1477 m 1
 1025 1477 l 1
 1025 557 l 1
 1209 557 l 1
 1209 341 l 1
 1025 341 l 1
 1025 0 l 1
 773 0 l 1
 773 341 l 1
 63 341 l 1
 63 528 l 1
 756 1477 l 1
EndSplineSet
EndChar

StartChar: foursuperior
Encoding: 8308 8308 192
Width: 889
VWidth: 0
Flags: HW
PickledData: "(dp1
S'com.fontlab.hintData'
p2
(dp3
S'vhints'
p4
((dp5
S'position'
p6
I318
sS'width'
p7
I178
stp8
sS'hhints'
p9
((dp10
g6
I778
sg7
I167
stp11
ss."
HStem: 778 167<191 318 191 320 496 597>
VStem: 318 178<945 1150 1150 1150>
LayerCount: 2
Fore
SplineSet
318 1150 m 1
 191 945 l 1
 318 945 l 1
 318 1150 l 1
495 778 m 1
 494 615 l 1
 320 615 l 1
 320 778 l 1
 -28 778 l 1
 -28 904 l 1
 89 1078 205 1250 322 1422 c 1
 496 1422 l 1
 496 945 l 1
 597 945 l 1
 612 778 l 1
 495 778 l 1
EndSplineSet
EndChar

StartChar: fraction
Encoding: 8260 8260 193
Width: 1158
VWidth: 0
Flags: HW
PickledData: "(dp1
S'com.fontlab.hintData'
p2
(dp3
S'vhints'
p4
((dp5
S'position'
p6
I33
sS'width'
p7
I214
s(dp8
g6
I912
sg7
I212
stp9
sS'hhints'
p10
((dp11
g6
I0
sg7
I21
s(dp12
g6
I1426
sg7
I20
stp13
ss."
HStem: 0 21<33 33 33 247> 1426 20<912 1124 1124 1124>
VStem: 33 214<0 0> 912 212<1446 1446>
LayerCount: 2
Fore
SplineSet
33 0 m 1
 912 1446 l 1
 1124 1446 l 1
 247 0 l 1
 33 0 l 1
EndSplineSet
EndChar

StartChar: g
Encoding: 103 103 194
Width: 1206
VWidth: 0
Flags: HW
PickledData: "(dp1
S'com.fontlab.hintData'
p2
(dp3
S'vhints'
p4
((dp5
S'position'
p6
I46
sS'width'
p7
I278
s(dp8
g6
I844
sg7
I284
stp9
sS'hhints'
p10
((dp11
g6
I-449
sg7
I198
s(dp12
g6
I35
sg7
I217
s(dp13
g6
I885
sg7
I218
s(dp14
g6
I1045
sg7
I20
stp15
ssS'com.typemytype.robofont.layerData'
p16
(dp17
s."
HStem: -449 198<300 300> 35 217 885 218<533 576.536 399.5 666.008> 1045 20<850 1134 1134 1134>
VStem: 46 278 844 284
LayerCount: 2
Fore
SplineSet
601 885 m 0
 465 885 330 776 330 561 c 0
 330 357 467 252 607 252 c 0
 735 252 860 351 860 561 c 0
 860 779 731 885 601 885 c 0
857 199 m 1
 790 104 691 35 529 35 c 0
 286 35 52 237 52 563 c 0
 52 896 282 1103 517 1103 c 0
 636 1103 756 1052 850 938 c 1
 850 1065 l 1
 1134 1065 l 1
 1134 96 l 2
 1134 -289 916 -422 472 -441 c 1
 300 -449 l 1
 300 -251 l 1
 710 -232 857 -253 857 199 c 1
EndSplineSet
EndChar

StartChar: gcedilla
Encoding: 291 291 195
Width: 1295
VWidth: 0
Flags: HW
PickledData: "(dp1
S'com.fontlab.hintData'
p2
(dp3
S'vhints'
p4
((dp5
S'position'
p6
I51
sS'width'
p7
I254
s(dp8
g6
I889
sg7
I259
stp9
sS'hhints'
p10
((dp11
g6
I-421
sg7
I215
s(dp12
g6
I7
sg7
I218
s(dp13
g6
I898
sg7
I201
s(dp14
g6
I1051
sg7
I20
stp15
ss."
HStem: -421 215<339 512 339 517> 7 218<528.5 648> 898 201<528 624.5 390.5 674> 1051 20<889 1148 1148 1148>
VStem: 51 254<449.5 672.5 449.5 686> 889 259<952 1071>
LayerCount: 2
Fore
SplineSet
769 1723 m 1
 660 1200 l 1
 430 1200 l 1
 595 1723 l 1
 769 1723 l 1
601 898 m 0
 455 898 305 784 305 561 c 0
 305 338 455 225 602 225 c 0
 747 225 892 334 892 561 c 0
 892 787 747 898 601 898 c 0
893 129 m 1
 813 59 719 7 577 7 c 0
 220 7 51 286 51 563 c 0
 51 809 223 1099 558 1099 c 0
 691 1099 797 1048 872 970 c 2
 889 952 l 1
 889 1071 l 1
 1148 1071 l 1
 1148 138 l 2
 1148 -262 939 -421 512 -421 c 2
 339 -421 l 1
 339 -206 l 1
 517 -206 l 2
 527 -206 536 -206 545 -206 c 0
 778 -206 895 -126 895 85 c 0
 895 99 894 114 893 129 c 1
EndSplineSet
EndChar

StartChar: germandbls
Encoding: 223 223 196
Width: 1340
VWidth: 0
Flags: HW
PickledData: "(dp1
S'com.fontlab.hintData'
p2
(dp3
S'vhints'
p4
((dp5
S'position'
p6
I182
sS'width'
p7
I248
s(dp8
g6
I845
sg7
I271
s(dp9
g6
I1012
sg7
I267
stp10
sS'hhints'
p11
((dp12
g6
I-17
sg7
I212
s(dp13
g6
I1274
sg7
I204
stp14
ss."
HStem: -17 212<805.5 901.5 805.5 986.5> 1274 204<574.5 713.5>
VStem: 182 248<26 1003 26 1017 26 1162.5> 845 271<1075 1177> 1012 267<298 347.5 226.5 369.5>
LayerCount: 2
Fore
SplineSet
1116 1131 m 0
 1116 956 961 858 844 786 c 1
 1008 702 1194 623 1253 459 c 0
 1255 451 1279 353 1279 342 c 0
 1279 111 1107 -17 866 -17 c 0
 732 -17 605 20 524 83 c 1
 505 97 l 1
 515 120 l 1
 537 166 556 209 577 256 c 2
 591 288 l 1
 620 270 l 2
 681 233 762 195 849 195 c 0
 954 195 1012 250 1012 346 c 0
 1012 393 984 431 953 463 c 0
 880 538 761 587 660 649 c 1
 622 671 573 711 573 774 c 0
 573 830 612 868 645 893 c 0
 733 959 845 1019 845 1131 c 0
 845 1223 769 1274 658 1274 c 0
 491 1274 430 1169 430 1003 c 2
 430 26 l 1
 182 26 l 1
 182 1017 l 2
 182 1308 354 1478 659 1478 c 0
 896 1478 1116 1370 1116 1131 c 0
EndSplineSet
EndChar

StartChar: grave
Encoding: 96 96 197
Width: 471
VWidth: 0
Flags: HW
PickledData: "(dp1
S'com.fontlab.hintData'
p2
(dp3
S'vhints'
p4
((dp5
S'position'
p6
I-39
sS'width'
p7
I543
stp8
sS'hhints'
p9
((dp10
g6
I1176
sg7
I340
stp11
ss."
HStem: 1176 340<-39 504 -39 295>
VStem: -39 543<1176 1516>
LayerCount: 2
Fore
SplineSet
-39 1516 m 1
 275 1516 l 1
 504 1176 l 1
 295 1176 l 1
 184 1290 72 1403 -39 1516 c 1
EndSplineSet
EndChar

StartChar: greater
Encoding: 62 62 198
Width: 1085
VWidth: 0
Flags: HW
LayerCount: 2
Fore
SplineSet
744 562 m 1
 45 890 l 1
 45 1110 l 1
 1051 619 l 1
 1051 490 l 1
 40 39 l 1
 40 259 l 1
 744 562 l 1
EndSplineSet
EndChar

StartChar: greaterequal
Encoding: 8805 8805 199
Width: 1323
VWidth: 0
Flags: HW
PickledData: "(dp1
S'com.fontlab.hintData'
p2
(dp3
S'hhints'
p4
((dp5
S'position'
p6
I9
sS'width'
p7
I182
stp8
ss."
HStem: 9 182<149 178 245 1159 149 178>
LayerCount: 2
Fore
SplineSet
876 694 m 1
 182 1044 l 1
 182 1250 l 1
 1141 751 l 1
 1141 635 l 1
 245 191 l 1
 1159 191 l 1
 1159 9 l 1
 149 9 l 1
 149 191 l 1
 178 191 l 1
 178 367 l 1
 876 694 l 1
EndSplineSet
EndChar

StartChar: guillemotleft
Encoding: 171 171 200
Width: 933
VWidth: 0
Flags: HW
PickledData: "(dp1
S'com.fontlab.hintData'
p2
(dp3
S'vhints'
p4
((dp5
S'position'
p6
I311
sS'width'
p7
I226
s(dp8
g6
I670
sg7
I221
stp9
ss."
VStem: 311 226<171 171> 670 221<171 171>
LayerCount: 2
Fore
SplineSet
675 924 m 1
 899 924 l 1
 628 546 l 1
 891 171 l 1
 670 171 l 1
 390 546 l 1
 675 924 l 1
317 924 m 1
 546 924 l 1
 270 546 l 1
 537 171 l 1
 311 171 l 1
 33 546 l 1
 317 924 l 1
EndSplineSet
EndChar

StartChar: guillemotright
Encoding: 187 187 201
Width: 1152
VWidth: 0
Flags: HW
PickledData: "(dp1
S'com.fontlab.hintData'
p2
(dp3
S'vhints'
p4
((dp5
S'position'
p6
I146
sS'width'
p7
I225
s(dp8
g6
I527
sg7
I224
stp9
ss."
VStem: 146 225<171 171> 527 224<171 171>
LayerCount: 2
Fore
SplineSet
371 171 m 1
 146 171 l 1
 418 547 l 1
 153 924 l 1
 376 924 l 1
 656 547 l 1
 371 171 l 1
751 171 m 1
 527 171 l 1
 798 547 l 1
 535 924 l 1
 758 924 l 1
 1035 547 l 1
 751 171 l 1
EndSplineSet
EndChar

StartChar: guilsinglleft
Encoding: 8249 8249 202
Width: 572
VWidth: 0
Flags: HW
PickledData: "(dp1
S'com.fontlab.hintData'
p2
(dp3
S'vhints'
p4
((dp5
S'position'
p6
I309
sS'width'
p7
I222
stp8
ss."
VStem: 309 222<171 171>
LayerCount: 2
Fore
SplineSet
315 924 m 1
 538 924 l 1
 267 546 l 1
 531 171 l 1
 309 171 l 1
 33 546 l 1
 315 924 l 1
EndSplineSet
EndChar

StartChar: guilsinglright
Encoding: 8250 8250 203
Width: 573
VWidth: 0
Flags: HW
PickledData: "(dp1
S'com.fontlab.hintData'
p2
(dp3
S'vhints'
p4
((dp5
S'position'
p6
I33
sS'width'
p7
I221
stp8
ss."
VStem: 33 221<171 171>
LayerCount: 2
Fore
SplineSet
254 171 m 1
 33 171 l 1
 303 547 l 1
 41 924 l 1
 261 924 l 1
 540 547 l 1
 254 171 l 1
EndSplineSet
EndChar

StartChar: h
Encoding: 104 104 204
Width: 1122
VWidth: 0
Flags: HW
PickledData: "(dp1
S'com.fontlab.hintData'
p2
(dp3
S'vhints'
p4
((dp5
S'position'
p6
I60
sS'width'
p7
I285
s(dp8
g6
I780
sg7
I286
stp9
sS'hhints'
p10
((dp11
g6
I0
sg7
I21
s(dp12
g6
I908
sg7
I195
s(dp13
g6
I1458
sg7
I20
stp14
ss."
HStem: 0 21<60 345 60 60 780 780 780 1066> 908 195<615.5 674> 1458 20<60 345 345 345>
VStem: 60 285<0 624 0 899 899 1478> 780 286<0 620 620 647 0 700.423>
LayerCount: 2
Fore
SplineSet
604 908 m 0
 472 908 351 778 345 624 c 1
 345 0 l 1
 60 0 l 1
 60 1478 l 1
 345 1478 l 1
 345 899 l 1
 432 1036 534 1103 697 1103 c 0
 961 1103 1066 909 1066 647 c 2
 1066 0 l 1
 780 0 l 1
 780 620 l 2
 780 781 744 908 604 908 c 0
EndSplineSet
EndChar

StartChar: hbar
Encoding: 295 295 205
Width: 1216
VWidth: 0
Flags: HW
PickledData: "(dp1
S'com.fontlab.hintData'
p2
(dp3
S'vhints'
p4
((dp5
S'position'
p6
I171
sS'width'
p7
I243
s(dp8
g6
I884
sg7
I243
stp9
sS'hhints'
p10
((dp11
g6
I869
sg7
I183
s(dp12
g6
I1128
sg7
I194
stp13
ss."
HStem: 869 183<671 791.5> 1128 194<12 171 12 171 414 607>
VStem: 171 243<25 680 938 1128 1322 1492> 884 243<25 620>
LayerCount: 2
Fore
SplineSet
705 869 m 0
 563 869 445 774 414 680 c 1
 414 25 l 1
 171 25 l 1
 171 1128 l 1
 12 1128 l 1
 12 1322 l 1
 171 1322 l 1
 171 1492 l 1
 414 1492 l 1
 414 1322 l 1
 607 1322 l 1
 607 1128 l 1
 414 1128 l 1
 414 938 l 1
 430 951 l 2
 506 1014 604 1052 738 1052 c 0
 1017 1052 1127 868 1127 620 c 2
 1127 25 l 1
 884 25 l 1
 885 538 l 2
 885 732 878 869 705 869 c 0
EndSplineSet
EndChar

StartChar: hungarumlaut
Encoding: 733 733 206
Width: 1010
VWidth: 0
Flags: HW
PickledData: "(dp1
S'com.fontlab.hintData'
p2
(dp3
S'hhints'
p4
((dp5
S'position'
p6
I1120
sS'width'
p7
I370
stp8
ss."
HStem: 1120 370<152 924 152 924 402 924 406 600>
LayerCount: 2
Fore
SplineSet
591 1403 m 1
 333 1120 l 1
 152 1120 l 1
 406 1490 l 1
 924 1490 l 1
 600 1120 l 1
 402 1120 l 1
 606 1390 l 1
 591 1403 l 1
EndSplineSet
EndChar

StartChar: hyphen
Encoding: 45 45 207
Width: 698
VWidth: 0
Flags: HW
PickledData: "(dp1
S'com.fontlab.hintData'
p2
(dp3
S'vhints'
p4
((dp5
S'position'
p6
I70
sS'width'
p7
I558
stp8
sS'hhints'
p9
((dp10
g6
I433
sg7
I194
stp11
ss."
HStem: 433 194<70 628 70 628>
VStem: 70 558<433 627 433 627>
LayerCount: 2
Fore
SplineSet
628 433 m 1
 70 433 l 1
 70 627 l 1
 628 627 l 1
 628 433 l 1
EndSplineSet
EndChar

StartChar: i
Encoding: 105 105 208
Width: 405
VWidth: 0
Flags: HW
PickledData: "(dp1
S'com.fontlab.hintData'
p2
(dp3
S'vhints'
p4
((dp5
S'position'
p6
I60
sS'width'
p7
I285
stp8
sS'hhints'
p9
((dp10
g6
I0
sg7
I21
s(dp11
g6
I1045
sg7
I20
s(dp12
g6
I1246
sg7
I232
stp13
ss."
HStem: 0 21<60 345 60 60> 1045 20<60 345 345 345> 1246 232<60 346 60 346>
VStem: 60 285<0 1065 0 1065 0 1478>
LayerCount: 2
Fore
SplineSet
346 1478 m 1
 346 1246 l 1
 60 1246 l 1
 60 1478 l 1
 346 1478 l 1
345 1065 m 1
 345 0 l 1
 60 0 l 1
 60 1065 l 1
 345 1065 l 1
EndSplineSet
EndChar

StartChar: ij
Encoding: 307 307 213
Width: 1041
VWidth: 0
Flags: HW
PickledData: "(dp1
S'com.fontlab.hintData'
p2
(dp3
S'vhints'
p4
((dp5
S'position'
p6
I153
sS'width'
p7
I244
s(dp8
g6
I633
sg7
I245
stp9
sS'hhints'
p10
((dp11
g6
I15
sg7
I21
s(dp12
g6
I1207
sg7
I244
stp13
ss."
HStem: 15 21<153 397 153 153> 1207 244<633 878 633 878>
VStem: 153 244<15 1045 15 1045 1206 1450> 633 245<142 189 189 1036 1207 1451>
LayerCount: 2
Fore
SplineSet
878 1451 m 1
 878 1207 l 1
 633 1207 l 1
 633 1451 l 1
 878 1451 l 1
878 189 m 2
 878 57 878 -55 817 -140 c 0
 746 -238 620 -262 473 -280 c 1
 439 -285 l 1
 437 -70 l 1
 464 -66 l 1
 613 -49 633 -20 633 142 c 2
 633 1036 l 1
 878 1036 l 1
 878 189 l 2
397 1450 m 1
 397 1206 l 1
 153 1206 l 1
 153 1450 l 1
 397 1450 l 1
397 1045 m 1
 397 15 l 1
 153 15 l 1
 153 1045 l 1
 397 1045 l 1
EndSplineSet
EndChar

StartChar: infinity
Encoding: 8734 8734 215
Width: 1621
VWidth: 0
Flags: HW
PickledData: "(dp1
S'com.fontlab.hintData'
p2
(dp3
S'vhints'
p4
((dp5
S'position'
p6
I87
sS'width'
p7
I183
s(dp8
g6
I1334
sg7
I195
stp9
sS'hhints'
p10
((dp11
g6
I236
sg7
I180
s(dp12
g6
I780
sg7
I174
stp13
ss."
HStem: 236 180<395.5 512.5 395.5 538.5> 780 174<1105 1218>
VStem: 87 183<546 651.5 546 714> 1334 195<620 623 623 623>
LayerCount: 2
Fore
SplineSet
809 470 m 1
 728 359 627 236 450 236 c 0
 233 236 87 406 87 616 c 0
 87 812 254 955 445 955 c 2
 452 955 l 1
 475 953 l 2
 639 939 735 825 809 722 c 1
 889 833 989 954 1169 954 c 0
 1383 954 1529 811 1529 600 c 0
 1529 393 1376 236 1168 236 c 0
 995 236 893 355 809 470 c 1
712 595 m 1
 649 686 573 780 443 780 c 0
 330 780 270 705 270 598 c 0
 270 494 340 416 451 416 c 0
 574 416 651 513 712 595 c 1
1336 624 m 1
 1330 718 1270 780 1166 780 c 0
 1044 780 964 681 905 598 c 1
 973 509 1043 415 1169 415 c 0
 1287 415 1334 497 1334 620 c 2
 1334 623 l 1
 1336 624 l 1
EndSplineSet
EndChar

StartChar: integral
Encoding: 8747 8747 216
Width: 764
VWidth: 0
Flags: HW
PickledData: "(dp1
S'com.fontlab.hintData'
p2
(dp3
S'vhints'
p4
((dp5
S'position'
p6
I372
sS'width'
p7
I259
stp8
sS'hhints'
p9
((dp10
g6
I-399
sg7
I195
s(dp11
g6
I1447
sg7
I194
stp12
ss."
HStem: -399 195<246.5 301.5 231.5 408> 1447 194<704 760.5 598 774.5>
VStem: 372 259<-22 -3 -3 1246 1246 1265>
LayerCount: 2
Fore
SplineSet
112 -173 m 1
 155 -191 l 2
 173 -198 215 -204 248 -204 c 0
 355 -204 372 -148 372 -22 c 2
 372 1246 l 2
 372 1462 464 1641 732 1641 c 0
 789 1641 828 1629 867 1620 c 2
 889 1615 l 1
 893 1416 l 1
 851 1434 l 2
 833 1441 791 1447 758 1447 c 0
 650 1447 631 1392 631 1265 c 2
 631 -3 l 2
 631 -219 542 -399 274 -399 c 0
 219 -399 178 -388 137 -376 c 2
 115 -370 l 1
 112 -173 l 1
EndSplineSet
EndChar

StartChar: j
Encoding: 106 106 219
AltUni2: 000458.ffffffff.0
Width: 553
VWidth: 0
Flags: HW
PickledData: "(dp1
S'com.fontlab.hintData'
p2
(dp3
S'vhints'
p4
((dp5
S'position'
p6
I230
sS'width'
p7
I285
stp8
sS'hhints'
p9
((dp10
g6
I-318
sg7
I198
s(dp11
g6
I1045
sg7
I20
s(dp12
g6
I1246
sg7
I232
stp13
ss."
HStem: -318 198<28 57 57 64 28 57> 1045 20<230 515 515 515> 1246 232<230 515 230 515>
VStem: 230 285<92 165 165 1065 1246 1478>
LayerCount: 2
Fore
SplineSet
515 1478 m 1
 515 1246 l 1
 230 1246 l 1
 230 1478 l 1
 515 1478 l 1
515 1065 m 1
 515 165 l 2
 515 -156 435 -318 64 -318 c 2
 28 -318 l 1
 28 -120 l 1
 57 -120 l 2
 210 -120 230 -73 230 92 c 2
 230 1065 l 1
 515 1065 l 1
EndSplineSet
EndChar

StartChar: k
Encoding: 107 107 221
Width: 1165
VWidth: 0
Flags: HW
PickledData: "(dp1
S'com.fontlab.hintData'
p2
(dp3
S'vhints'
p4
((dp5
S'position'
p6
I61
sS'width'
p7
I286
s(dp8
g6
I743
sg7
I354
s(dp9
g6
I793
sg7
I346
stp10
sS'hhints'
p11
((dp12
g6
I0
sg7
I21
s(dp13
g6
I1045
sg7
I20
s(dp14
g6
I1458
sg7
I20
stp15
ss."
HStem: 0 21<61 346 61 61 793 1139 793 793> 1045 20<743 1097 1097 1097> 1458 20<61 347 347 347>
VStem: 61 286<678 1478 678 1478 678 1478> 743 354<1065 1065> 793 346<0 0>
LayerCount: 2
Fore
SplineSet
61 1478 m 1
 347 1478 l 1
 347 678 l 1
 743 1065 l 1
 1097 1065 l 1
 675 642 l 1
 1139 0 l 1
 793 0 l 1
 418 537 l 1
 346 482 l 1
 346 0 l 1
 61 0 l 1
 61 1478 l 1
EndSplineSet
EndChar

StartChar: kgreenlandic
Encoding: 312 312 223
Width: 1137
VWidth: 0
Flags: HW
PickledData: "(dp1
S'com.fontlab.hintData'
p2
(dp3
S'vhints'
p4
((dp5
S'position'
p6
I179
sS'width'
p7
I217
s(dp8
g6
I821
sg7
I304
stp9
sS'hhints'
p10
((dp11
g6
I15
sg7
I21
stp12
ss."
HStem: 15 21<179 396 179 179 868 1164 868 868>
VStem: 179 217<15 446> 821 304<1050 1050>
LayerCount: 2
Fore
SplineSet
868 15 m 1
 396 446 l 1
 396 15 l 1
 179 15 l 1
 178 1050 l 1
 395 1050 l 1
 395 625 l 1
 821 1050 l 1
 1125 1050 l 1
 571 533 l 1
 757 375 935 221 1108 65 c 1
 1164 15 l 1
 868 15 l 1
EndSplineSet
EndChar

StartChar: l
Encoding: 108 108 224
Width: 644
VWidth: 0
Flags: HW
PickledData: "(dp1
S'com.fontlab.hintData'
p2
(dp3
S'vhints'
p4
((dp5
S'position'
p6
I66
sS'width'
p7
I285
stp8
sS'hhints'
p9
((dp10
g6
I-6
sg7
I198
s(dp11
g6
I1458
sg7
I20
stp12
ssS'com.typemytype.robofont.layerData'
p13
(dp14
s."
HStem: -6 198<325 618 572 618 572 618> 1458 20<84 369 369 369>
VStem: 66 285
LayerCount: 2
Fore
SplineSet
369 1478 m 1
 369 428 l 2
 369 263 373 192 572 192 c 2
 618 192 l 1
 618 -6 l 1
 522 -6 l 2
 128 -6 84 166 84 459 c 2
 84 1478 l 1
 369 1478 l 1
EndSplineSet
EndChar

StartChar: less
Encoding: 60 60 226
Width: 1082
VWidth: 0
Flags: HW
PickledData: "(dp1
S'com.fontlab.hintData'
p2
(dp3
S'hhints'
p4
((dp5
S'position'
p6
I1076
sS'width'
p7
I20
stp8
ss."
HStem: 1076 20<1043 1043>
LayerCount: 2
Fore
SplineSet
341 557 m 1
 1040 247 l 1
 1040 29 l 1
 35 493 l 1
 35 619 l 1
 1043 1096 l 1
 1043 876 l 1
 341 557 l 1
EndSplineSet
EndChar

StartChar: lessequal
Encoding: 8804 8804 227
Width: 1322
VWidth: 0
Flags: HW
PickledData: "(dp1
S'com.fontlab.hintData'
p2
(dp3
S'hhints'
p4
((dp5
S'position'
p6
I10
sS'width'
p7
I182
stp8
ss."
HStem: 10 182<149 1065 149 1136 149 1163 149 1065>
LayerCount: 2
Fore
SplineSet
1136 192 m 1
 1163 193 l 1
 1163 10 l 1
 149 10 l 1
 149 192 l 1
 1065 192 l 1
 183 634 l 1
 183 751 l 1
 1136 1248 l 1
 1136 1043 l 1
 443 696 l 1
 1136 365 l 1
 1136 192 l 1
EndSplineSet
EndChar

StartChar: logicalnot
Encoding: 172 172 228
Width: 1419
VWidth: 0
Flags: HW
PickledData: "(dp1
S'com.fontlab.hintData'
p2
(dp3
S'vhints'
p4
((dp5
S'position'
p6
I1022
sS'width'
p7
I202
stp8
sS'hhints'
p9
((dp10
g6
I609
sg7
I199
stp11
ss."
HStem: 609 199<185 1022 185 1224>
VStem: 1022 202<238 609 609 609>
LayerCount: 2
Fore
SplineSet
1224 808 m 1
 1224 238 l 1
 1022 238 l 1
 1022 609 l 1
 185 609 l 1
 185 808 l 1
 1224 808 l 1
EndSplineSet
EndChar

StartChar: lozenge
Encoding: 9674 9674 229
Width: 1223
VWidth: 0
Flags: HW
PickledData: "(dp1
S'com.fontlab.hintData'
p2
(dp3
S'hhints'
p4
((dp5
S'position'
p6
I1459
sS'width'
p7
I20
stp8
ss."
HStem: 1459 20<548 680 680 680>
LayerCount: 2
Fore
SplineSet
548 1479 m 1
 680 1479 l 1
 1124 716 l 1
 671 -46 l 1
 540 -46 l 1
 98 715 l 1
 548 1479 l 1
616 1268 m 1
 515 1077 408 896 310 717 c 1
 408 531 509 347 606 164 c 1
 708 355 814 537 912 716 c 1
 814 901 712 1085 616 1268 c 1
EndSplineSet
EndChar

StartChar: lslash
Encoding: 322 322 230
Width: 558
VWidth: 0
Flags: HW
PickledData: "(dp1
S'com.fontlab.hintData'
p2
(dp3
S'vhints'
p4
((dp5
S'position'
p6
I169
sS'width'
p7
I217
stp8
sS'hhints'
p9
((dp10
g6
I1041
sg7
I20
stp11
ss."
HStem: 1041 20<549 549>
VStem: 169 217<25 656 656 656 960 1496>
LayerCount: 2
Fore
SplineSet
169 656 m 1
 10 561 l 1
 10 757 l 1
 169 852 l 1
 169 1496 l 1
 386 1496 l 1
 386 960 l 1
 549 1061 l 1
 549 867 l 1
 386 772 l 1
 386 25 l 1
 169 25 l 1
 169 656 l 1
EndSplineSet
EndChar

StartChar: m
Encoding: 109 109 231
Width: 1777
VWidth: 0
Flags: HW
PickledData: "(dp1
S'com.fontlab.hintData'
p2
(dp3
S'vhints'
p4
((dp5
S'position'
p6
I60
sS'width'
p7
I285
s(dp8
g6
I743
sg7
I285
s(dp9
g6
I1418
sg7
I285
stp10
sS'hhints'
p11
((dp12
g6
I0
sg7
I21
s(dp13
g6
I908
sg7
I195
s(dp14
g6
I1045
sg7
I20
stp15
ssS'com.typemytype.robofont.layerData'
p16
(dp17
s."
HStem: 0 21<71 356 71 71 754 754 754 1039 1429 1429 1429 1714> 908 195<607.695 670.5 1235 1344> 1045 20<71 329 329 329>
VStem: 60 285 743 285 1418 285
LayerCount: 2
Fore
SplineSet
600 908 m 0
 477 908 381 776 356 653 c 1
 356 0 l 1
 71 0 l 1
 71 1065 l 1
 329 1065 l 1
 356 894 l 1
 426 1019 531 1103 684 1103 c 0
 829 1103 916 1015 969 888 c 1
 1054 1017 1156 1103 1314 1103 c 0
 1602 1103 1714 907 1714 647 c 2
 1714 0 l 1
 1429 0 l 1
 1429 542 l 2
 1429 756 1427 908 1261 908 c 0
 1149 908 1062 786 1039 676 c 1
 1039 0 l 1
 754 0 l 1
 754 606 l 2
 754 768 741 908 600 908 c 0
EndSplineSet
EndChar

StartChar: macron
Encoding: 65541 -1 232
Width: 788
VWidth: 0
Flags: HW
PickledData: "(dp1
S'com.fontlab.hintData'
p2
(dp3
S'vhints'
p4
((dp5
S'position'
p6
I71
sS'width'
p7
I603
stp8
sS'hhints'
p9
((dp10
g6
I1258
sg7
I197
stp11
ss."
HStem: 1258 197<71 674 71 674>
VStem: 71 603<1258 1455 1258 1455>
LayerCount: 2
Fore
SplineSet
674 1455 m 1
 674 1258 l 1
 71 1258 l 1
 71 1455 l 1
 674 1455 l 1
EndSplineSet
EndChar

StartChar: minus
Encoding: 8722 8722 233
Width: 1422
VWidth: 0
Flags: HW
PickledData: "(dp1
S'com.fontlab.hintData'
p2
(dp3
S'hhints'
p4
((dp5
S'position'
p6
I446
sS'width'
p7
I197
stp8
ss."
HStem: 446 197<183 1227 183 1227>
LayerCount: 2
Fore
SplineSet
183 446 m 1
 183 643 l 1
 1227 643 l 1
 1227 446 l 1
 183 446 l 1
EndSplineSet
EndChar

StartChar: mu
Encoding: 956 956 234
Width: 1220
VWidth: 0
Flags: HW
PickledData: "(dp1
S'com.fontlab.hintData'
p2
(dp3
S'vhints'
p4
((dp5
S'position'
p6
I141
sS'width'
p7
I244
s(dp8
g6
I141
sg7
I217
s(dp9
g6
I834
sg7
I243
stp10
sS'hhints'
p11
((dp12
g6
I-18
sg7
I214
stp13
ss."
HStem: -18 214<556.5 679 539 749>
VStem: 141 244<347.5 412 412 1036> 141 217<-196 53 -196 1036> 834 243<411 1035>
LayerCount: 2
Fore
SplineSet
609 -18 m 0
 504 -18 424 12 358 53 c 1
 358 -196 l 1
 141 -196 l 1
 141 1036 l 1
 385 1036 l 1
 385 412 l 2
 385 283 469 196 609 196 c 0
 749 196 834 284 834 411 c 2
 834 1035 l 1
 1077 1035 l 1
 1077 407 l 2
 1077 148 889 -18 609 -18 c 0
EndSplineSet
EndChar

StartChar: multiply
Encoding: 215 215 235
Width: 1501
VWidth: 0
Flags: HW
LayerCount: 2
Fore
SplineSet
915 559 m 1
 1010 466 1106 374 1200 280 c 1
 1060 136 l 1
 760 412 l 1
 459 136 l 1
 321 279 l 1
 605 559 l 1
 321 836 l 1
 460 982 l 1
 760 705 l 1
 1059 982 l 1
 1200 835 l 1
 915 559 l 1
EndSplineSet
EndChar

StartChar: n
Encoding: 110 110 236
Width: 1140
VWidth: 0
Flags: HW
PickledData: "(dp1
S'com.fontlab.hintData'
p2
(dp3
S'vhints'
p4
((dp5
S'position'
p6
I60
sS'width'
p7
I285
s(dp8
g6
I781
sg7
I285
stp9
sS'hhints'
p10
((dp11
g6
I0
sg7
I21
s(dp12
g6
I909
sg7
I194
s(dp13
g6
I1045
sg7
I20
stp14
ssS'com.typemytype.robofont.layerData'
p15
(dp16
s."
HStem: 0 21<71 356 71 71 792 792 792 1077> 909 194 1045 20<71 328 328 328>
VStem: 60 285 781 285
LayerCount: 2
Fore
SplineSet
792 620 m 2
 792 774 757 909 599 909 c 0
 460 909 356 767 356 608 c 2
 356 0 l 1
 71 0 l 1
 71 1065 l 1
 328 1065 l 1
 356 893 l 1
 429 1037 546 1103 708 1103 c 0
 972 1103 1077 909 1077 647 c 2
 1077 0 l 1
 792 0 l 1
 792 620 l 2
EndSplineSet
EndChar

StartChar: nine
Encoding: 57 57 238
Width: 1177
VWidth: 0
Flags: HW
PickledData: "(dp1
S'com.fontlab.hintData'
p2
(dp3
S'vhints'
p4
((dp5
S'position'
p6
I58
sS'width'
p7
I254
s(dp8
g6
I876
sg7
I243
stp9
sS'hhints'
p10
((dp11
g6
I0
sg7
I21
s(dp12
g6
I540
sg7
I208
s(dp13
g6
I1264
sg7
I214
stp14
ss."
HStem: 0 21<177 491 177 177> 540 208<503.5 556.5> 1264 214<511 685>
VStem: 58 254<926 1084.5 926 1146.5> 876 243<930.5 1090>
LayerCount: 2
Fore
SplineSet
312 1007 m 0
 312 845 414 748 593 748 c 0
 773 748 876 850 876 1011 c 0
 876 1169 772 1264 598 1264 c 0
 424 1264 312 1162 312 1007 c 0
491 0 m 1
 177 0 l 1
 669 557 l 1
 640 551 l 2
 607 544 574 540 539 540 c 0
 247 540 58 724 58 999 c 0
 58 1294 281 1478 591 1478 c 0
 911 1478 1119 1298 1119 998 c 0
 1119 814 1053 690 972 577 c 0
 830 378 663 203 491 0 c 1
EndSplineSet
EndChar

StartChar: notequal
Encoding: 8800 8800 240
Width: 1321
VWidth: 0
Flags: HW
PickledData: "(dp1
S'com.fontlab.hintData'
p2
(dp3
S'hhints'
p4
((dp5
S'position'
p6
I299
sS'width'
p7
I180
s(dp8
g6
I703
sg7
I181
stp9
ss."
HStem: 299 180<692 1159 692 1173 608 1159> 703 181<160 613 160 160>
LayerCount: 2
Fore
SplineSet
694 884 m 1
 826 1134 l 1
 994 1111 l 2
 996 1111 999 1110 1001 1110 c 1
 885 883 l 1
 1158 883 l 1
 1173 702 l 1
 802 702 l 1
 692 479 l 1
 1159 479 l 1
 1173 299 l 1
 608 299 l 1
 475 43 l 1
 301 68 l 1
 420 300 l 1
 160 300 l 1
 149 480 l 1
 505 480 l 1
 613 703 l 1
 160 703 l 1
 147 884 l 1
 694 884 l 1
EndSplineSet
EndChar

StartChar: numbersign
Encoding: 35 35 242
Width: 1067
VWidth: 0
Flags: HW
PickledData: "(dp1
S'com.fontlab.hintData'
p2
(dp3
S'vhints'
p4
((dp5
S'position'
p6
I136
sS'width'
p7
I197
s(dp8
g6
I413
sg7
I195
s(dp9
g6
I487
sg7
I195
s(dp10
g6
I763
sg7
I198
stp11
sS'hhints'
p12
((dp13
g6
I380
sg7
I186
s(dp14
g6
I895
sg7
I185
s(dp15
g6
I1435
sg7
I20
stp16
ss."
HStem: 380 186<49 215 34 248 441 562 49 411 789 928> 895 185<132 306 117 336> 1435 20<413 608 608 608 763 961 961 961>
VStem: 136 197<-23 -23> 413 195<1455 1455> 487 195<-23 -23> 763 198<1455 1455>
LayerCount: 2
Fore
SplineSet
597 566 m 1
 658 897 l 1
 502 897 l 1
 441 566 l 1
 597 566 l 1
888 1080 m 1
 1033 1080 l 1
 1012 897 l 1
 853 897 l 1
 789 566 l 1
 947 566 l 1
 928 380 l 1
 760 380 l 1
 682 -23 l 1
 487 -23 l 1
 562 380 l 1
 411 380 l 1
 333 -23 l 1
 136 -23 l 1
 215 380 l 1
 34 380 l 1
 49 566 l 1
 248 566 l 1
 306 895 l 1
 117 895 l 1
 132 1080 l 1
 336 1080 l 1
 413 1455 l 1
 608 1455 l 1
 537 1080 l 1
 692 1080 l 1
 763 1455 l 1
 961 1455 l 1
 888 1080 l 1
EndSplineSet
EndChar

StartChar: o
Encoding: 111 111 243
Width: 1138
VWidth: 0
Flags: HW
PickledData: "(dp1
S'com.fontlab.hintData'
p2
(dp3
S'vhints'
p4
((dp5
S'position'
p6
I48
sS'width'
p7
I281
s(dp8
g6
I801
sg7
I281
stp9
sS'hhints'
p10
((dp11
g6
I-20
sg7
I220
s(dp12
g6
I883
sg7
I220
stp13
ssS'com.typemytype.robofont.layerData'
p14
(dp15
s."
HStem: -20 220<505.5 632.5 505.5 742> 883 220<506.5 631.5>
VStem: 48 281 801 281
LayerCount: 2
Fore
SplineSet
333 538 m 0
 333 306 442 200 569 200 c 0
 696 200 805 306 805 538 c 0
 805 775 694 883 569 883 c 0
 444 883 333 775 333 538 c 0
52 538 m 0
 52 816 223 1103 569 1103 c 0
 915 1103 1086 816 1086 538 c 0
 1086 259 915 -20 569 -20 c 0
 223 -20 52 259 52 538 c 0
EndSplineSet
EndChar

StartChar: oe
Encoding: 339 339 247
Width: 1956
VWidth: 0
Flags: HW
PickledData: "(dp1
S'com.fontlab.hintData'
p2
(dp3
S'vhints'
p4
((dp5
S'position'
p6
I90
sS'width'
p7
I253
stp8
sS'hhints'
p9
((dp10
g6
I-18
sg7
I201
s(dp11
g6
I472
sg7
I183
s(dp12
g6
I898
sg7
I201
stp13
ss."
HStem: -18 201<558.5 701.5 558.5 723 1346.5 1518.5> 472 183<1143 1656 1151 1656 1151 1903> 898 201<558.5 701.5 1342.5 1495.5>
VStem: 90 253<417 656 417 675>
LayerCount: 2
Fore
SplineSet
1656 655 m 1
 1635 799 1570 898 1421 898 c 0
 1264 898 1181 783 1151 655 c 1
 1656 655 l 1
630 183 m 0
 773 183 916 299 916 535 c 0
 916 777 773 898 630 898 c 0
 487 898 343 777 343 535 c 0
 343 299 487 183 630 183 c 0
1143 472 m 1
 1173 301 1251 183 1442 183 c 0
 1595 183 1693 240 1767 308 c 1
 1873 136 l 1
 1765 41 1634 -18 1421 -18 c 0
 1242 -18 1116 61 1030 175 c 1
 942 60 816 -18 630 -18 c 0
 270 -18 90 257 90 535 c 0
 90 815 270 1099 630 1099 c 0
 816 1099 941 1016 1028 902 c 1
 1118 1021 1244 1099 1418 1099 c 0
 1739 1099 1904 858 1904 562 c 0
 1904 534 1903 506 1903 477 c 2
 1903 472 l 1
 1143 472 l 1
EndSplineSet
EndChar

StartChar: ogonek
Encoding: 731 731 248
Width: 565
VWidth: 0
Flags: HW
PickledData: "(dp1
S'com.fontlab.hintData'
p2
(dp3
S'vhints'
p4
((dp5
S'position'
p6
I40
sS'width'
p7
I195
stp8
sS'hhints'
p9
((dp10
g6
I-383
sg7
I150
s(dp11
g6
I-344
sg7
I143
s(dp12
g6
I-12
sg7
I20
stp13
ss."
HStem: -383 150<294 310> -344 143<477 477> -12 20<299 492 492 492>
VStem: 40 195<-195.5 -149.5>
LayerCount: 2
Fore
SplineSet
477 -201 m 1
 477 -344 l 1
 412 -370 343 -383 277 -383 c 0
 158 -383 40 -330 40 -209 c 0
 40 -90 198 -29 299 8 c 1
 492 8 l 1
 385 -35 235 -91 235 -174 c 0
 235 -217 271 -233 317 -233 c 0
 371 -233 477 -201 477 -201 c 1
EndSplineSet
EndChar

StartChar: one
Encoding: 49 49 250
Width: 950
VWidth: 0
Flags: HW
PickledData: "(dp1
S'com.fontlab.hintData'
p2
(dp3
S'hhints'
p4
((dp5
S'position'
p6
I-5
sS'width'
p7
I21
s(dp8
g6
I1080
sg7
I21
s(dp9
g6
I1309
sg7
I138
stp10
ss."
HStem: -5 21<299 299 299 577> 1080 21<44 44> 1309 138<337 577 337 577>
LayerCount: 2
Fore
SplineSet
44 1080 m 1
 44 1292 l 1
 79 1310 244 1394 337 1447 c 1
 577 1447 l 1
 577 1309 l 1
 500 1276 408 1236 299 1189 c 1
 299 1202 l 1
 211 1155 87 1098 44 1080 c 1
58 1086 m 1
 299 1189 l 1
 58 1086 l 1
299 -5 m 1
 299 1189 l 1
 577 1309 l 1
 577 -5 l 1
 299 -5 l 1
577 1309 m 1
 825 1416 919 1456 919 1456 c 2
 919 1456 759 1387 577 1309 c 1
EndSplineSet
EndChar

StartChar: onehalf
Encoding: 189 189 251
Width: 1900
VWidth: 0
Flags: HW
PickledData: "(dp1
S'com.fontlab.hintData'
p2
(dp3
S'vhints'
p4
((dp5
S'position'
p6
I349
sS'width'
p7
I216
s(dp8
g6
I365
sg7
I176
s(dp9
g6
I1486
sg7
I180
stp10
sS'hhints'
p11
((dp12
g6
I-25
sg7
I178
s(dp13
g6
I604
sg7
I167
s(dp14
g6
I644
sg7
I177
s(dp15
g6
I1421
sg7
I20
stp16
ss."
HStem: -25 178<1359 1666 1359 1666> 604 167<541 669 541 669> 644 177<1321 1410> 1421 20<541 541>
VStem: 349 216<0 0> 365 176<783 783> 1486 180
LayerCount: 2
Fore
SplineSet
407 1420 m 1
 541 1441 l 1
 541 771 l 1
 669 771 l 1
 669 604 l 1
 250 604 l 1
 250 783 l 1
 365 783 l 1
 364 1216 l 1
 315 1194 269 1177 220 1158 c 1
 221 1340 l 1
 271 1354 407 1420 407 1420 c 1
349 0 m 1
 1371 1446 l 1
 1592 1446 l 1
 1590 1443 1589 1441 1588 1439 c 2
 565 0 l 1
 349 0 l 1
1051 615 m 1
 1105 733 1208 821 1380 821 c 0
 1545 821 1668 732 1668 581 c 0
 1668 373 1482 250 1359 153 c 1
 1666 153 l 1
 1666 -25 l 1
 1048 -25 l 1
 1048 119 l 1
 1173 218 1486 400 1486 568 c 0
 1486 617 1447 644 1373 644 c 0
 1269 644 1228 570 1192 491 c 1
 1051 615 l 1
EndSplineSet
EndChar

StartChar: onequarter
Encoding: 188 188 252
Width: 2016
VWidth: 0
Flags: HW
PickledData: "(dp1
S'com.fontlab.hintData'
p2
(dp3
S'vhints'
p4
((dp5
S'position'
p6
I345
sS'width'
p7
I216
s(dp8
g6
I404
sg7
I220
s(dp9
g6
I1442
sg7
I178
stp10
sS'hhints'
p11
((dp12
g6
I0
sg7
I21
s(dp13
g6
I200
sg7
I167
s(dp14
g6
I584
sg7
I207
s(dp15
g6
I1426
sg7
I20
stp16
ss."
HStem: 0 21<404 404 404 624> 200 167<1290 1442 1290 1444 1620 1721> 584 207<561 689 561 689> 1426 20<1431 1643 1643 1643>
VStem: 345 216<803 1019 1019 1046.5> 404 220<0 0> 1442 178<367 569 569 569>
LayerCount: 2
Fore
SplineSet
404 0 m 1
 1431 1446 l 1
 1643 1446 l 1
 1641 1443 1640 1441 1639 1439 c 2
 624 -0 l 1
 404 0 l 1
1619 200 m 1
 1618 37 l 1
 1444 37 l 1
 1444 200 l 1
 1049 200 l 1
 1049 326 l 1
 1446 844 l 1
 1620 844 l 1
 1620 367 l 1
 1721 367 l 1
 1737 200 l 1
 1619 200 l 1
387 1439 m 1
 393 1440 395 1442 398 1445 c 1
 399 1444 401 1443 402 1442 c 1
 561 1465 l 1
 561 791 l 1
 689 791 l 1
 689 584 l 1
 230 584 l 1
 230 803 l 1
 345 803 l 1
 345 1019 l 2
 345 1074 344 1118 344 1167 c 2
 344 1184 l 1
 316 1172 293 1164 268 1155 c 2
 200 1128 l 1
 201 1356 l 1
 236 1366 l 1
 295 1384 341 1408 387 1436 c 1
 387 1439 l 1
1442 569 m 1
 1290 367 l 1
 1442 367 l 1
 1442 569 l 1
EndSplineSet
EndChar

StartChar: onesuperior
Encoding: 185 185 253
Width: 695
VWidth: 0
Flags: HW
PickledData: "(dp1
S'com.fontlab.hintData'
p2
(dp3
S'vhints'
p4
((dp5
S'position'
p6
I246
sS'width'
p7
I217
stp8
sS'hhints'
p9
((dp10
g6
I553
sg7
I170
s(dp11
g6
I1218
sg7
I168
s(dp12
g6
I1445
sg7
I20
stp13
ss."
HStem: 553 170<112 246 463 599 112 246> 1218 168<102 103> 1445 20
VStem: 246 217<723 1244 1244 1244>
LayerCount: 2
Fore
SplineSet
300 1445 m 1
 463 1465 l 1
 463 723 l 1
 599 723 l 1
 599 553 l 1
 112 553 l 1
 112 723 l 1
 246 723 l 1
 246 1244 l 1
 102 1218 l 1
 103 1386 l 1
 167 1403 233 1422 300 1445 c 1
EndSplineSet
EndChar

StartChar: ordfeminine
Encoding: 170 170 254
Width: 732
VWidth: 0
Flags: HW
PickledData: "(dp1
S'com.fontlab.hintData'
p2
(dp3
S'vhints'
p4
((dp5
S'position'
p6
I56
sS'width'
p7
I189
s(dp8
g6
I478
sg7
I185
stp9
sS'hhints'
p10
((dp11
g6
I717
sg7
I163
s(dp12
g6
I1319
sg7
I168
stp13
ss."
HStem: 717 163<305.5 318 318 322> 1319 168<336.5 419>
VStem: 56 189<929.5 998 929.5 1071.5> 478 185
LayerCount: 2
Fore
SplineSet
478 1055 m 1
 360 1039 245 1040 245 956 c 0
 245 903 275 880 336 880 c 0
 432 880 467 953 478 1055 c 1
93 1326 m 1
 151 1433 248 1487 382 1487 c 0
 544 1487 664 1394 663 1215 c 2
 661 894 l 2
 661 852 663 828 668 768 c 1
 670 736 l 1
 485 736 l 1
 483 773 l 1
 441 740 386 717 322 717 c 2
 318 717 l 2
 180 717 56 800 56 954 c 0
 56 1189 281 1193 478 1217 c 1
 472 1298 460 1319 378 1319 c 0
 295 1319 252 1290 219 1238 c 1
 197 1205 l 1
 93 1326 l 1
EndSplineSet
EndChar

StartChar: ordmasculine
Encoding: 186 186 255
Width: 842
VWidth: 0
Flags: HW
PickledData: "(dp1
S'com.fontlab.hintData'
p2
(dp3
S'vhints'
p4
((dp5
S'position'
p6
I46
sS'width'
p7
I193
s(dp8
g6
I609
sg7
I191
stp9
sS'hhints'
p10
((dp11
g6
I717
sg7
I168
s(dp12
g6
I1319
sg7
I167
stp13
ss."
HStem: 717 168<359.5 490.5 359.5 542> 1319 167<359 488>
VStem: 46 193<1037 1103 1103 1113 1037 1217.5> 609 191<1035.5 1165>
LayerCount: 2
Fore
SplineSet
239 1113 m 1
 239 1103 l 2
 239 971 293 885 426 885 c 0
 555 885 609 972 609 1099 c 0
 609 1231 554 1319 422 1319 c 0
 296 1319 242 1232 239 1113 c 1
800 1101 m 0
 800 876 658 717 426 717 c 0
 186 717 46 873 46 1104 c 0
 46 1331 192 1486 425 1486 c 0
 661 1486 800 1329 800 1101 c 0
EndSplineSet
EndChar

StartChar: oslash
Encoding: 248 248 256
Width: 1131
VWidth: 0
Flags: HW
PickledData: "(dp1
S'com.fontlab.hintData'
p2
(dp3
S'vhints'
p4
((dp5
S'position'
p6
I48
sS'width'
p7
I281
s(dp8
g6
I801
sg7
I281
stp9
sS'hhints'
p10
((dp11
g6
I-20
sg7
I220
s(dp12
g6
I883
sg7
I220
stp13
ss."
HStem: -20 220 883 220
VStem: 48 281 801 281
LayerCount: 2
Fore
SplineSet
987 1220 m 2
 352 -207 l 1
 209 -144 l 1
 838 1290 l 1
 989 1225 l 1
 987 1220 l 2
EndSplineSet
Refer: 243 111 N 1 0 0 1 0 0 2
EndChar

StartChar: p
Encoding: 112 112 258
Width: 1204
VWidth: 0
Flags: HW
PickledData: "(dp1
S'com.fontlab.hintData'
p2
(dp3
S'vhints'
p4
((dp5
S'position'
p6
I61
sS'width'
p7
I285
s(dp8
g6
I860
sg7
I282
stp9
sS'hhints'
p10
((dp11
g6
I-395
sg7
I21
s(dp12
g6
I-20
sg7
I198
s(dp13
g6
I905
sg7
I198
s(dp14
g6
I1045
sg7
I20
stp15
ssS'com.typemytype.robofont.layerData'
p16
(dp17
s."
HStem: -395 21<71 356 71 71> -20 198<608 685 559.5 835> 905 198<606 685.5> 1045 20<71 351 351 351>
VStem: 61 285 860 282
LayerCount: 2
Fore
SplineSet
623 905 m 0
 495 905 371 785 371 545 c 0
 371 301 496 178 623 178 c 0
 747 178 870 301 870 545 c 0
 870 786 748 905 623 905 c 0
351 1065 m 1
 357 921 l 1
 436 1023 532 1103 680 1103 c 0
 999 1103 1152 816 1152 532 c 0
 1152 279 990 -20 680 -20 c 0
 536 -20 437 54 356 158 c 1
 356 -395 l 1
 71 -395 l 1
 71 1065 l 1
 351 1065 l 1
EndSplineSet
EndChar

StartChar: paragraph
Encoding: 182 182 259
Width: 1238
VWidth: 0
Flags: HW
PickledData: "(dp1
S'com.fontlab.hintData'
p2
(dp3
S'vhints'
p4
((dp5
S'position'
p6
I97
sS'width'
p7
I544
s(dp8
g6
I425
sg7
I216
s(dp9
g6
I783
sg7
I183
stp10
sS'hhints'
p11
((dp12
g6
I1277
sg7
I184
stp13
ss."
HStem: 1277 184<649 783 641 1048 966 1048 966 966>
VStem: 97 544<1023 1260> 425 216<-147 760 760 760> 783 183<-148 1277 -148 1277>
LayerCount: 2
Fore
SplineSet
425 760 m 1
 222 781 97 925 97 1121 c 0
 97 1399 360 1461 649 1461 c 2
 1048 1461 l 1
 1048 1277 l 1
 966 1277 l 1
 966 -148 l 1
 783 -148 l 1
 783 1277 l 1
 641 1277 l 1
 641 -148 l 1
 425 -147 l 1
 425 760 l 1
EndSplineSet
EndChar

StartChar: parenleft
Encoding: 40 40 260
Width: 582
VWidth: 0
Flags: HW
PickledData: "(dp1
S'com.fontlab.hintData'
p2
(dp3
S'vhints'
p4
((dp5
S'position'
p6
I42
sS'width'
p7
I239
stp8
ss."
VStem: 42 239<630 631 631 801.5 468 815>
LayerCount: 2
Fore
SplineSet
318 -221 m 1
 178 1 42 276 42 630 c 2
 42 631 l 2
 42 999 174 1268 315 1500 c 1
 554 1500 l 1
 522 1465 l 1
 383 1236 281 969 281 634 c 0
 281 302 393 26 523 -186 c 1
 555 -221 l 1
 318 -221 l 1
EndSplineSet
EndChar

StartChar: parenright
Encoding: 41 41 261
Width: 581
VWidth: 0
Flags: HW
PickledData: "(dp1
S'com.fontlab.hintData'
p2
(dp3
S'vhints'
p4
((dp5
S'position'
p6
I301
sS'width'
p7
I238
stp8
ss."
VStem: 301 238<468 800.5>
LayerCount: 2
Fore
SplineSet
539 631 m 0
 539 276 402 0 263 -221 c 1
 26 -221 l 1
 61 -183 l 1
 193 33 301 303 301 633 c 0
 301 968 196 1240 60 1465 c 1
 28 1500 l 1
 267 1500 l 1
 409 1266 539 999 539 631 c 0
EndSplineSet
EndChar

StartChar: partialdiff
Encoding: 8706 8706 262
Width: 1148
VWidth: 0
Flags: HW
PickledData: "(dp1
S'com.fontlab.hintData'
p2
(dp3
S'vhints'
p4
((dp5
S'position'
p6
I55
sS'width'
p7
I20
s(dp8
g6
I295
sg7
I533
s(dp9
g6
I1066
sg7
I20
stp10
sS'hhints'
p11
((dp12
g6
I-44
sg7
I20
s(dp13
g6
I1038
sg7
I20
s(dp14
g6
I1329
sg7
I20
s(dp15
g6
I1543
sg7
I20
stp16
ss."
HStem: -44 20<352.5 538> 1038 20<576 578 576 576> 1329 20<504.5 649> 1543 20<514.5 769.5>
VStem: 55 20<308 594.5 308 596> 295 533 1066 20<699.5 1032.5>
LayerCount: 2
Fore
SplineSet
828 663 m 1
 812 529 772 402 712 313 c 0
 662 239 595 171 492 171 c 0
 354 171 295 285 295 437 c 0
 295 645 405 844 599 844 c 0
 723 844 794 761 828 663 c 1
276 1229 m 1
 349 1282 438 1349 558 1349 c 0
 764 1349 838 1168 844 946 c 1
 845 922 l 1
 827 939 l 2
 768 996 685 1038 578 1038 c 2
 576 1038 l 1
 575 1037 l 1
 258 1032 75 750 75 439 c 0
 75 177 216 -24 489 -24 c 0
 588 -24 666 5 732 45 c 1
 743 28 l 1
 734 22 l 1
 735 23 734 23 734 22 c 1
 668 -18 587 -44 489 -44 c 0
 202 -44 55 169 55 439 c 0
 55 753 241 1049 567 1057 c 1
 568 1058 l 1
 578 1058 l 2
 681 1058 763 1020 823 969 c 1
 812 1177 740 1329 558 1329 c 0
 451 1329 361 1268 295 1218 c 1
 258 1191 l 1
 240 1447 l 1
 264 1462 l 1
 340 1518 449 1563 580 1563 c 0
 977 1563 1086 1213 1086 854 c 0
 1086 542 1001 275 836 103 c 1
 822 117 l 1
 982 283 1066 545 1066 854 c 0
 1066 1211 959 1543 580 1543 c 0
 443 1543 347 1489 260 1437 c 1
 276 1229 l 1
EndSplineSet
EndChar

StartChar: percent
Encoding: 37 37 263
Width: 1734
VWidth: 0
Flags: HW
PickledData: "(dp1
S'com.fontlab.hintData'
p2
(dp3
S'vhints'
p4
((dp5
S'position'
p6
I37
sS'width'
p7
I197
s(dp8
g6
I273
sg7
I230
s(dp9
g6
I561
sg7
I209
s(dp10
g6
I966
sg7
I211
s(dp11
g6
I1502
sg7
I196
stp12
sS'hhints'
p13
((dp14
g6
I-17
sg7
I173
s(dp15
g6
I597
sg7
I173
s(dp16
g6
I660
sg7
I173
s(dp17
g6
I1279
sg7
I173
stp18
ss."
HStem: -17 173<1283.5 1398 1283.5 1450.5> 597 173<1261.5 1389> 660 173<338.5 453 338.5 509> 1279 173<340 454>
VStem: 37 197<990.5 1119.5 990.5 1165> 273 230<-41 -41> 561 209<993.5 1056 1056 1058 946 1121.5> 966 211<373 374 374 374> 1502 196<315.5 442.5>
LayerCount: 2
Fore
SplineSet
1341 156 m 0
 1455 156 1502 252 1502 379 c 0
 1502 506 1452 597 1326 597 c 0
 1197 597 1177 501 1177 373 c 0
 1177 246 1226 156 1341 156 c 0
966 374 m 1
 962 397 960 420 960 442 c 0
 960 639 1106 770 1327 770 c 0
 1575 770 1698 599 1698 378 c 0
 1698 160 1563 -17 1338 -17 c 0
 1103 -17 966 155 966 373 c 2
 966 374 l 1
393 660 m 0
 164 660 37 833 37 1054 c 0
 37 1276 171 1452 398 1452 c 0
 637 1452 770 1280 770 1058 c 2
 770 1056 l 2
 770 836 625 660 393 660 c 0
1196 1450 m 1
 1428 1450 l 1
 1426 1446 1426 1445 1424 1442 c 2
 503 -41 l 1
 273 -41 l 1
 1193 1446 l 2
 1195 1448 1196 1450 1196 1450 c 1
396 833 m 0
 510 833 561 930 561 1057 c 0
 561 1186 511 1279 397 1279 c 0
 283 1279 234 1184 234 1055 c 0
 234 926 281 833 396 833 c 0
1196 1450 m 1
 1196 1450 l 1
EndSplineSet
EndChar

StartChar: period
Encoding: 46 46 264
Width: 426
VWidth: 0
Flags: HW
PickledData: "(dp1
S'com.fontlab.hintData'
p2
(dp3
S'vhints'
p4
((dp5
S'position'
p6
I70
sS'width'
p7
I286
stp8
sS'hhints'
p9
((dp10
g6
I-51
sg7
I289
stp11
ss."
HStem: -51 289<70 356 70 356>
VStem: 70 286<-51 238>
LayerCount: 2
Fore
SplineSet
356 -51 m 1
 70 -51 l 1
 70 238 l 1
 356 238 l 1
 356 -51 l 1
EndSplineSet
EndChar

StartChar: periodcentered
Encoding: 65542 -1 265
Width: 406
VWidth: 0
Flags: HW
PickledData: "(dp1
S'com.fontlab.hintData'
p2
(dp3
S'vhints'
p4
((dp5
S'position'
p6
I70
sS'width'
p7
I266
stp8
sS'hhints'
p9
((dp10
g6
I463
sg7
I270
stp11
ss."
HStem: 463 270<70 336 70 336>
VStem: 70 266<463 733 463 733>
LayerCount: 2
Fore
SplineSet
70 733 m 1
 336 733 l 1
 336 463 l 1
 70 463 l 1
 70 733 l 1
EndSplineSet
EndChar

StartChar: periodcentered.001
Encoding: 183 183 266
Width: 471
VWidth: 0
Flags: HW
PickledData: "(dp1
S'com.fontlab.hintData'
p2
(dp3
S'vhints'
p4
((dp5
S'position'
p6
I67
sS'width'
p7
I266
stp8
sS'hhints'
p9
((dp10
g6
I463
sg7
I270
stp11
ss."
HStem: 463 270<67 333 67 333>
VStem: 67 266<463 733 463 733>
LayerCount: 2
Fore
SplineSet
67 733 m 1
 333 733 l 1
 333 463 l 1
 67 463 l 1
 67 733 l 1
EndSplineSet
EndChar

StartChar: perthousand
Encoding: 8240 8240 267
Width: 2305
VWidth: 0
Flags: HW
PickledData: "(dp1
S'com.fontlab.hintData'
p2
(dp3
S'vhints'
p4
((dp5
S'position'
p6
I65
sS'width'
p7
I200
s(dp8
g6
I207
sg7
I218
s(dp9
g6
I548
sg7
I202
s(dp10
g6
I803
sg7
I204
s(dp11
g6
I1129
sg7
I217
s(dp12
g6
I1294
sg7
I201
s(dp13
g6
I1540
sg7
I203
s(dp14
g6
I2029
sg7
I196
stp15
sS'hhints'
p16
((dp17
g6
I-27
sg7
I173
s(dp18
g6
I542
sg7
I174
s(dp19
g6
I715
sg7
I173
s(dp20
g6
I1285
sg7
I173
stp21
ss."
HStem: -27 173<1102 1200.5 1102 1256.5 1837.5 1936.5> 542 174<1102 1201.5 1837.5 1936.5> 715 173<358 455.5 358 510.5> 1285 173<359.5 454>
VStem: 65 200<1029.5 1089 1089 1114 1029.5 1194.5> 207 218<-25 -25> 548 202<1029 1084 1084 1085 977.5 1145> 803 204<286 347 286 347> 1129 217<1452 1452> 1294 201<342 403.5> 1540 203<285.5 402.5 285.5 453> 2029 196<287.5 343 343 344 236 403.5>
LayerCount: 2
Fore
SplineSet
265 1114 m 1
 265 1089 l 2
 265 970 308 888 408 888 c 0
 503 888 548 972 548 1086 c 0
 548 1204 504 1285 404 1285 c 0
 315 1285 271 1214 265 1114 c 1
1743 345 m 0
 1743 226 1787 146 1888 146 c 0
 1985 146 2029 230 2029 345 c 0
 2029 462 1986 542 1887 542 c 0
 1788 542 1743 460 1743 345 c 0
1007 346 m 2
 1007 345 l 2
 1007 227 1052 146 1152 146 c 0
 1249 146 1294 229 1294 344 c 0
 1294 463 1252 542 1151 542 c 0
 1053 542 1007 460 1007 346 c 2
1346 1452 m 1
 425 -25 l 1
 207 -25 l 1
 1129 1452 l 1
 1346 1452 l 1
1909 716 m 0
 2118 716 2231 595 2231 417 c 0
 2231 394 2229 369 2225 344 c 1
 2225 343 l 2
 2225 129 2096 -27 1884 -27 c 0
 1664 -27 1540 131 1540 346 c 0
 1540 560 1677 716 1909 716 c 0
750 1085 m 2
 750 1084 l 2
 750 871 618 715 403 715 c 0
 185 715 65 872 65 1088 c 0
 65 1301 191 1458 405 1458 c 0
 628 1458 750 1304 750 1085 c 2
1495 342 m 1
 1494 128 1364 -27 1149 -27 c 0
 927 -27 803 130 803 346 c 2
 803 347 l 1
 800 368 799 388 799 408 c 0
 799 596 931 716 1137 716 c 0
 1376 716 1495 560 1495 342 c 1
EndSplineSet
EndChar

StartChar: pi
Encoding: 960 960 268
Width: 1383
VWidth: 0
Flags: HW
PickledData: "(dp1
S'com.fontlab.hintData'
p2
(dp3
S'vhints'
p4
((dp5
S'position'
p6
I290
sS'width'
p7
I20
s(dp8
g6
I859
sg7
I20
s(dp9
g6
I1108
sg7
I20
s(dp10
g6
I1250
sg7
I20
s(dp11
g6
I1302
sg7
I20
stp12
sS'hhints'
p13
((dp14
g6
I-19
sg7
I20
s(dp15
g6
I10
sg7
I21
s(dp16
g6
I205
sg7
I20
s(dp17
g6
I858
sg7
I20
s(dp18
g6
I1068
sg7
I20
stp19
ss."
HStem: -19 20<155 386 155 398> 10 21<1270 1270> 205 20<1151 1181.5 1151 1182.5> 858 20<572 862 572 572> 1068 20<314.5 1322 402 1302>
VStem: 290 20<864 885 864 864> 859 20<219 303 219 303> 1108 20<318 855> 1250 20<10 12> 1302 20<875 1068 1068 1068>
LayerCount: 2
Fore
SplineSet
1297 164 m 2
 1296 160 1295 156 1295 151 c 2
 1295 140 l 2
 1295 106 1298 81 1305 59 c 2
 1323 -3 l 1
 1267 -13 l 2
 1223 -21 1178 -27 1128 -27 c 0
 905 -27 859 132 859 303 c 2
 862 858 l 1
 572 858 l 1
 553 627 527 435 483 230 c 0
 465 146 441 59 401 -9 c 1
 398 -19 l 1
 121 -19 l 1
 161 59 l 1
 263 239 281 574 290 863 c 1
 205 856 152 841 97 811 c 2
 35 778 l 1
 1 1000 l 1
 24 1016 l 1
 109 1085 227 1088 368 1088 c 2
 402 1088 l 1
 1322 1088 l 1
 1322 855 l 1
 1128 855 l 1
 1128 318 l 2
 1128 232 1131 225 1171 225 c 0
 1192 225 1211 229 1233 236 c 2
 1302 259 l 1
 1297 164 l 2
1270 10 m 1
 1250 12 l 1
 1267 167 l 1
 1277 166 l 1
 1280 230 l 1
 1239 217 l 2
 1215 210 1194 205 1171 205 c 0
 1117 205 1108 235 1108 318 c 2
 1108 875 l 1
 1302 875 l 1
 1302 1068 l 1
 402 1068 l 2
 227 1068 121 1061 23 991 c 1
 51 809 l 1
 87 829 l 2
 150 863 213 879 310 885 c 1
 310 864 l 1
 301 575 286 237 179 49 c 1
 155 1 l 1
 386 1 l 1
 422 66 445 151 463 234 c 0
 508 441 544 642 554 878 c 1
 882 878 l 1
 879 303 l 2
 879 135 921 -7 1128 -7 c 0
 1176 -7 1219 -1 1263 7 c 2
 1297 13 l 1
 1285 53 l 2
 1282 65 1280 77 1278 90 c 1
 1270 10 l 1
EndSplineSet
EndChar

StartChar: plus
Encoding: 43 43 269
Width: 1200
VWidth: 0
Flags: HW
PickledData: "(dp1
S'com.fontlab.hintData'
p2
(dp3
S'vhints'
p4
((dp5
S'position'
p6
I489
sS'width'
p7
I219
stp8
sS'hhints'
p9
((dp10
g6
I460
sg7
I199
stp11
ss."
HStem: 460 199<68 68 68 489 710 1133>
VStem: 489 219<62 460 62 460>
LayerCount: 2
Fore
SplineSet
68 460 m 1
 67 659 l 1
 492 659 l 1
 492 1057 l 1
 710 1057 l 1
 710 659 l 1
 1133 659 l 1
 1133 460 l 1
 708 460 l 1
 708 62 l 1
 489 62 l 1
 489 460 l 1
 68 460 l 1
EndSplineSet
EndChar

StartChar: plusminus
Encoding: 177 177 270
Width: 1444
VWidth: 0
Flags: HW
PickledData: "(dp1
S'com.fontlab.hintData'
p2
(dp3
S'vhints'
p4
((dp5
S'position'
p6
I607
sS'width'
p7
I221
stp8
sS'hhints'
p9
((dp10
g6
I0
sg7
I198
s(dp11
g6
I570
sg7
I198
stp12
ss."
HStem: 0 198<187 607 828 1252 187 607> 570 198<189 189 189 605 173 607 828 828 828 1248>
VStem: 607 221<198 570 198 570>
LayerCount: 2
Fore
SplineSet
189 570 m 1
 173 768 l 1
 605 768 l 1
 605 1117 l 1
 823 1117 l 1
 823 768 l 1
 1248 768 l 1
 1248 570 l 1
 828 570 l 1
 828 198 l 1
 1252 198 l 1
 1252 0 l 1
 187 0 l 1
 187 198 l 1
 607 198 l 1
 607 570 l 1
 189 570 l 1
EndSplineSet
EndChar

StartChar: product
Encoding: 8719 8719 271
Width: 1523
VWidth: 0
Flags: HW
PickledData: "(dp1
S'com.fontlab.hintData'
p2
(dp3
S'vhints'
p4
((dp5
S'position'
p6
I236
sS'width'
p7
I232
s(dp8
g6
I1068
sg7
I234
stp9
sS'hhints'
p10
((dp11
g6
I-329
sg7
I21
s(dp12
g6
I1228
sg7
I205
stp13
ss."
HStem: -329 21<236 468 236 236 1068 1302 1068 1068> 1228 205<119 236 119 119 468 1068 468 468 1302 1408 1302 1302>
VStem: 236 232<-329 1228 -329 1228> 1068 234<-329 1228 -329 1228>
LayerCount: 2
Fore
SplineSet
98 1433 m 1
 1429 1433 l 1
 1408 1232 l 2
 1407 1229 1408 1228 1408 1228 c 1
 1302 1228 l 1
 1302 -329 l 1
 1068 -329 l 1
 1068 1228 l 1
 468 1228 l 1
 468 -329 l 1
 236 -329 l 1
 236 1228 l 1
 119 1228 l 1
 98 1433 l 1
EndSplineSet
EndChar

StartChar: q
Encoding: 113 113 272
Width: 1204
VWidth: 0
Flags: HW
PickledData: "(dp1
S'com.fontlab.hintData'
p2
(dp3
S'vhints'
p4
((dp5
S'position'
p6
I49
sS'width'
p7
I282
s(dp8
g6
I845
sg7
I285
stp9
sS'hhints'
p10
((dp11
g6
I-395
sg7
I21
s(dp12
g6
I-20
sg7
I198
s(dp13
g6
I905
sg7
I198
s(dp14
g6
I1045
sg7
I20
stp15
ssS'com.typemytype.robofont.layerData'
p16
(dp17
s."
HStem: -395 21<848 1133 848 848> -20 198<519 596> 905 198<518.5 598 364.5 645> 1045 20<853 1133 1133 1133>
VStem: 49 282 845 285
LayerCount: 2
Fore
SplineSet
581 905 m 0
 456 905 334 786 334 545 c 0
 334 301 457 178 581 178 c 0
 708 178 833 301 833 545 c 0
 833 785 709 905 581 905 c 0
853 1065 m 1
 1133 1065 l 1
 1133 -395 l 1
 848 -395 l 1
 848 158 l 1
 767 54 668 -20 524 -20 c 0
 214 -20 52 279 52 532 c 0
 52 816 205 1103 524 1103 c 0
 672 1103 768 1023 847 921 c 1
 853 1065 l 1
EndSplineSet
EndChar

StartChar: question
Encoding: 63 63 273
Width: 887
VWidth: 0
Flags: HW
PickledData: "(dp1
S'com.fontlab.hintData'
p2
(dp3
S'vhints'
p4
((dp5
S'position'
p6
I245
sS'width'
p7
I242
s(dp8
g6
I277
sg7
I196
s(dp9
g6
I623
sg7
I225
stp10
sS'hhints'
p11
((dp12
g6
I32
sg7
I169
s(dp13
g6
I1285
sg7
I203
stp14
ss."
HStem: 32 169<277 473 277 473> 1285 203<319 459>
VStem: 245 242<382 713> 277 196<32 201 32 201> 623 225<1006.5 1169.5>
LayerCount: 2
Fore
SplineSet
623 1112 m 0
 623 1227 534 1285 384 1285 c 0
 246 1285 176 1235 94 1187 c 1
 29 1366 l 1
 128 1428 233 1488 405 1488 c 0
 657 1488 848 1364 848 1118 c 0
 848 895 677 792 560 681 c 1
 511 632 487 609 487 520 c 2
 487 382 l 1
 258 382 l 1
 253 447 245 513 245 585 c 0
 245 841 623 868 623 1112 c 0
473 201 m 1
 473 32 l 1
 277 32 l 1
 277 201 l 1
 473 201 l 1
EndSplineSet
EndChar

StartChar: quotedbl
Encoding: 34 34 275
Width: 647
VWidth: 0
Flags: HW
PickledData: "(dp1
S'com.fontlab.hintData'
p2
(dp3
S'vhints'
p4
((dp5
S'position'
p6
I61
sS'width'
p7
I218
s(dp8
g6
I99
sg7
I180
s(dp9
g6
I369
sg7
I212
s(dp10
g6
I402
sg7
I179
stp11
sS'hhints'
p12
((dp13
g6
I937
sg7
I516
stp14
ss."
HStem: 937 516<99 279 99 99 402 402 402 581>
VStem: 61 218<1453 1453> 99 180<937 937> 369 212<1453 1453> 402 179<937 937>
LayerCount: 2
Fore
SplineSet
279 937 m 1
 99 937 l 1
 61 1453 l 1
 279 1453 l 1
 279 937 l 1
581 937 m 1
 402 937 l 1
 369 1453 l 1
 581 1453 l 1
 581 937 l 1
EndSplineSet
EndChar

StartChar: quotedblbase
Encoding: 8222 8222 276
Width: 1044
VWidth: 0
Flags: HW
PickledData: "(dp1
S'com.fontlab.hintData'
p2
(dp3
S'hhints'
p4
((dp5
S'position'
p6
I-288
sS'width'
p7
I499
stp8
ss."
HStem: -288 499<277 349 164 524 518 524 641 713 518 518>
LayerCount: 2
Fore
SplineSet
713 -288 m 1
 518 -288 l 1
 641 211 l 1
 879 211 l 1
 713 -288 l 1
349 -288 m 1
 164 -288 l 1
 277 211 l 1
 524 211 l 1
 349 -288 l 1
EndSplineSet
EndChar

StartChar: quotedblleft
Encoding: 8220 8220 277
Width: 714
VWidth: 0
Flags: HW
PickledData: "(dp1
S'com.fontlab.hintData'
p2
(dp3
S'vhints'
p4
((dp5
S'position'
p6
I35
sS'width'
p7
I645
stp8
sS'hhints'
p9
((dp10
g6
I983
sg7
I500
stp11
ss."
HStem: 983 500<202 274 341 376 202 202 493 568 35 680 493 493>
VStem: 35 645<983 1483>
LayerCount: 2
Fore
SplineSet
680 983 m 1
 493 983 l 1
 341 1483 l 1
 568 1483 l 1
 680 983 l 1
376 983 m 1
 202 983 l 1
 35 1483 l 1
 274 1483 l 1
 376 983 l 1
EndSplineSet
EndChar

StartChar: quotedblright
Encoding: 8221 8221 278
Width: 1005
VWidth: 0
Flags: HW
PickledData: "(dp1
S'com.fontlab.hintData'
p2
(dp3
S'vhints'
p4
((dp5
S'position'
p6
I190
sS'width'
p7
I645
stp8
sS'hhints'
p9
((dp10
g6
I983
sg7
I500
stp11
ss."
HStem: 983 500<303 378 190 530 495 495 495 530 597 668>
VStem: 190 645<983 1483>
LayerCount: 2
Fore
SplineSet
378 983 m 1
 190 983 l 1
 303 1483 l 1
 530 1483 l 1
 378 983 l 1
668 983 m 1
 495 983 l 1
 597 1483 l 1
 835 1483 l 1
 668 983 l 1
EndSplineSet
EndChar

StartChar: quoteleft
Encoding: 8216 8216 279
Width: 420
VWidth: 0
Flags: HW
PickledData: "(dp1
S'com.fontlab.hintData'
p2
(dp3
S'vhints'
p4
((dp5
S'position'
p6
I35
sS'width'
p7
I351
stp8
sS'hhints'
p9
((dp10
g6
I983
sg7
I500
stp11
ss."
HStem: 983 500<201 272 35 386 201 201>
VStem: 35 351
LayerCount: 2
Fore
SplineSet
386 983 m 1
 201 983 l 1
 35 1483 l 1
 272 1483 l 1
 386 983 l 1
EndSplineSet
EndChar

StartChar: quoteright
Encoding: 8217 8217 280
Width: 421
VWidth: 0
Flags: HW
PickledData: "(dp1
S'com.fontlab.hintData'
p2
(dp3
S'vhints'
p4
((dp5
S'position'
p6
I36
sS'width'
p7
I351
stp8
sS'hhints'
p9
((dp10
g6
I983
sg7
I500
stp11
ss."
HStem: 983 500<149 220 36 387>
VStem: 36 351
LayerCount: 2
Fore
SplineSet
220 983 m 1
 36 983 l 1
 149 1483 l 1
 387 1483 l 1
 220 983 l 1
EndSplineSet
EndChar

StartChar: quotesinglbase
Encoding: 8218 8218 281
Width: 575
VWidth: 0
Flags: HW
PickledData: "(dp1
S'com.fontlab.hintData'
p2
(dp3
S'vhints'
p4
((dp5
S'position'
p6
I113
sS'width'
p7
I352
stp8
sS'hhints'
p9
((dp10
g6
I-288
sg7
I499
stp11
ss."
HStem: -288 499<226 298 113 465>
VStem: 113 352
LayerCount: 2
Fore
SplineSet
298 -288 m 1
 113 -288 l 1
 226 211 l 1
 465 211 l 1
 298 -288 l 1
EndSplineSet
EndChar

StartChar: quotesingle
Encoding: 39 39 282
Width: 345
VWidth: 0
Flags: HW
PickledData: "(dp1
S'com.fontlab.hintData'
p2
(dp3
S'vhints'
p4
((dp5
S'position'
p6
I61
sS'width'
p7
I217
s(dp8
g6
I98
sg7
I180
stp9
sS'hhints'
p10
((dp11
g6
I937
sg7
I516
stp12
ss."
HStem: 937 516<98 278 98 98>
VStem: 61 217<1453 1453> 98 180<937 937>
LayerCount: 2
Fore
SplineSet
278 937 m 1
 98 937 l 1
 61 1453 l 1
 278 1453 l 1
 278 937 l 1
EndSplineSet
EndChar

StartChar: r
Encoding: 114 114 283
Width: 721
VWidth: 0
Flags: HW
PickledData: "(dp1
S'com.fontlab.hintData'
p2
(dp3
S'vhints'
p4
((dp5
S'position'
p6
I62
sS'width'
p7
I285
stp8
sS'hhints'
p9
((dp10
g6
I0
sg7
I21
s(dp11
g6
I864
sg7
I222
s(dp12
g6
I1045
sg7
I20
stp13
ssS'com.typemytype.robofont.layerData'
p14
(dp15
s."
HStem: 0 21<71 356 71 71> 864 222<518.5 680 647 680 647 680> 1045 20<71 343 343 343>
VStem: 62 285
LayerCount: 2
Fore
SplineSet
647 1086 m 2
 680 1086 l 1
 680 864 l 1
 619 864 l 2
 418 864 356 759 356 602 c 2
 356 0 l 1
 71 0 l 1
 71 1065 l 1
 343 1065 l 1
 359 918 l 1
 427 1013 514 1086 647 1086 c 2
EndSplineSet
EndChar

StartChar: radical
Encoding: 8730 8730 284
Width: 1276
VWidth: 0
Flags: HW
PickledData: "(dp1
S'com.fontlab.hintData'
p2
(dp3
S'vhints'
p4
((dp5
S'position'
p6
I1008
sS'width'
p7
I189
stp8
ss."
VStem: 1008 189<1606 1606>
LayerCount: 2
Fore
SplineSet
657 200 m 1
 769 681 891 1137 1008 1606 c 1
 1197 1606 l 1
 744 -152 l 1
 580 -152 l 1
 274 662 l 1
 105 634 l 1
 76 804 l 1
 406 865 l 1
 625 238 l 1
 648 164 l 1
 657 200 l 1
EndSplineSet
EndChar

StartChar: registered
Encoding: 174 174 287
Width: 1758
VWidth: 0
Flags: HW
PickledData: "(dp1
S'com.fontlab.hintData'
p2
(dp3
S'vhints'
p4
((dp5
S'position'
p6
I106
sS'width'
p7
I192
s(dp8
g6
I552
sg7
I209
s(dp9
g6
I1060
sg7
I214
s(dp10
g6
I1458
sg7
I194
stp11
sS'hhints'
p12
((dp13
g6
I-23
sg7
I170
s(dp14
g6
I638
sg7
I178
s(dp15
g6
I1042
sg7
I177
s(dp16
g6
I1312
sg7
I171
stp17
ss."
HStem: -23 170<807.177 954 807.177 956.5> 638 178<761 842 842 845 761 761> 1042 177<760 833 760 760> 1312 171<807 989.5 807 1058.5>
VStem: 106 192<625.5 839 625.5 900.5> 552 209<228 638 251 638 251 638 251 1219> 1060 214<880.5 986> 1458 194<631.5 858.5 560.5 902>
LayerCount: 2
Fore
SplineSet
877 1483 m 0
 1102 1483 1286 1399 1408 1293 c 0
 1549 1170 1652 987 1652 730 c 0
 1652 391 1482 173 1253 60 c 0
 1152 10 1027 -23 886 -23 c 0
 652 -23 473 58 350 166 c 0
 209 290 106 473 106 731 c 0
 106 1070 276 1289 500 1400 c 0
 604 1452 737 1483 877 1483 c 0
514 251 m 1
 614 190 730 147 884 147 c 0
 1024 147 1143 185 1236 248 c 1
 1262 266 l 1
 1087 266 l 1
 966 482 l 2
 923 557 879 608 845 638 c 1
 761 638 l 1
 761 251 l 1
 552 251 l 1
 552 1219 l 1
 842 1219 l 2
 1051 1219 1274 1161 1274 936 c 0
 1274 780 1168 703 1039 667 c 1
 1148 555 1217 409 1292 279 c 1
 1398 389 1458 537 1458 726 c 0
 1458 1078 1240 1312 877 1312 c 0
 737 1312 619 1276 527 1219 c 1
 530 1219 l 1
 380 1120 298 947 298 731 c 0
 298 520 375 352 517 251 c 1
 514 251 l 1
760 816 m 1
 842 816 l 2
 976 816 1060 830 1060 931 c 0
 1060 1041 978 1042 833 1042 c 2
 760 1042 l 1
 760 816 l 1
517 251 m 1
 528 243 540 235 552 228 c 1
 552 251 l 1
 517 251 l 1
552 1219 m 1
 530 1219 l 1
 537 1224 544 1229 552 1233 c 1
 552 1219 l 1
EndSplineSet
EndChar

StartChar: ring
Encoding: 730 730 288
Width: 664
VWidth: 0
Flags: HW
PickledData: "(dp1
S'com.fontlab.hintData'
p2
(dp3
S'vhints'
p4
((dp5
S'position'
p6
I81
sS'width'
p7
I154
s(dp8
g6
I385
sg7
I155
stp9
sS'hhints'
p10
((dp11
g6
I1149
sg7
I146
s(dp12
g6
I1395
sg7
I145
stp13
ss."
HStem: 1149 146<284.5 332.5 284.5 374> 1395 145<287.5 333>
VStem: 81 154<1330.5 1358 1330.5 1402.5> 385 155<1332 1358.5>
LayerCount: 2
Fore
SplineSet
311 1540 m 0
 438 1540 540 1460 540 1345 c 0
 540 1231 436 1149 312 1149 c 0
 185 1149 81 1227 81 1344 c 0
 81 1461 185 1540 311 1540 c 0
310 1395 m 0
 265 1395 235 1371 235 1345 c 0
 235 1316 259 1295 310 1295 c 0
 355 1295 385 1319 385 1345 c 0
 385 1372 356 1395 310 1395 c 0
EndSplineSet
EndChar

StartChar: s
Encoding: 115 115 289
Width: 1027
VWidth: 0
Flags: HW
PickledData: "(dp1
S'com.fontlab.hintData'
p2
(dp3
S'vhints'
p4
((dp5
S'position'
p6
I72
sS'width'
p7
I253
s(dp8
g6
I674
sg7
I272
stp9
sS'hhints'
p10
((dp11
g6
I-20
sg7
I201
s(dp12
g6
I892
sg7
I211
stp13
ssS'com.typemytype.robofont.layerData'
p14
(dp15
s."
HStem: -20 201<474 576.5 474 688.5> 892 211<506 606>
VStem: 72 253 674 272
LayerCount: 2
Fore
SplineSet
917 1003 m 1
 847 816 l 1
 757 863 647 892 565 892 c 0
 447 892 344 872 344 809 c 0
 344 731 404 728 497 694 c 2
 660 635 l 1
 789 584 965 517 965 290 c 0
 965 108 807 -20 570 -20 c 0
 347 -20 187 35 71 126 c 1
 148 321 l 1
 255 243 416 181 532 181 c 0
 621 181 693 210 693 288 c 0
 693 350 631 372 539 404 c 2
 404 452 l 2
 250 507 91 571 91 788 c 0
 91 1005 287 1103 525 1103 c 0
 695 1103 814 1066 917 1003 c 1
EndSplineSet
EndChar

StartChar: scommaaccent
Encoding: 65543 -1 292
Width: 1016
VWidth: 0
Flags: HW
PickledData: "(dp1
S'com.fontlab.hintData'
p2
(dp3
S'vhints'
p4
((dp5
S'position'
p6
I108
sS'width'
p7
I220
s(dp8
g6
I704
sg7
I219
stp9
sS'hhints'
p10
((dp11
g6
I-48
sg7
I191
s(dp12
g6
I861
sg7
I194
stp13
ss."
HStem: -48 191<422.5 553.5 422.5 594> 861 194<454.5 563>
VStem: 108 220<705.5 787.5 705.5 859> 704 219<226 295.5>
LayerCount: 2
Fore
SplineSet
513 -625 m 1
 326 -625 l 1
 444 -102 l 1
 697 -102 l 1
 513 -625 l 1
328 753 m 0
 328 658 486 632 609 592 c 0
 749 547 923 481 923 278 c 0
 923 51 704 -48 484 -48 c 0
 319 -48 195 -11 108 82 c 1
 164 293 l 1
 200 249 l 1
 256 184 354 143 491 143 c 0
 616 143 704 181 704 271 c 0
 704 320 676 345 629 367 c 0
 455 451 108 456 108 755 c 0
 108 963 301 1055 497 1055 c 0
 638 1055 758 1037 845 973 c 1
 862 959 l 1
 805 777 l 1
 771 798 l 1
 710 839 620 861 506 861 c 0
 403 861 328 822 328 753 c 0
EndSplineSet
EndChar

StartChar: section
Encoding: 167 167 293
Width: 908
VWidth: 0
Flags: HW
PickledData: "(dp1
S'com.fontlab.hintData'
p2
(dp3
S'vhints'
p4
((dp5
S'position'
p6
I52
sS'width'
p7
I248
s(dp8
g6
I86
sg7
I261
s(dp9
g6
I573
sg7
I265
s(dp10
g6
I609
sg7
I250
stp11
sS'hhints'
p12
((dp13
g6
I-68
sg7
I234
s(dp14
g6
I1284
sg7
I236
stp15
ss."
HStem: -68 234<326 443.5 318.5 501.5> 1284 236<458.5 569.5 404 574>
VStem: 52 248<699.5 775 699.5 792.5> 86 261<1152 1230 1105 1320> 573 265<236 322.5 152.5 353> 609 250<693.5 769>
LayerCount: 2
Fore
SplineSet
52 734 m 0
 52 851 122 927 191 975 c 1
 130 1028 86 1099 86 1205 c 0
 86 1435 296 1520 512 1520 c 0
 627 1520 697 1492 783 1467 c 1
 786 1202 l 1
 709 1238 630 1284 518 1284 c 0
 399 1284 347 1256 347 1204 c 0
 347 1006 859 1061 859 737 c 0
 859 621 789 543 724 492 c 1
 788 444 838 375 838 270 c 0
 838 35 615 -68 388 -68 c 0
 264 -68 168 -36 78 0 c 1
 77 268 l 1
 162 216 256 166 381 166 c 0
 506 166 573 206 573 266 c 0
 573 440 52 417 52 734 c 0
495 582 m 1
 558 621 609 662 609 725 c 0
 609 813 498 836 400 879 c 1
 341 845 300 807 300 743 c 0
 300 656 397 619 495 582 c 1
EndSplineSet
EndChar

StartChar: semicolon
Encoding: 59 59 294
Width: 425
VWidth: 0
Flags: HW
PickledData: "(dp1
S'com.fontlab.hintData'
p2
(dp3
S'vhints'
p4
((dp5
S'position'
p6
I97
sS'width'
p7
I261
stp8
sS'hhints'
p9
((dp10
g6
I780
sg7
I264
stp11
ss."
HStem: 780 264<85 369 85 369>
VStem: 97 261<768 1056 768 1056>
LayerCount: 2
Fore
SplineSet
149 244 m 1
 390 244 l 1
 216 -286 l 1
 34 -286 l 1
 149 244 l 1
358 799 m 2
 358 768 l 1
 326 770 l 1
 257 776 189 780 117 780 c 2
 85 780 l 1
 87 812 l 1
 93 883 97 950 97 1024 c 2
 97 1056 l 1
 129 1054 l 1
 198 1048 265 1044 337 1044 c 2
 369 1044 l 1
 367 1012 l 1
 361 937 358 866 358 799 c 2
EndSplineSet
EndChar

StartChar: seven
Encoding: 55 55 295
Width: 1120
VWidth: 0
Flags: HW
PickledData: "(dp1
S'com.fontlab.hintData'
p2
(dp3
S'hhints'
p4
((dp5
S'position'
p6
I-5
sS'width'
p7
I21
s(dp8
g6
I1231
sg7
I216
stp9
ss."
HStem: -5 21<224 501 224 224> 1231 216<66 759 66 1057>
LayerCount: 2
Fore
SplineSet
66 1447 m 1
 1057 1447 l 1
 1057 1284 l 1
 501 -5 l 1
 224 -5 l 1
 759 1231 l 1
 66 1231 l 1
 66 1447 l 1
EndSplineSet
EndChar

StartChar: six
Encoding: 54 54 296
Width: 1178
VWidth: 0
Flags: HW
PickledData: "(dp1
S'com.fontlab.hintData'
p2
(dp3
S'vhints'
p4
((dp5
S'position'
p6
I58
sS'width'
p7
I244
s(dp8
g6
I864
sg7
I256
stp9
sS'hhints'
p10
((dp11
g6
I-8
sg7
I216
s(dp12
g6
I715
sg7
I208
s(dp13
g6
I1427
sg7
I20
stp14
ss."
HStem: -8 216<491.5 665.5 491.5 741> 715 208<620 673.5> 1427 20<687 1000 1000 1000>
VStem: 58 244<379.5 537 379.5 559> 864 256<384.5 541>
LayerCount: 2
Fore
SplineSet
578 208 m 0
 753 208 864 308 864 461 c 0
 864 621 763 715 584 715 c 0
 405 715 302 617 302 457 c 0
 302 302 405 208 578 208 c 0
687 1447 m 1
 1000 1447 l 1
 506 905 l 1
 537 912 l 2
 571 920 602 923 638 923 c 0
 930 923 1120 740 1120 468 c 0
 1120 176 896 -8 586 -8 c 0
 265 -8 58 172 58 468 c 0
 58 650 125 770 206 882 c 0
 348 1077 517 1246 687 1447 c 1
EndSplineSet
EndChar

StartChar: six.alt
Encoding: 65544 -1 297
Width: 1159
VWidth: 0
Flags: HW
PickledData: "(dp1
S'com.fontlab.hintData'
p2
(dp3
S'vhints'
p4
((dp5
S'position'
p6
I52
sS'width'
p7
I285
s(dp8
g6
I865
sg7
I266
stp9
sS'hhints'
p10
((dp11
g6
I-23
sg7
I225
s(dp12
g6
I716
sg7
I220
s(dp13
g6
I1257
sg7
I226
stp14
ss."
HStem: -23 225<522.5 681 522.5 761.5> 716 220<581 688.5> 1257 226<545 713>
VStem: 52 285<485 530.5 373 890> 865 266<381 463 312 538>
LayerCount: 2
Fore
SplineSet
1130 472 m 2
 1130 468 1131 465 1131 461 c 0
 1131 163 911 -23 612 -23 c 0
 208 -23 52 283 52 687 c 0
 52 1093 217 1483 646 1483 c 0
 810 1483 961 1446 1064 1373 c 2
 1084 1359 l 1
 1056 1292 1029 1224 1001 1157 c 0
 1001 1156 999 1153 999 1153 c 1
 968 1172 l 2
 893 1218 774 1257 652 1257 c 0
 438 1257 354 1069 327 849 c 2
 324 824 l 1
 343 840 l 2
 420 904 518 936 644 936 c 0
 924 936 1113 761 1129 494 c 1
 1130 472 l 2
865 456 m 0
 865 620 775 716 602 716 c 0
 426 716 337 615 337 446 c 0
 337 300 444 202 601 202 c 0
 761 202 865 306 865 456 c 0
EndSplineSet
EndChar

StartChar: slash
Encoding: 47 47 298
Width: 922
VWidth: 0
Flags: HW
PickledData: "(dp1
S'com.fontlab.hintData'
p2
(dp3
S'hhints'
p4
((dp5
S'position'
p6
I1441
sS'width'
p7
I20
stp8
ss."
HStem: 1441 20<666 889 889 889>
LayerCount: 2
Fore
SplineSet
889 1461 m 1
 250 -215 l 1
 31 -215 l 1
 666 1461 l 1
 889 1461 l 1
EndSplineSet
EndChar

StartChar: sterling
Encoding: 163 163 300
Width: 1115
VWidth: 0
Flags: HW
PickledData: "(dp1
S'com.fontlab.hintData'
p2
(dp3
S'vhints'
p4
((dp5
S'position'
p6
I224
sS'width'
p7
I249
stp8
sS'hhints'
p9
((dp10
g6
I0
sg7
I209
s(dp11
g6
I0
sg7
I177
s(dp12
g6
I631
sg7
I192
s(dp13
g6
I1270
sg7
I210
stp14
ss."
HStem: 0 209<405 1065 405 1065> 0 177<67 1065 67 77> 631 192<473 851 473 473> 1270 210<614 758>
VStem: 224 249<445 503 503 630 630 630>
LayerCount: 2
Fore
SplineSet
473 503 m 2
 473 385 453 288 405 209 c 1
 1065 209 l 1
 1065 0 l 1
 77 0 l 1
 45 167 l 1
 67 177 l 1
 179 225 224 286 224 445 c 2
 224 630 l 1
 38 630 l 1
 38 822 l 1
 224 822 l 1
 224 906 l 2
 224 1236 326 1480 697 1480 c 0
 874 1480 995 1403 1071 1295 c 1
 1083 1276 l 1
 957 1135 l 1
 888 1204 820 1270 696 1270 c 0
 532 1270 472 1160 472 988 c 2
 472 823 l 1
 851 823 l 1
 851 631 l 1
 473 631 l 1
 473 503 l 2
EndSplineSet
EndChar

StartChar: summation
Encoding: 8721 8721 301
Width: 1226
VWidth: 0
Flags: HW
PickledData: "(dp1
S'com.fontlab.hintData'
p2
(dp3
S'hhints'
p4
((dp5
S'position'
p6
I-329
sS'width'
p7
I208
s(dp8
g6
I1231
sg7
I202
stp9
ss."
HStem: -329 208<362 1192 362 1192> 1231 202<390 1149 390 390>
LayerCount: 2
Fore
SplineSet
362 -121 m 1
 1192 -121 l 1
 1192 -329 l 1
 50 -329 l 1
 50 -202 l 1
 640 557 l 1
 71 1301 l 1
 71 1433 l 1
 1149 1433 l 1
 1149 1231 l 1
 390 1231 l 1
 895 565 l 1
 362 -121 l 1
EndSplineSet
EndChar

StartChar: t
Encoding: 116 116 302
Width: 754
VWidth: 0
Flags: HW
PickledData: "(dp1
S'com.fontlab.hintData'
p2
(dp3
S'vhints'
p4
((dp5
S'position'
p6
I188
sS'width'
p7
I285
stp8
sS'hhints'
p9
((dp10
g6
I-6
sg7
I198
s(dp11
g6
I894
sg7
I171
s(dp12
g6
I1431
sg7
I20
stp13
ssS'com.typemytype.robofont.layerData'
p14
(dp15
s."
HStem: -6 198<437.5 713 673 713 673 713> 894 171<13 177 13 177 462 711> 1431 20<462 462>
VStem: 188 285
LayerCount: 2
Fore
SplineSet
462 894 m 1
 462 464 l 2
 462 274 465 192 673 192 c 2
 713 192 l 1
 713 -6 l 1
 653 -6 l 2
 222 -6 177 171 177 474 c 2
 177 894 l 1
 13 894 l 1
 13 1065 l 1
 177 1065 l 1
 177 1360 l 1
 462 1451 l 1
 462 1065 l 1
 711 1065 l 1
 711 894 l 1
 462 894 l 1
EndSplineSet
EndChar

StartChar: thorn
Encoding: 254 254 304
Width: 1298
VWidth: 0
Flags: HW
PickledData: "(dp1
S'com.fontlab.hintData'
p2
(dp3
S'vhints'
p4
((dp5
S'position'
p6
I167
sS'width'
p7
I244
s(dp8
g6
I967
sg7
I250
stp9
sS'hhints'
p10
((dp11
g6
I-422
sg7
I21
s(dp12
g6
I-17
sg7
I214
s(dp13
g6
I851
sg7
I204
stp14
ss."
HStem: -422 21<167 411 167 167> -17 214<675 797.5 599 905.5> 851 204<658 797>
VStem: 167 244<-422 103 940 1202 1202 1245.5> 967 250<431.5 616.5>
LayerCount: 2
Fore
SplineSet
702 197 m 0
 893 197 967 339 967 524 c 0
 967 709 892 851 702 851 c 0
 495 851 410 719 410 524 c 0
 410 328 496 197 702 197 c 0
160 1464 m 1
 160 1494 l 1
 411 1494 l 1
 411 940 l 1
 427 954 l 1
 501 1016 595 1055 721 1055 c 0
 1060 1055 1217 808 1217 508 c 0
 1217 217 1070 -17 741 -17 c 0
 609 -17 503 25 428 89 c 1
 411 103 l 1
 411 -422 l 1
 167 -422 l 1
 167 1202 l 2
 167 1289 161 1371 160 1464 c 1
EndSplineSet
EndChar

StartChar: three
Encoding: 51 51 305
Width: 1071
VWidth: 0
Flags: HW
PickledData: "(dp1
S'com.fontlab.hintData'
p2
(dp3
S'vhints'
p4
((dp5
S'position'
p6
I717
sS'width'
p7
I276
s(dp8
g6
I770
sg7
I266
stp9
sS'hhints'
p10
((dp11
g6
I-8
sg7
I225
s(dp12
g6
I638
sg7
I225
s(dp13
g6
I1253
sg7
I224
stp14
ss."
HStem: -8 225<404.5 565.5 404.5 627> 638 225<277 308 277 308> 1253 224<414.5 561.5>
VStem: 717 276<1017.5 1140> 770 266<348.5 506.704 278 517.5>
LayerCount: 2
Fore
SplineSet
791 760 m 1
 937 706 1036 595 1036 418 c 0
 1036 138 776 -8 478 -8 c 0
 300 -8 145 36 35 129 c 1
 120 339 l 1
 223 266 332 217 477 217 c 0
 654 217 770 279 770 418 c 0
 770 617 571 634 308 638 c 1
 277 638 l 1
 277 863 l 1
 308 863 l 2
 551 863 717 890 717 1074 c 0
 717 1206 643 1253 480 1253 c 0
 335 1253 224 1205 121 1132 c 1
 34 1346 l 1
 164 1433 314 1477 515 1477 c 0
 775 1477 993 1339 993 1096 c 0
 993 939 916 832 809 771 c 1
 791 760 l 1
EndSplineSet
EndChar

StartChar: threequarters
Encoding: 190 190 306
Width: 1933
VWidth: 0
Flags: HW
PickledData: "(dp1
S'com.fontlab.hintData'
p2
(dp3
S'vhints'
p4
((dp5
S'position'
p6
I544
sS'width'
p7
I186
s(dp8
g6
I567
sg7
I181
s(dp9
g6
I1390
sg7
I178
stp10
sS'hhints'
p11
((dp12
g6
I202
sg7
I167
s(dp13
g6
I585
sg7
I175
s(dp14
g6
I945
sg7
I179
s(dp15
g6
I1272
sg7
I179
stp16
ss."
HStem: 202 167<1239 1390 1239 1392 1568 1669> 585 175<405 473 405 518> 945 179<310 365 310 387> 1272 179<406 475.5>
VStem: 544 186<1205 1205 1205 1207 1205 1226.5> 567 181<824 889.5> 1390 178<369 571 571 571>
LayerCount: 2
Fore
SplineSet
1620 1426 m 0
 1628 1438 1637 1451 1645 1464 c 1
 1382 1464 l 1
 1382 1457 l 1
 355 -22 l 1
 617 -22 l 1
 1620 1425 l 1
730 1205 m 1
 727 1128 697 1074 653 1036 c 1
 710 992 748 936 748 848 c 0
 748 679 602 585 434 585 c 0
 323 585 238 630 179 692 c 1
 163 708 l 1
 252 856 l 1
 279 830 l 2
 329 782 379 760 431 760 c 0
 515 760 567 794 567 854 c 0
 567 925 504 946 393 946 c 0
 388 946 377 945 365 945 c 2
 310 945 l 1
 310 1124 l 1
 387 1124 l 2
 488 1124 544 1143 544 1202 c 0
 544 1251 511 1272 440 1272 c 0
 372 1272 322 1239 277 1200 c 1
 249 1178 l 1
 165 1324 l 1
 180 1340 l 1
 237 1399 331 1451 442 1451 c 0
 598 1451 730 1363 730 1207 c 2
 730 1205 l 1
1567 202 m 1
 1566 39 l 1
 1392 39 l 1
 1392 202 l 1
 998 202 l 1
 998 328 l 1
 1395 846 l 1
 1568 846 l 1
 1568 369 l 1
 1669 369 l 1
 1685 202 l 1
 1567 202 l 1
1390 571 m 1
 1239 369 l 1
 1390 369 l 1
 1390 571 l 1
EndSplineSet
EndChar

StartChar: threesuperior
Encoding: 179 179 307
Width: 791
VWidth: 0
Flags: HW
PickledData: "(dp1
S'com.fontlab.hintData'
p2
(dp3
S'vhints'
p4
((dp5
S'position'
p6
I505
sS'width'
p7
I209
stp8
sS'hhints'
p9
((dp10
g6
I531
sg7
I171
s(dp11
g6
I941
sg7
I151
s(dp12
g6
I1311
sg7
I168
stp13
ss."
HStem: 531 171 941 151<259 386 259 387 259 425.808> 1311 168<336.36 420.697>
VStem: 505 209
LayerCount: 2
Fore
SplineSet
388 1311 m 0
 285 1311 217 1265 151 1227 c 1
 67 1350 l 1
 139 1417 246 1479 391 1479 c 0
 552 1479 700 1408 700 1226 c 0
 700 1132 657 1063 575 1028 c 1
 669 974 714 908 714 802 c 0
 714 607 560 531 392 531 c 0
 256 531 156 574 88 620 c 1
 152 762 l 1
 216 736 281 702 379 702 c 0
 463 702 505 758 505 821 c 0
 505 881 465 941 387 941 c 2
 259 941 l 1
 259 1092 l 1
 386 1092 l 2
 457 1092 504 1123 504 1198 c 0
 504 1277 453 1311 388 1311 c 0
EndSplineSet
EndChar

StartChar: tilde
Encoding: 732 732 308
Width: 741
VWidth: 0
Flags: HW
PickledData: "(dp1
S'com.fontlab.hintData'
p2
(dp3
S'vhints'
p4
((dp5
S'position'
p6
I-15
sS'width'
p7
I176
stp8
sS'hhints'
p9
((dp10
g6
I1200
sg7
I185
s(dp11
g6
I1287
sg7
I174
stp12
ss."
HStem: 1200 185<499 521 478 612> 1287 174<195 228>
VStem: -15 176<1209 1209>
LayerCount: 2
Fore
SplineSet
504 1385 m 0
 538 1385 554 1421 562 1455 c 1
 741 1455 l 1
 737 1426 l 1
 731 1321 671 1200 553 1200 c 0
 445 1200 243 1287 213 1287 c 0
 177 1287 163 1253 161 1209 c 1
 -15 1209 l 1
 -14 1237 l 2
 -11 1345 54 1461 173 1461 c 0
 292 1461 452 1385 504 1385 c 0
EndSplineSet
EndChar

StartChar: trademark
Encoding: 8482 8482 309
Width: 1792
VWidth: 0
Flags: HW
PickledData: "(dp1
S'com.fontlab.hintData'
p2
(dp3
S'vhints'
p4
((dp5
S'position'
p6
I303
sS'width'
p7
I184
s(dp8
g6
I766
sg7
I182
s(dp9
g6
I1438
sg7
I176
stp10
sS'hhints'
p11
((dp12
g6
I686
sg7
I775
s(dp13
g6
I1300
sg7
I161
stp14
ss."
HStem: 686 775<303 487 303 303 766 948 61 766 61 1134 61 1241 1438 1438 1438 1614> 1300 161<62 62 62 303 487 487 487 719>
VStem: 303 184<686 1300 686 1300> 766 182<686 1163 686 1461> 1438 176<686 1171 1171 1171>
LayerCount: 2
Fore
SplineSet
62 1300 m 1
 61 1461 l 1
 719 1461 l 1
 719 1300 l 1
 487 1300 l 1
 487 686 l 1
 303 686 l 1
 303 1300 l 1
 62 1300 l 1
766 686 m 1
 766 1461 l 1
 1000 1461 l 1
 1195 956 l 1
 1398 1461 l 1
 1614 1461 l 1
 1614 686 l 1
 1438 686 l 1
 1438 1171 l 1
 1241 686 l 1
 1134 686 l 1
 948 1163 l 1
 948 686 l 1
 766 686 l 1
EndSplineSet
EndChar

StartChar: two
Encoding: 50 50 310
Width: 1057
VWidth: 0
Flags: HW
PickledData: "(dp1
S'com.fontlab.hintData'
p2
(dp3
S'vhints'
p4
((dp5
S'position'
p6
I739
sS'width'
p7
I267
stp8
sS'hhints'
p9
((dp10
g6
I-5
sg7
I212
s(dp11
g6
I1253
sg7
I226
stp12
ss."
HStem: -5 212<391 994 391 994> 1253 226<417.5 569.5>
VStem: 739 267<965.5 1104.5>
LayerCount: 2
Fore
SplineSet
487 1253 m 0
 348 1253 237 1200 138 1107 c 1
 51 1324 l 1
 168 1419 297 1479 493 1479 c 0
 788 1479 1006 1331 1006 1057 c 0
 1006 818 843 675 717 544 c 2
 391 207 l 1
 994 207 l 1
 994 -5 l 1
 54 -5 l 1
 54 216 l 1
 541 704 l 1
 633 798 739 899 739 1032 c 0
 739 1177 652 1253 487 1253 c 0
EndSplineSet
EndChar

StartChar: twosuperior
Encoding: 178 178 311
Width: 806
VWidth: 0
Flags: HW
PickledData: "(dp1
S'com.fontlab.hintData'
p2
(dp3
S'vhints'
p4
((dp5
S'position'
p6
I500
sS'width'
p7
I215
stp8
sS'hhints'
p9
((dp10
g6
I553
sg7
I163
s(dp11
g6
I1299
sg7
I180
stp12
ss."
HStem: 553 163<334 698 334 698> 1299 180
VStem: 500 215
LayerCount: 2
Fore
SplineSet
403 1479 m 0
 586 1479 715 1388 715 1217 c 0
 715 983 474 833 334 716 c 1
 698 716 l 1
 698 553 l 1
 102 553 l 1
 102 697 l 1
 419 1038 500 1117 500 1213 c 0
 500 1274 461 1299 407 1299 c 0
 331 1299 249 1250 192 1189 c 1
 86 1332 l 1
 88 1336 207 1479 403 1479 c 0
EndSplineSet
EndChar

StartChar: u
Encoding: 117 117 312
Width: 1120
VWidth: 0
Flags: HW
PickledData: "(dp1
S'com.fontlab.hintData'
p2
(dp3
S'vhints'
p4
((dp5
S'position'
p6
I59
sS'width'
p7
I284
s(dp8
g6
I759
sg7
I284
stp9
sS'hhints'
p10
((dp11
g6
I-20
sg7
I220
s(dp12
g6
I1045
sg7
I20
stp13
ssS'com.typemytype.robofont.layerData'
p14
(dp15
s."
HStem: -20 220<496 622 496 705.702> 1045 20<68 352 352 352 768 1052 1052 1052>
VStem: 59 284 759 284
LayerCount: 2
Fore
SplineSet
68 422 m 2
 68 1065 l 1
 352 1065 l 1
 352 411 l 2
 352 281 433 200 559 200 c 0
 685 200 768 280 768 411 c 2
 768 1065 l 1
 1052 1065 l 1
 1052 422 l 2
 1052 154 852 -20 559 -20 c 0
 268 -20 68 154 68 422 c 2
EndSplineSet
EndChar

StartChar: u.alt
Encoding: 65545 -1 313
Width: 1260
VWidth: 0
Flags: HW
PickledData: "(dp1
S'com.fontlab.hintData'
p2
(dp3
S'vhints'
p4
((dp5
S'position'
p6
I141
sS'width'
p7
I243
s(dp8
g6
I853
sg7
I244
s(dp9
g6
I871
sg7
I229
stp10
sS'hhints'
p11
((dp12
g6
I-8
sg7
I215
s(dp13
g6
I14
sg7
I21
stp14
ss."
HStem: -8 215<477 606.5> 14 21<871 1100 871 871>
VStem: 141 243<438.5 535 438.5 1045> 853 244<393 1046> 871 229<14 43>
LayerCount: 2
Fore
SplineSet
865 114 m 1
 780 40 682 -8 531 -8 c 0
 251 -8 141 181 141 436 c 2
 141 1045 l 1
 385 1045 l 1
 384 535 l 2
 384 342 391 207 563 207 c 0
 706 207 823 300 853 393 c 1
 853 1046 l 1
 1097 1046 l 1
 1097 281 l 2
 1097 202 1100 120 1100 43 c 2
 1100 14 l 1
 871 14 l 1
 865 114 l 1
EndSplineSet
EndChar

StartChar: underscore
Encoding: 95 95 318
Width: 1145
VWidth: 0
Flags: HW
PickledData: "(dp1
S'com.fontlab.hintData'
p2
(dp3
S'hhints'
p4
((dp5
S'position'
p6
I-323
sS'width'
p7
I188
stp8
ss."
HStem: -323 188<70 1075 70 1075>
LayerCount: 2
Fore
SplineSet
70 -135 m 1
 1075 -135 l 1
 1075 -323 l 1
 70 -323 l 1
 70 -135 l 1
EndSplineSet
EndChar

StartChar: uni00AF
Encoding: 175 175 320
Width: 862
VWidth: 0
Flags: HW
PickledData: "(dp1
S'com.fontlab.hintData'
p2
(dp3
S'hhints'
p4
((dp5
S'position'
p6
I1330
sS'width'
p7
I190
stp8
ss."
HStem: 1330 190<-7 872 -7 872>
LayerCount: 2
Fore
SplineSet
-7 1520 m 1
 872 1520 l 1
 872 1330 l 1
 -7 1330 l 1
 -7 1520 l 1
EndSplineSet
EndChar

StartChar: uni030F
Encoding: 783 783 349
Width: 994
VWidth: 0
Flags: HW
PickledData: "(dp1
S'com.fontlab.hintData'
p2
(dp3
S'hhints'
p4
((dp5
S'position'
p6
I1176
sS'width'
p7
I340
stp8
ss."
HStem: 1176 340<372 479 -34 291>
LayerCount: 2
Fore
SplineSet
372 1516 m 1
 655 1516 l 1
 885 1176 l 1
 675 1176 l 1
 372 1516 l 1
-34 1516 m 1
 272 1516 l 1
 479 1176 l 1
 291 1176 l 1
 -34 1516 l 1
EndSplineSet
EndChar

StartChar: uni0311
Encoding: 785 785 350
Width: 688
VWidth: 0
Flags: HW
PickledData: "(dp1
S'com.fontlab.hintData'
p2
(dp3
S'vhints'
p4
((dp5
S'position'
p6
I38
sS'width'
p7
I184
s(dp8
g6
I454
sg7
I184
stp9
sS'hhints'
p10
((dp11
g6
I1287
sg7
I168
stp12
ss."
HStem: 1287 168<299 377>
VStem: 38 184<1206 1233 1206 1235 1206 1306.5> 454 184<1206 1233 1233 1235 1206 1248.5>
LayerCount: 2
Fore
SplineSet
454 1206 m 1
 454 1233 l 2
 454 1264 416 1287 338 1287 c 0
 260 1287 222 1264 222 1233 c 2
 222 1206 l 1
 38 1206 l 1
 38 1235 l 2
 38 1378 177 1455 338 1455 c 0
 499 1455 638 1377 638 1235 c 2
 638 1206 l 1
 454 1206 l 1
EndSplineSet
EndChar

StartChar: uni0326
Encoding: 806 806 351
Width: 563
VWidth: 0
Flags: HW
PickledData: "(dp1
S'com.fontlab.hintData'
p2
(dp3
S'vhints'
p4
((dp5
S'position'
p6
I67
sS'width'
p7
I359
stp8
sS'hhints'
p9
((dp10
g6
I-675
sg7
I523
stp11
ss."
HStem: -675 523<182 251 67 426>
VStem: 67 359
LayerCount: 2
Fore
SplineSet
251 -675 m 1
 67 -675 l 1
 182 -152 l 1
 426 -152 l 1
 251 -675 l 1
EndSplineSet
EndChar

StartChar: uni0403
Encoding: 1027 1027 354
Width: 1582
VWidth: 0
Flags: HW
PickledData: "(dp1
S'com.fontlab.hintData'
p2
(dp3
S'vhints'
p4
((dp5
S'position'
p6
I188
sS'width'
p7
I252
stp8
sS'hhints'
p9
((dp10
g6
I15
sg7
I21
s(dp11
g6
I1230
sg7
I210
stp12
ss."
HStem: 15 21<188 440 188 188> 1230 210<440 1132 440 440>
VStem: 188 252<15 1230>
LayerCount: 2
Fore
SplineSet
440 15 m 1
 188 15 l 1
 188 1440 l 1
 1132 1440 l 1
 1132 1230 l 1
 440 1230 l 1
 440 15 l 1
EndSplineSet
EndChar

StartChar: uni0405
Encoding: 1029 1029 355
Width: 1292
VWidth: 0
Flags: HW
PickledData: "(dp1
S'com.fontlab.hintData'
p2
(dp3
S'vhints'
p4
((dp5
S'position'
p6
I149
sS'width'
p7
I250
s(dp8
g6
I943
sg7
I254
stp9
sS'hhints'
p10
((dp11
g6
I-18
sg7
I229
s(dp12
g6
I1253
sg7
I226
stp13
ss."
HStem: -18 229<576 749 576 807.356> 1253 226<592 758>
VStem: 149 250<1016.5 1136 1016.5 1207> 943 254<414.903 479.5>
LayerCount: 2
Fore
SplineSet
1061 1144 m 1
 965 1203 842 1253 674 1253 c 0
 510 1253 399 1201 399 1071 c 0
 399 962 487 929 597 896 c 2
 784 840 l 1
 987 777 1197 683 1197 415 c 0
 1196 120 960 -18 655 -18 c 0
 446 -18 283 36 157 112 c 1
 135 125 l 1
 223 347 l 1
 254 324 l 1
 350 255 489 211 663 211 c 0
 835 211 943 271 943 413 c 0
 943 546 828 589 693 629 c 2
 513 683 l 1
 331 736 149 834 149 1068 c 0
 149 1346 386 1479 674 1479 c 0
 858 1479 1016 1438 1128 1362 c 1
 1149 1347 l 1
 1064 1150 l 1
 1061 1144 l 1
EndSplineSet
EndChar

StartChar: uni0406
Encoding: 1030 1030 356
Width: 638
VWidth: 0
Flags: HW
PickledData: "(dp1
S'com.fontlab.hintData'
p2
(dp3
S'vhints'
p4
((dp5
S'position'
p6
I194
sS'width'
p7
I251
stp8
sS'hhints'
p9
((dp10
g6
I15
sg7
I21
s(dp11
g6
I1420
sg7
I20
stp12
ss."
HStem: 15 21<194 445 194 194> 1420 20<194 445 445 445>
VStem: 194 251<15 1440 15 1440>
LayerCount: 2
Fore
SplineSet
445 1440 m 1
 445 15 l 1
 194 15 l 1
 194 1440 l 1
 445 1440 l 1
EndSplineSet
EndChar

StartChar: uni0408
Encoding: 1032 1032 358
Width: 755
VWidth: 0
Flags: HW
PickledData: "(dp1
S'com.fontlab.hintData'
p2
(dp3
S'vhints'
p4
((dp5
S'position'
p6
I321
sS'width'
p7
I251
stp8
sS'hhints'
p9
((dp10
g6
I-18
sg7
I201
s(dp11
g6
I1411
sg7
I20
stp12
ss."
HStem: -18 201<65 125 65 65> 1411 20<572 572>
VStem: 321 251<390 439 439 1430 1430 1430>
LayerCount: 2
Fore
SplineSet
65 183 m 1
 144 185 l 2
 295 189 321 235 321 390 c 2
 321 1430 l 1
 572 1431 l 1
 572 439 l 2
 572 118 475 -18 125 -18 c 2
 65 -18 l 1
 65 183 l 1
EndSplineSet
EndChar

StartChar: uni0409
Encoding: 1033 1033 359
Width: 1861
VWidth: 0
Flags: HW
PickledData: "(dp1
S'com.fontlab.hintData'
p2
(dp3
S'vhints'
p4
((dp5
S'position'
p6
I323
sS'width'
p7
I268
s(dp8
g6
I325
sg7
I284
s(dp9
g6
I869
sg7
I266
s(dp10
g6
I911
sg7
I250
s(dp11
g6
I1659
sg7
I242
stp12
sS'hhints'
p13
((dp14
g6
I-18
sg7
I203
s(dp15
g6
I6
sg7
I227
s(dp16
g6
I663
sg7
I218
s(dp17
g6
I1223
sg7
I217
stp18
ss."
HStem: -18 203<65 127 65 65> 6 227<1161 1287> 663 218<1161 1283 1283 1308 1161 1161> 1223 217<591 869 591 591>
VStem: 323 268<1223 1440> 325 284<317 395> 869 266<1223 1223> 911 250<6 663> 1659 242<373 525>
LayerCount: 2
Fore
SplineSet
1659 450 m 0
 1659 600 1518 663 1308 663 c 2
 1161 663 l 1
 1161 233 l 1
 1308 233 l 2
 1521 233 1659 296 1659 450 c 0
146 187 m 2
 297 191 325 239 325 395 c 2
 323 1440 l 1
 1135 1440 l 1
 1135 881 l 1
 1283 881 l 2
 1614 881 1901 760 1901 442 c 0
 1901 129 1634 6 1287 6 c 2
 911 6 l 1
 869 1223 l 1
 591 1223 l 1
 609 441 l 1
 609 118 501 -18 127 -18 c 2
 65 -18 l 1
 65 185 l 1
 146 187 l 2
EndSplineSet
EndChar

StartChar: uni040A
Encoding: 1034 1034 360
Width: 1790
VWidth: 0
Flags: HW
PickledData: "(dp1
S'com.fontlab.hintData'
p2
(dp3
S'vhints'
p4
((dp5
S'position'
p6
I1160
sS'width'
p7
I425
stp8
sS'hhints'
p9
((dp10
g6
I232
sg7
I430
stp11
ss."
HStem: 232 430<1160 1303>
VStem: 1160 425<372 524.5 372 662 372 662 372 1440 372 880>
LayerCount: 2
Fore
SplineSet
1827 448 m 1
 1827 447 l 1
 1826 134 1563 15 1286 15 c 2
 909 15 l 1
 909 663 l 1
 574 663 l 1
 574 16 l 1
 323 16 l 1
 323 1440 l 1
 574 1440 l 1
 574 881 l 1
 909 881 l 1
 909 1440 l 1
 1160 1440 l 1
 1160 880 l 1
 1299 880 l 2
 1598 880 1832 771 1832 515 c 0
 1832 494 1830 472 1827 449 c 0
1585 449 m 0
 1585 295 1472 231 1303 231 c 1
 1160 232 l 1
 1160 662 l 1
 1303 662 l 2
 1471 662 1585 600 1585 449 c 0
EndSplineSet
EndChar

StartChar: uni0410
Encoding: 1040 1040 361
Width: 1354
VWidth: 0
Flags: HW
PickledData: "(dp1
S'com.fontlab.hintData'
p2
(dp3
S'hhints'
p4
((dp5
S'position'
p6
I15
sS'width'
p7
I21
s(dp8
g6
I444
sg7
I205
s(dp9
g6
I1420
sg7
I20
stp10
ss."
HStem: 15 21<33 291 33 33 1099 1359 1099 1099> 444 205<520 870 520 943 446 870> 1420 20<579 813 813 813>
LayerCount: 2
Fore
SplineSet
520 649 m 1
 870 649 l 1
 698 1181 l 1
 520 649 l 1
1099 15 m 1
 943 444 l 1
 446 444 l 1
 291 15 l 1
 33 15 l 1
 579 1440 l 1
 813 1440 l 1
 1359 15 l 1
 1099 15 l 1
EndSplineSet
EndChar

StartChar: uni0411
Encoding: 1041 1041 362
Width: 1321
VWidth: 0
Flags: HW
PickledData: "(dp1
S'com.fontlab.hintData'
p2
(dp3
S'vhints'
p4
((dp5
S'position'
p6
I182
sS'width'
p7
I251
s(dp8
g6
I1028
sg7
I243
stp9
sS'hhints'
p10
((dp11
g6
I15
sg7
I217
s(dp12
g6
I662
sg7
I218
s(dp13
g6
I1222
sg7
I218
stp14
ss."
HStem: 15 217<433 689> 662 218<433 688 688 707 433 688> 1222 218<434 1193 434 434>
VStem: 182 251<232 662 232 880 232 1440> 1028 243<372.5 524.5>
LayerCount: 2
Fore
SplineSet
1028 449 m 0
 1028 600 899 662 707 662 c 2
 433 662 l 1
 433 232 l 1
 708 232 l 2
 902 232 1028 296 1028 449 c 0
182 1440 m 1
 1193 1440 l 1
 1193 1222 l 1
 434 1222 l 1
 433 880 l 1
 688 880 l 2
 1006 880 1271 759 1271 448 c 0
 1271 136 1006 15 689 15 c 2
 182 15 l 1
 182 1440 l 1
EndSplineSet
EndChar

StartChar: uni0412
Encoding: 1042 1042 363
Width: 1321
VWidth: 0
Flags: HW
PickledData: "(dp1
S'com.fontlab.hintData'
p2
(dp3
S'vhints'
p4
((dp5
S'position'
p6
I182
sS'width'
p7
I252
s(dp8
g6
I1014
sg7
I243
s(dp9
g6
I1029
sg7
I242
stp10
sS'hhints'
p11
((dp12
g6
I15
sg7
I220
s(dp13
g6
I645
sg7
I218
s(dp14
g6
I1224
sg7
I218
stp15
ss."
HStem: 15 220<434 669> 645 218<434 690 434 434> 1224 218<434 662 662 683 434 434>
VStem: 182 252<235 645 863 1224> 1014 243<981.5 1108.5> 1029 242<368 514 282.5 514.5>
LayerCount: 2
Fore
SplineSet
1014 1046 m 0
 1014 1171 877 1224 683 1224 c 2
 434 1224 l 1
 434 863 l 1
 690 864 l 2
 886 864 1014 917 1014 1046 c 0
690 235 m 2
 893 235 1029 294 1029 442 c 0
 1029 587 891 645 690 645 c 2
 434 645 l 1
 434 235 l 1
 690 235 l 2
1077 752 m 1
 1187 686 1271 593 1271 435 c 0
 1271 130 1000 15 669 15 c 2
 182 15 l 1
 182 1442 l 1
 662 1442 l 2
 977 1442 1257 1343 1257 1050 c 0
 1257 902 1175 815 1077 752 c 1
EndSplineSet
EndChar

StartChar: uni0413
Encoding: 1043 1043 364
Width: 1582
VWidth: 0
Flags: HW
PickledData: "(dp1
S'com.fontlab.hintData'
p2
(dp3
S'vhints'
p4
((dp5
S'position'
p6
I188
sS'width'
p7
I252
stp8
sS'hhints'
p9
((dp10
g6
I15
sg7
I21
s(dp11
g6
I1230
sg7
I210
stp12
ss."
HStem: 15 21<188 440 188 188> 1230 210<440 1132 440 440>
VStem: 188 252<15 1230>
LayerCount: 2
Fore
SplineSet
440 15 m 1
 188 15 l 1
 188 1440 l 1
 1132 1440 l 1
 1132 1230 l 1
 440 1230 l 1
 440 15 l 1
EndSplineSet
EndChar

StartChar: uni0414
Encoding: 1044 1044 365
Width: 1553
VWidth: 0
Flags: HW
PickledData: "(dp1
S'com.fontlab.hintData'
p2
(dp3
S'vhints'
p4
((dp5
S'position'
p6
I102
sS'width'
p7
I250
s(dp8
g6
I1051
sg7
I259
s(dp9
g6
I1145
sg7
I252
stp10
sS'hhints'
p11
((dp12
g6
I-177
sg7
I392
s(dp13
g6
I5
sg7
I210
s(dp14
g6
I1216
sg7
I214
stp15
ss."
HStem: -177 392<102 161 161 270.5 102 352 102 161 1310 1397> 5 210<594 1051 102 352> 1216 214<898 1051 898 898>
VStem: 102 250<-177 5 -177 215 -177 215> 1051 259<215 1216 1216 1216> 1145 252<-177 5 5 5>
LayerCount: 2
Fore
SplineSet
607 231 m 1
 594 215 l 1
 1051 215 l 1
 1051 1216 l 1
 898 1216 l 1
 738 578 l 2
 708 457 665 341 607 231 c 1
102 215 m 1
 161 215 l 2
 380 215 440 365 487 550 c 2
 713 1430 l 1
 1310 1430 l 1
 1310 215 l 1
 1397 215 l 1
 1397 -177 l 1
 1145 -177 l 1
 1145 5 l 1
 352 5 l 1
 352 -177 l 1
 102 -177 l 1
 102 215 l 1
EndSplineSet
EndChar

StartChar: uni0415
Encoding: 1045 1045 366
Width: 1268
VWidth: 0
Flags: HW
PickledData: "(dp1
S'com.fontlab.hintData'
p2
(dp3
S'vhints'
p4
((dp5
S'position'
p6
I182
sS'width'
p7
I281
stp8
sS'hhints'
p9
((dp10
g6
I15
sg7
I218
s(dp11
g6
I651
sg7
I218
s(dp12
g6
I1222
sg7
I218
stp13
ss."
HStem: 15 218<463 1139> 651 218<463 1081 463 1081> 1222 218<463 1109 463 463>
VStem: 182 281<233 651 869 1222>
LayerCount: 2
Fore
SplineSet
1127 1440 m 1
 1109 1222 l 1
 463 1222 l 1
 463 869 l 1
 1081 869 l 1
 1081 651 l 1
 463 651 l 1
 463 233 l 1
 1157 233 l 1
 1139 15 l 1
 182 15 l 1
 182 1440 l 1
 1127 1440 l 1
EndSplineSet
EndChar

StartChar: uni041B
Encoding: 1051 1051 367
Width: 1427
VWidth: 0
Flags: HW
PickledData: "(dp1
S'com.fontlab.hintData'
p2
(dp3
S'vhints'
p4
((dp5
S'position'
p6
I182
sS'width'
p7
I274
s(dp8
g6
I980
sg7
I252
stp9
sS'hhints'
p10
((dp11
g6
I-18
sg7
I241
s(dp12
g6
I5
sg7
I21
s(dp13
g6
I1251
sg7
I179
stp14
ss."
HStem: -18 241<-74 -14 -74 -74> 5 21<980 1232 980 980> 1251 179<456 456>
VStem: 182 274<439 447 447 1251> 980 252<5 1250 1250 1250>
LayerCount: 2
Fore
SplineSet
1232 1430 m 1
 1232 5 l 1
 980 5 l 1
 980 1250 l 1
 456 1251 l 1
 456 447 l 2
 456 120 351 -18 -14 -18 c 2
 -74 -18 l 1
 -74 223 l 1
 6 224 l 2
 158 226 182 283 182 439 c 2
 182 1430 l 1
 1232 1430 l 1
EndSplineSet
EndChar

StartChar: uni041C
Encoding: 1052 1052 368
Width: 1814
VWidth: 0
Flags: HW
PickledData: "(dp1
S'com.fontlab.hintData'
p2
(dp3
S'vhints'
p4
((dp5
S'position'
p6
I182
sS'width'
p7
I240
s(dp8
g6
I1391
sg7
I242
stp9
sS'hhints'
p10
((dp11
g6
I15
sg7
I21
s(dp12
g6
I1420
sg7
I20
stp13
ss."
HStem: 15 21<182 422 182 182 1391 1633 1391 1391> 1420 20<182 450 450 450 1371 1633 1633 1633>
VStem: 182 240<15 1025 15 1440> 1391 242<15 1016 1016 1016>
LayerCount: 2
Fore
SplineSet
1391 15 m 1
 1391 1016 l 1
 1018 176 l 1
 803 176 l 1
 422 1025 l 1
 422 15 l 1
 182 15 l 1
 182 1440 l 1
 450 1440 l 1
 913 417 l 1
 1371 1440 l 1
 1633 1440 l 1
 1633 15 l 1
 1391 15 l 1
EndSplineSet
EndChar

StartChar: uni041D
Encoding: 1053 1053 369
Width: 1562
VWidth: 0
Flags: HW
PickledData: "(dp1
S'com.fontlab.hintData'
p2
(dp3
S'vhints'
p4
((dp5
S'position'
p6
I184
sS'width'
p7
I278
s(dp8
g6
I1098
sg7
I278
stp9
sS'hhints'
p10
((dp11
g6
I15
sg7
I21
s(dp12
g6
I645
sg7
I210
s(dp13
g6
I1427
sg7
I20
stp14
ss."
HStem: 15 21<184 462 184 184 1098 1376 1098 1098> 645 210<462 1098 462 1098> 1427 20<184 462 462 462 1098 1376 1376 1376>
VStem: 184 278<15 645 15 855 855 1447> 1098 278<15 645 645 645 855 1447 15 1447>
LayerCount: 2
Fore
SplineSet
1098 1447 m 1
 1376 1447 l 1
 1376 15 l 1
 1098 15 l 1
 1098 645 l 1
 462 645 l 1
 462 15 l 1
 184 15 l 1
 184 1447 l 1
 462 1447 l 1
 462 855 l 1
 1098 855 l 1
 1098 1447 l 1
EndSplineSet
EndChar

StartChar: uni041E
Encoding: 1054 1054 370
Width: 1662
VWidth: 0
Flags: HW
PickledData: "(dp1
S'com.fontlab.hintData'
p2
(dp3
S'vhints'
p4
((dp5
S'position'
p6
I106
sS'width'
p7
I287
s(dp8
g6
I1270
sg7
I287
stp9
sS'hhints'
p10
((dp11
g6
I-18
sg7
I225
s(dp12
g6
I1253
sg7
I225
stp13
ss."
HStem: -18 225<686.5 975.5 686.5 1038> 1253 225<685.5 976.5>
VStem: 106 287<589.5 854.5 589.5 944.5> 1270 287<589.5 854.5>
LayerCount: 2
Fore
SplineSet
106 727 m 0
 106 1162 417 1478 831 1478 c 0
 1246 1478 1557 1162 1557 727 c 0
 1557 298 1245 -18 831 -18 c 0
 417 -18 106 298 106 727 c 0
1270 722 m 0
 1270 987 1122 1253 831 1253 c 0
 540 1253 393 987 393 722 c 0
 393 457 542 207 831 207 c 0
 1120 207 1270 457 1270 722 c 0
EndSplineSet
EndChar

StartChar: uni041F
Encoding: 1055 1055 371
Width: 1556
VWidth: 0
Flags: HW
PickledData: "(dp1
S'com.fontlab.hintData'
p2
(dp3
S'vhints'
p4
((dp5
S'position'
p6
I182
sS'width'
p7
I251
s(dp8
g6
I1123
sg7
I251
stp9
sS'hhints'
p10
((dp11
g6
I15
sg7
I21
s(dp12
g6
I1230
sg7
I210
stp13
ss."
HStem: 15 21<182 433 182 182 1123 1374 1123 1123> 1230 210<433 1123 433 433>
VStem: 182 251<15 1230 15 1440 15 1440> 1123 251<15 1230 1230 1230>
LayerCount: 2
Fore
SplineSet
182 1440 m 1
 1374 1440 l 1
 1374 15 l 1
 1123 15 l 1
 1123 1230 l 1
 433 1230 l 1
 433 15 l 1
 182 15 l 1
 182 1440 l 1
EndSplineSet
EndChar

StartChar: uni0420
Encoding: 1056 1056 372
Width: 1320
VWidth: 0
Flags: HW
PickledData: "(dp1
S'com.fontlab.hintData'
p2
(dp3
S'vhints'
p4
((dp5
S'position'
p6
I182
sS'width'
p7
I250
s(dp8
g6
I1028
sg7
I243
stp9
sS'hhints'
p10
((dp11
g6
I15
sg7
I21
s(dp12
g6
I563
sg7
I212
s(dp13
g6
I1222
sg7
I218
stp14
ss."
HStem: 15 21<182 432 182 182> 563 212<432 703 433 684> 1222 218<432 657 657 678 432 432>
VStem: 182 250<15 563> 1028 243<930 1080.5>
LayerCount: 2
Fore
SplineSet
703 775 m 2
 898 775 1028 857 1028 1003 c 0
 1028 1158 892 1222 678 1222 c 2
 432 1222 l 1
 433 775 l 1
 703 775 l 2
432 563 m 1
 432 15 l 1
 182 15 l 1
 182 1440 l 1
 657 1440 l 2
 1006 1440 1271 1318 1271 1006 c 0
 1271 713 1016 563 684 563 c 2
 432 563 l 1
EndSplineSet
EndChar

StartChar: uni0421
Encoding: 1057 1057 373
Width: 1417
VWidth: 0
Flags: HW
PickledData: "(dp1
S'com.fontlab.hintData'
p2
(dp3
S'vhints'
p4
((dp5
S'position'
p6
I106
sS'width'
p7
I287
stp8
sS'hhints'
p9
((dp10
g6
I-18
sg7
I225
s(dp11
g6
I1253
sg7
I225
stp12
ss."
HStem: -18 225<727.5 898> 1253 225<726.5 906 643 907>
VStem: 106 287<559.5 891.5 559.5 963.5>
LayerCount: 2
Fore
SplineSet
1211 329 m 1
 1298 115 l 1
 1135 26 972 -18 824 -18 c 0
 441 -18 106 279 106 733 c 0
 106 1194 455 1478 831 1478 c 0
 981 1478 1147 1432 1300 1338 c 1
 1212 1122 l 1
 1094 1205 967 1253 847 1253 c 0
 606 1253 393 1051 393 732 c 0
 393 387 605 207 850 207 c 0
 968 207 1096 254 1211 329 c 1
EndSplineSet
EndChar

StartChar: uni0422
Encoding: 1058 1058 374
Width: 1221
VWidth: 0
Flags: HW
PickledData: "(dp1
S'com.fontlab.hintData'
p2
(dp3
S'vhints'
p4
((dp5
S'position'
p6
I472
sS'width'
p7
I289
s(dp8
g6
I492
sg7
I278
stp9
sS'hhints'
p10
((dp11
g6
I15
sg7
I21
s(dp12
g6
I1222
sg7
I218
stp13
ss."
HStem: 15 21<492 770 492 492> 1222 218<45 472 45 1189 761 1189 761 761>
VStem: 472 289<1222 1222> 492 278<15 15>
LayerCount: 2
Fore
SplineSet
761 1222 m 1
 770 15 l 1
 492 15 l 1
 472 1222 l 1
 45 1222 l 1
 45 1440 l 1
 1189 1440 l 1
 1189 1222 l 1
 761 1222 l 1
EndSplineSet
EndChar

StartChar: uni0425
Encoding: 1061 1061 376
Width: 1313
VWidth: 0
Flags: HW
PickledData: "(dp1
S'com.fontlab.hintData'
p2
(dp3
S'vhints'
p4
((dp5
S'position'
p6
I51
sS'width'
p7
I291
s(dp8
g6
I1066
sg7
I295
stp9
sS'hhints'
p10
((dp11
g6
I15
sg7
I21
s(dp12
g6
I1420
sg7
I20
stp13
ss."
HStem: 15 21<14 299 14 14 1066 1361 1066 1066> 1420 20<51 342 342 342 1074 1353 1353 1353>
VStem: 51 291<1440 1440> 1066 295<15 15>
LayerCount: 2
Fore
SplineSet
1361 15 m 1
 1066 15 l 1
 685 603 l 1
 299 15 l 1
 14 15 l 1
 546 742 l 1
 51 1440 l 1
 342 1440 l 1
 699 882 l 1
 1074 1440 l 1
 1353 1440 l 1
 842 742 l 1
 1361 15 l 1
EndSplineSet
EndChar

StartChar: uni0428
Encoding: 1064 1064 377
Width: 1924
VWidth: 0
Flags: HW
PickledData: "(dp1
S'com.fontlab.hintData'
p2
(dp3
S'vhints'
p4
((dp5
S'position'
p6
I182
sS'width'
p7
I251
s(dp8
g6
I833
sg7
I251
s(dp9
g6
I1492
sg7
I251
stp10
sS'hhints'
p11
((dp12
g6
I15
sg7
I210
s(dp13
g6
I1420
sg7
I20
stp14
ss."
HStem: 15 210<433 833 1084 1492> 1420 20<182 433 433 433 833 1084 1084 1084 1492 1743 1743 1743>
VStem: 182 251<225 1440 225 1440 225 1440> 833 251<225 1440 225 1440> 1492 251<225 1440>
LayerCount: 2
Fore
SplineSet
1743 15 m 1
 182 15 l 1
 182 1440 l 1
 433 1440 l 1
 433 225 l 1
 833 225 l 1
 833 1440 l 1
 1084 1440 l 1
 1084 225 l 1
 1492 225 l 1
 1492 1440 l 1
 1743 1440 l 1
 1743 15 l 1
EndSplineSet
EndChar

StartChar: uni042A
Encoding: 1066 1066 378
Width: 1558
VWidth: 0
Flags: HW
PickledData: "(dp1
S'com.fontlab.hintData'
p2
(dp3
S'vhints'
p4
((dp5
S'position'
p6
I364
sS'width'
p7
I259
s(dp8
g6
I1236
sg7
I239
stp9
sS'hhints'
p10
((dp11
g6
I15
sg7
I217
s(dp12
g6
I742
sg7
I218
s(dp13
g6
I1222
sg7
I218
stp14
ss."
HStem: 15 217<623 912> 742 218<623 901 901 920 623 901> 1222 218<45 364 45 623>
VStem: 364 259<232 742 232 960 960 1222 1222 1222> 1236 239<411 565.5>
LayerCount: 2
Fore
SplineSet
1236 489 m 0
 1236 642 1107 742 920 742 c 2
 623 742 l 1
 623 232 l 1
 932 232 l 2
 1132 232 1236 333 1236 489 c 0
912 15 m 2
 364 15 l 1
 364 1222 l 1
 45 1222 l 1
 45 1440 l 1
 623 1440 l 1
 623 960 l 1
 901 960 l 2
 1203 960 1475 831 1475 502 c 0
 1475 173 1295 15 912 15 c 2
EndSplineSet
EndChar

StartChar: uni042B
Encoding: 1067 1067 379
Width: 1838
VWidth: 0
Flags: HW
PickledData: "(dp1
S'com.fontlab.hintData'
p2
(dp3
S'vhints'
p4
((dp5
S'position'
p6
I182
sS'width'
p7
I250
s(dp8
g6
I1015
sg7
I252
s(dp9
g6
I1406
sg7
I251
stp10
sS'hhints'
p11
((dp12
g6
I15
sg7
I217
s(dp13
g6
I742
sg7
I218
s(dp14
g6
I1420
sg7
I20
stp15
ss."
HStem: 15 217<432 709> 742 218<432 711 711 729 432 711> 1420 20<182 432 432 432 1404 1656 1656 1656>
VStem: 182 250<232 742 960 1440> 1015 252<411.5 565.5> 1406 251<15 15>
LayerCount: 2
Fore
SplineSet
1656 1440 m 1
 1657 15 l 1
 1406 15 l 1
 1404 1440 l 1
 1656 1440 l 1
711 960 m 2
 1021 960 1267 825 1267 493 c 0
 1267 178 1028 15 709 15 c 2
 182 15 l 1
 182 1440 l 1
 432 1440 l 1
 432 960 l 1
 711 960 l 2
1015 489 m 0
 1015 642 916 742 729 742 c 2
 432 742 l 1
 432 232 l 1
 727 232 l 2
 917 232 1015 334 1015 489 c 0
EndSplineSet
EndChar

StartChar: uni042C
Encoding: 1068 1068 380
Width: 1321
VWidth: 0
Flags: HW
PickledData: "(dp1
S'com.fontlab.hintData'
p2
(dp3
S'vhints'
p4
((dp5
S'position'
p6
I182
sS'width'
p7
I250
s(dp8
g6
I1027
sg7
I244
stp9
sS'hhints'
p10
((dp11
g6
I15
sg7
I217
s(dp12
g6
I742
sg7
I218
s(dp13
g6
I1420
sg7
I20
stp14
ss."
HStem: 15 217<432 717> 742 218<432 716 716 734 432 716> 1420 20<182 432 432 432>
VStem: 182 250<232 742 232 960 960 1440> 1027 244<411 565.5>
LayerCount: 2
Fore
SplineSet
1027 489 m 0
 1027 642 925 742 734 742 c 2
 432 742 l 1
 432 232 l 1
 735 232 l 2
 927 232 1027 333 1027 489 c 0
717 15 m 2
 182 15 l 1
 182 1440 l 1
 432 1440 l 1
 432 960 l 1
 716 960 l 2
 1037 960 1271 798 1271 488 c 0
 1271 177 1037 15 717 15 c 2
EndSplineSet
EndChar

StartChar: uni042E
Encoding: 1070 1070 381
Width: 1526
VWidth: 0
Flags: HW
PickledData: "(dp1
S'com.fontlab.hintData'
p2
(dp3
S'vhints'
p4
((dp5
S'position'
p6
I182
sS'width'
p7
I251
s(dp8
g6
I651
sg7
I278
s(dp9
g6
I1682
sg7
I267
stp10
sS'hhints'
p11
((dp12
g6
I-18
sg7
I225
s(dp13
g6
I15
sg7
I21
s(dp14
g6
I645
sg7
I210
s(dp15
g6
I1253
sg7
I225
s(dp16
g6
I1420
sg7
I20
stp17
ss."
HStem: -18 225<1172 1439.5 1172 1518.5> 15 21<182 433 182 182> 645 210<433 651 433 656> 1253 225<1172 1438> 1420 20<182 433 433 433>
VStem: 182 251<15 645 15 855 855 1440> 651 278<645 735> 1682 267<591 877.5>
LayerCount: 2
Fore
SplineSet
1682 735 m 0
 1682 1020 1571 1253 1305 1253 c 0
 1039 1253 929 1019 929 735 c 2
 929 725 l 1
 932 440 1039 207 1305 207 c 0
 1574 207 1682 447 1682 735 c 0
1306 -18 m 0
 903 -18 684 276 651 645 c 1
 433 645 l 1
 433 15 l 1
 182 15 l 1
 182 1440 l 1
 433 1440 l 1
 433 855 l 1
 656 855 l 1
 701 1206 920 1478 1306 1478 c 0
 1733 1478 1949 1144 1949 727 c 0
 1949 311 1731 -18 1306 -18 c 0
EndSplineSet
EndChar

StartChar: uni042F
Encoding: 1071 1071 382
Width: 1447
VWidth: 0
Flags: HW
PickledData: "(dp1
S'com.fontlab.hintData'
p2
(dp3
S'vhints'
p4
((dp5
S'position'
p6
I208
sS'width'
p7
I257
s(dp8
g6
I1173
sg7
I251
stp9
sS'hhints'
p10
((dp11
g6
I15
sg7
I21
s(dp12
g6
I574
sg7
I219
s(dp13
g6
I1224
sg7
I216
stp14
ss."
HStem: 15 21<1173 1424 1173 1173> 574 219<880.5 901 901 1173> 1224 216<752 1424>
VStem: 208 257<930.5 1083.5 930.5 1165.5> 1173 251<15 574 574 574 793 1223 1223 1223>
LayerCount: 2
Fore
SplineSet
465 1006 m 0
 465 855 631 793 876 793 c 2
 1173 793 l 1
 1173 1223 l 1
 876 1224 l 2
 628 1224 465 1161 465 1006 c 0
468 643 m 1
 311 709 208 822 208 1011 c 0
 208 1320 494 1440 901 1440 c 2
 1424 1440 l 1
 1424 15 l 1
 1173 15 l 1
 1173 574 l 1
 901 574 l 2
 860 574 819 576 783 578 c 1
 384 14 l 1
 119 16 l 1
 468 643 l 1
EndSplineSet
EndChar

StartChar: uni0430
Encoding: 1072 1072 383
Width: 1225
VWidth: 0
Flags: HW
PickledData: "(dp1
S'com.fontlab.hintData'
p2
(dp3
S'vhints'
p4
((dp5
S'position'
p6
I129
sS'width'
p7
I251
s(dp8
g6
I866
sg7
I261
stp9
sS'hhints'
p10
((dp11
g6
I-18
sg7
I189
s(dp12
g6
I5
sg7
I21
s(dp13
g6
I445
sg7
I162
s(dp14
g6
I900
sg7
I199
stp15
ss."
HStem: -18 189<495 584> 5 21<935 1127 935 935> 445 162<676 866 795 866 795 866> 900 199<573.5 738.5>
VStem: 129 251<261.5 368 261.5 436> 866 261<238 445 445 445 607 744 744 775 5 801>
LayerCount: 2
Fore
SplineSet
556 171 m 0
 683 171 770 204 866 238 c 1
 866 445 l 1
 791 445 l 2
 561 445 380 427 380 309 c 0
 380 214 434 171 556 171 c 0
905 78 m 1
 787 26 666 -18 502 -18 c 0
 283 -18 129 92 129 287 c 0
 129 585 465 607 795 607 c 2
 866 607 l 1
 866 744 l 2
 866 858 810 900 667 900 c 0
 480 900 352 854 250 798 c 1
 194 998 l 1
 311 1055 460 1099 662 1099 c 0
 931 1099 1127 1014 1127 775 c 2
 1127 5 l 1
 935 5 l 1
 905 78 l 1
EndSplineSet
EndChar

StartChar: uni0432
Encoding: 1074 1074 384
Width: 1171
VWidth: 0
Flags: HW
PickledData: "(dp1
S'com.fontlab.hintData'
p2
(dp3
S'vhints'
p4
((dp5
S'position'
p6
I160
sS'width'
p7
I244
s(dp8
g6
I824
sg7
I237
s(dp9
g6
I853
sg7
I235
stp10
sS'hhints'
p11
((dp12
g6
I15
sg7
I208
s(dp13
g6
I437
sg7
I196
s(dp14
g6
I821
sg7
I224
stp15
ss."
HStem: 15 208<404 404 404 684> 437 196<404 691 691 695 404 691> 821 224<404 664 664 691 404 404>
VStem: 160 244<223 437 633 821> 824 237<711.5 759.5> 853 235<296.5 362>
LayerCount: 2
Fore
SplineSet
691 633 m 2
 773 633 824 670 824 731 c 0
 824 788 773 821 691 821 c 2
 404 821 l 1
 404 633 l 1
 691 633 l 2
853 329 m 0
 853 395 788 437 695 437 c 2
 404 437 l 1
 404 223 l 1
 695 224 l 2
 789 224 853 264 853 329 c 0
914 552 m 1
 1009 509 1088 429 1088 324 c 0
 1088 110 902 15 684 15 c 2
 160 15 l 1
 160 1045 l 1
 664 1045 l 2
 883 1045 1061 961 1061 759 c 0
 1061 664 999 591 914 552 c 1
EndSplineSet
EndChar

StartChar: uni0433
Encoding: 1075 1075 385
Width: 907
VWidth: 0
Flags: HW
PickledData: "(dp1
S'com.fontlab.hintData'
p2
(dp3
S'vhints'
p4
((dp5
S'position'
p6
I200
sS'width'
p7
I242
stp8
sS'hhints'
p9
((dp10
g6
I15
sg7
I21
s(dp11
g6
I837
sg7
I208
stp12
ss."
HStem: 15 21<200 442 200 200> 837 208<442 752 442 442>
VStem: 200 242<15 837 15 1045 15 1045>
LayerCount: 2
Fore
SplineSet
752 837 m 1
 442 837 l 1
 442 15 l 1
 200 15 l 1
 200 1045 l 1
 752 1045 l 1
 752 837 l 1
EndSplineSet
EndChar

StartChar: uni0434
Encoding: 1076 1076 386
Width: 1263
VWidth: 0
Flags: HW
PickledData: "(dp1
S'com.fontlab.hintData'
p2
(dp3
S'vhints'
p4
((dp5
S'position'
p6
I-4
sS'width'
p7
I231
s(dp8
g6
I264
sg7
I268
s(dp9
g6
I875
sg7
I249
s(dp10
g6
I1020
sg7
I247
stp11
sS'hhints'
p12
((dp13
g6
I-317
sg7
I523
s(dp14
g6
I5
sg7
I201
s(dp15
g6
I825
sg7
I211
stp16
ss."
HStem: -317 523<-4 131 131 163 -4 227 -4 131 1124 1267> 5 201<493 875 -4 227> 825 211<532 875 532 532>
VStem: -4 231<-317 5 -317 206 -317 206> 264 268<395.5 439 439 825> 875 249<206 825 825 825> 1020 247<-317 5 5 5>
LayerCount: 2
Fore
SplineSet
532 439 m 2
 532 352 514 258 493 206 c 1
 875 206 l 1
 875 825 l 1
 532 825 l 1
 532 439 l 2
1267 -317 m 1
 1020 -317 l 1
 1020 5 l 1
 227 5 l 1
 227 -317 l 1
 -4 -317 l 1
 -4 206 l 1
 131 206 l 2
 195 206 264 258 264 395 c 2
 264 1036 l 1
 1124 1036 l 1
 1124 206 l 1
 1267 206 l 1
 1267 -317 l 1
EndSplineSet
EndChar

StartChar: uni0435
Encoding: 1077 1077 387
Width: 1177
VWidth: 0
Flags: HW
PickledData: "(dp1
S'com.fontlab.hintData'
p2
(dp3
S'hhints'
p4
((dp5
S'position'
p6
I-18
sS'width'
p7
I201
s(dp8
g6
I472
sg7
I183
s(dp9
g6
I898
sg7
I201
stp10
ss."
HStem: -18 201<557.5 735 557.5 744> 472 183<347 875 356 875 356 1123> 898 201<553 710.5>
LayerCount: 2
Fore
SplineSet
875 655 m 1
 853 800 787 898 634 898 c 0
 472 898 387 783 356 655 c 1
 875 655 l 1
347 472 m 1
 378 301 459 183 656 183 c 0
 814 183 913 240 987 308 c 1
 1093 136 l 1
 985 41 854 -18 634 -18 c 0
 276 -18 84 255 84 541 c 0
 84 841 294 1099 631 1099 c 0
 960 1099 1124 858 1124 562 c 0
 1124 534 1123 506 1123 477 c 2
 1123 472 l 1
 347 472 l 1
EndSplineSet
EndChar

StartChar: uni0437
Encoding: 1079 1079 388
Width: 1173
VWidth: 0
Flags: HW
PickledData: "(dp1
S'com.fontlab.hintData'
p2
(dp3
S'vhints'
p4
((dp5
S'position'
p6
I849
sS'width'
p7
I243
s(dp8
g6
I879
sg7
I242
stp9
sS'hhints'
p10
((dp11
g6
I-20
sg7
I214
s(dp12
g6
I447
sg7
I204
s(dp13
g6
I888
sg7
I215
stp14
ss."
HStem: -20 214<548 706 548 752> 447 204<442 677 442 734> 888 215<535.5 690>
VStem: 849 243<739.5 805> 879 242<283 366>
LayerCount: 2
Fore
SplineSet
925 561 m 1
 1037 525 1121 434 1121 317 c 0
 1121 68 879 -20 625 -20 c 0
 435 -20 296 20 194 100 c 1
 287 282 l 1
 368 233 469 194 627 194 c 0
 785 194 879 236 879 330 c 0
 879 402 791 447 677 447 c 2
 442 447 l 1
 442 651 l 1
 677 651 l 2
 782 651 849 692 849 760 c 0
 849 850 763 888 617 888 c 0
 452 888 365 854 289 803 c 1
 196 989 l 1
 286 1071 443 1103 628 1103 c 0
 859 1103 1092 1026 1092 794 c 0
 1092 685 1037 604 925 561 c 1
EndSplineSet
EndChar

StartChar: uni0438
Encoding: 1080 1080 389
Width: 1259
VWidth: 0
Flags: HW
PickledData: "(dp1
S'com.fontlab.hintData'
p2
(dp3
S'vhints'
p4
((dp5
S'position'
p6
I162
sS'width'
p7
I235
s(dp8
g6
I880
sg7
I238
stp9
sS'hhints'
p10
((dp11
g6
I15
sg7
I21
stp12
ss."
HStem: 15 21<162 379 162 162 880 1118 880 880>
VStem: 162 235<327 327 327 1045> 880 238<15 629 629 629>
LayerCount: 2
Fore
SplineSet
397 327 m 1
 888 905 l 1
 888 1045 l 1
 1118 1045 l 1
 1118 15 l 1
 880 15 l 1
 880 629 l 1
 379 15 l 1
 162 15 l 1
 162 1045 l 1
 397 1045 l 1
 397 327 l 1
EndSplineSet
EndChar

StartChar: uni0439
Encoding: 1081 1081 390
Width: 1259
VWidth: 0
Flags: HW
PickledData: "(dp1
S'com.fontlab.hintData'
p2
(dp3
S'vhints'
p4
((dp5
S'position'
p6
I162
sS'width'
p7
I235
s(dp8
g6
I383
sg7
I177
s(dp9
g6
I782
sg7
I180
s(dp10
g6
I880
sg7
I238
stp11
sS'hhints'
p12
((dp13
g6
I15
sg7
I21
s(dp14
g6
I1282
sg7
I168
stp15
ss."
HStem: 15 21<162 379 162 162 880 1118 880 880> 1282 168<634 708>
VStem: 162 235<327 327 327 1045> 383 177<1201 1228 1201 1230 1201 1301.5> 782 180<1201 1228 1228 1230 1201 1244> 880 238<15 629 629 629>
LayerCount: 2
Fore
SplineSet
671 1450 m 0
 825 1450 962 1372 962 1230 c 2
 962 1201 l 1
 782 1201 l 1
 782 1228 l 2
 782 1260 745 1282 671 1282 c 0
 597 1282 560 1260 560 1228 c 2
 560 1201 l 1
 383 1201 l 1
 383 1230 l 2
 383 1373 517 1450 671 1450 c 0
397 327 m 1
 888 905 l 1
 888 1045 l 1
 1118 1045 l 1
 1118 15 l 1
 880 15 l 1
 880 629 l 1
 379 15 l 1
 162 15 l 1
 162 1045 l 1
 397 1045 l 1
 397 327 l 1
EndSplineSet
EndChar

StartChar: uni043A
Encoding: 1082 1082 391
Width: 1190
VWidth: 0
Flags: HW
PickledData: "(dp1
S'com.fontlab.hintData'
p2
(dp3
S'vhints'
p4
((dp5
S'position'
p6
I172
sS'width'
p7
I244
s(dp8
g6
I844
sg7
I323
stp9
sS'hhints'
p10
((dp11
g6
I841
sg7
I215
stp12
ss."
HStem: 841 215<942.5 957 892 978.5>
VStem: 172 244<17 410 17 639 639 1047> 844 323<17 17>
LayerCount: 2
Fore
SplineSet
539 758 m 1
 610 821 660 891 725 962 c 1
 777 1017 843 1056 941 1056 c 0
 973 1056 1009 1052 1047 1045 c 2
 1072 1040 l 1
 1071 827 l 1
 1036 833 l 2
 1011 838 991 841 966 841 c 0
 919 841 895 811 862 773 c 0
 809 712 754 649 683 587 c 1
 608 520 l 1
 1167 17 l 1
 844 17 l 1
 416 410 l 1
 416 17 l 1
 172 17 l 1
 172 1047 l 1
 416 1047 l 1
 416 639 l 1
 537 758 l 1
 539 758 l 1
EndSplineSet
EndChar

StartChar: uni043B
Encoding: 1083 1083 392
Width: 1283
VWidth: 0
Flags: HW
PickledData: "(dp1
S'com.fontlab.hintData'
p2
(dp3
S'vhints'
p4
((dp5
S'position'
p6
I193
sS'width'
p7
I268
s(dp8
g6
I882
sg7
I243
stp9
sS'hhints'
p10
((dp11
g6
I6
sg7
I21
s(dp12
g6
I825
sg7
I211
stp13
ss."
HStem: 6 21<882 1125 882 882> 825 211<461 882 461 461>
VStem: 193 268<439 439 439 825> 882 243<6 825 825 825>
LayerCount: 2
Fore
SplineSet
461 439 m 1
 461 428 l 2
 461 303 460 197 391 116 c 0
 310 22 178 0 34 -17 c 1
 0 -22 l 1
 0 183 l 1
 26 187 l 1
 173 204 193 233 193 395 c 2
 193 1036 l 1
 1125 1036 l 1
 1125 6 l 1
 882 6 l 1
 882 825 l 1
 461 825 l 1
 461 439 l 1
EndSplineSet
EndChar

StartChar: uni043C
Encoding: 1084 1084 393
Width: 1297
VWidth: 0
Flags: HW
PickledData: "(dp1
S'com.fontlab.hintData'
p2
(dp3
S'vhints'
p4
((dp5
S'position'
p6
I160
sS'width'
p7
I224
s(dp8
g6
I915
sg7
I224
stp9
sS'hhints'
p10
((dp11
g6
I15
sg7
I21
stp12
ss."
HStem: 15 21<160 384 160 160 915 1139 915 915>
VStem: 160 224<15 664 15 1045> 915 224<15 665 665 665>
LayerCount: 2
Fore
SplineSet
1139 1045 m 1
 1139 15 l 1
 915 15 l 1
 915 665 l 1
 700 329 l 1
 597 329 l 1
 384 664 l 1
 384 15 l 1
 160 15 l 1
 160 1045 l 1
 367 1045 l 1
 649 595 l 1
 932 1045 l 1
 1139 1045 l 1
EndSplineSet
EndChar

StartChar: uni043D
Encoding: 1085 1085 394
Width: 1260
VWidth: 0
Flags: HW
PickledData: "(dp1
S'com.fontlab.hintData'
p2
(dp3
S'vhints'
p4
((dp5
S'position'
p6
I162
sS'width'
p7
I243
s(dp8
g6
I876
sg7
I243
stp9
sS'hhints'
p10
((dp11
g6
I15
sg7
I21
s(dp12
g6
I475
sg7
I209
s(dp13
g6
I1041
sg7
I20
stp14
ss."
HStem: 15 21<162 405 162 162 876 876 876 1119> 475 209<405 876 405 876> 1041 20<162 405 405 405 876 1119 1119 1119>
VStem: 162 243<15 475 15 684 684 1061> 876 243<15 475 475 475 684 1061 15 1061>
LayerCount: 2
Fore
SplineSet
876 475 m 1
 405 475 l 1
 405 15 l 1
 162 15 l 1
 162 1061 l 1
 405 1061 l 1
 405 684 l 1
 876 684 l 1
 876 1061 l 1
 1119 1061 l 1
 1119 15 l 1
 876 15 l 1
 876 475 l 1
EndSplineSet
EndChar

StartChar: uni043E
Encoding: 1086 1086 395
Width: 1274
VWidth: 0
Flags: HW
PickledData: "(dp1
S'com.fontlab.hintData'
p2
(dp3
S'vhints'
p4
((dp5
S'position'
p6
I90
sS'width'
p7
I254
s(dp8
g6
I931
sg7
I254
stp9
sS'hhints'
p10
((dp11
g6
I-18
sg7
I201
s(dp12
g6
I898
sg7
I201
stp13
ss."
HStem: -18 201<563.5 710.5 563.5 821> 898 201<564 710>
VStem: 90 254<416.5 656 416.5 675> 931 254<416.5 656>
LayerCount: 2
Fore
SplineSet
637 183 m 0
 784 183 931 298 931 535 c 0
 931 777 783 898 637 898 c 0
 491 898 344 777 344 535 c 0
 344 298 490 183 637 183 c 0
1185 535 m 0
 1185 257 1005 -18 637 -18 c 0
 269 -18 90 257 90 535 c 0
 90 815 269 1099 637 1099 c 0
 1005 1099 1185 815 1185 535 c 0
EndSplineSet
EndChar

StartChar: uni043F
Encoding: 1087 1087 396
Width: 1260
VWidth: 0
Flags: HW
PickledData: "(dp1
S'com.fontlab.hintData'
p2
(dp3
S'vhints'
p4
((dp5
S'position'
p6
I162
sS'width'
p7
I243
s(dp8
g6
I876
sg7
I243
stp9
sS'hhints'
p10
((dp11
g6
I15
sg7
I21
s(dp12
g6
I850
sg7
I211
stp13
ss."
HStem: 15 21<162 405 162 162 876 876 876 1119> 850 211<405 876 405 405>
VStem: 162 243<15 850 15 1061 15 1061> 876 243<15 850 850 850>
LayerCount: 2
Fore
SplineSet
876 850 m 1
 405 850 l 1
 405 15 l 1
 162 15 l 1
 162 1061 l 1
 1119 1061 l 1
 1119 15 l 1
 876 15 l 1
 876 850 l 1
EndSplineSet
EndChar

StartChar: uni0440
Encoding: 1088 1088 397
Width: 1295
VWidth: 0
Flags: HW
PickledData: "(dp1
S'com.fontlab.hintData'
p2
(dp3
S'vhints'
p4
((dp5
S'position'
p6
I113
sS'width'
p7
I256
s(dp8
g6
I956
sg7
I254
stp9
sS'hhints'
p10
((dp11
g6
I-405
sg7
I21
s(dp12
g6
I-18
sg7
I201
s(dp13
g6
I898
sg7
I201
s(dp14
g6
I1051
sg7
I20
stp15
ss."
HStem: -405 21<112 112 112 369> -18 201<635 734 587 875> 898 201<637 733.5> 1051 20<113 372 372 372>
VStem: 113 256 956 254<422.5 660>
LayerCount: 2
Fore
SplineSet
660 183 m 0
 808 183 956 304 956 541 c 0
 956 779 807 898 660 898 c 0
 514 898 369 782 369 541 c 0
 369 300 514 183 660 183 c 0
112 -405 m 1
 113 1071 l 1
 372 1071 l 1
 372 952 l 1
 389 970 l 1
 466 1050 571 1099 703 1099 c 0
 1038 1099 1210 803 1210 551 c 0
 1210 268 1047 -18 703 -18 c 0
 567 -18 463 33 388 105 c 1
 371 121 l 1
 369 -405 l 1
 112 -405 l 1
EndSplineSet
EndChar

StartChar: uni0441
Encoding: 1089 1089 398
Width: 1118
VWidth: 0
Flags: HW
PickledData: "(dp1
S'com.fontlab.hintData'
p2
(dp3
S'vhints'
p4
((dp5
S'position'
p6
I84
sS'width'
p7
I263
stp8
sS'hhints'
p9
((dp10
g6
I-18
sg7
I201
s(dp11
g6
I898
sg7
I201
stp12
ss."
HStem: -18 201<568 699 568 713.5> 898 201<575.5 707.5>
VStem: 84 263<420 665 420 721.5>
LayerCount: 2
Fore
SplineSet
347 544 m 0
 347 296 491 183 645 183 c 0
 753 183 859 233 936 318 c 1
 1065 146 l 1
 939 40 787 -18 640 -18 c 0
 360 -18 84 176 84 542 c 0
 84 901 360 1099 641 1099 c 0
 787 1099 937 1042 1063 936 c 1
 936 762 l 1
 866 848 762 898 653 898 c 0
 498 898 347 786 347 544 c 0
EndSplineSet
EndChar

StartChar: uni0442
Encoding: 1090 1090 399
Width: 944
VWidth: 0
Flags: HW
PickledData: "(dp1
S'com.fontlab.hintData'
p2
(dp3
S'vhints'
p4
((dp5
S'position'
p6
I330
sS'width'
p7
I232
stp8
sS'hhints'
p9
((dp10
g6
I15
sg7
I21
s(dp11
g6
I873
sg7
I188
stp12
ss."
HStem: 15 21<330 562 330 330> 873 188<0 330 0 883 562 883 562 562>
VStem: 330 232<15 873 15 873>
LayerCount: 2
Fore
SplineSet
-0 1061 m 1
 883 1061 l 1
 883 873 l 1
 562 873 l 1
 562 15 l 1
 330 15 l 1
 330 873 l 1
 0 873 l 1
 -0 1061 l 1
EndSplineSet
EndChar

StartChar: uni0443
Encoding: 1091 1091 400
Width: 1133
VWidth: 0
Flags: HW
PickledData: "(dp1
S'com.fontlab.hintData'
p2
(dp3
S'hhints'
p4
((dp5
S'position'
p6
I-380
sS'width'
p7
I217
stp8
ss."
HStem: -380 217<138 168 138 168>
LayerCount: 2
Fore
SplineSet
168 -163 m 2
 367 -163 461 -107 475 47 c 1
 40 1035 l 1
 306 1035 l 1
 596 284 l 1
 875 1034 l 1
 1133 1034 l 1
 727 32 l 1
 672 -238 505 -380 168 -380 c 2
 138 -380 l 1
 138 -163 l 1
 168 -163 l 2
EndSplineSet
EndChar

StartChar: uni0444
Encoding: 1092 1092 401
Width: 1473
VWidth: 0
Flags: HW
PickledData: "(dp1
S'com.fontlab.hintData'
p2
(dp3
S'vhints'
p4
((dp5
S'position'
p6
I84
sS'width'
p7
I251
s(dp8
g6
I603
sg7
I268
s(dp9
g6
I1139
sg7
I250
stp10
sS'hhints'
p11
((dp12
g6
I25
sg7
I165
s(dp13
g6
I822
sg7
I201
stp14
ss."
HStem: 25 165<446 521> 822 201<445.5 522.5 369 524.5>
VStem: 84 251<423 581.5 423 645.5> 603 268<-175 36 -175 38 -175 38 -175 800 1008 1225> 1139 250<424.5 582.5>
LayerCount: 2
Fore
SplineSet
603 800 m 1
 570 814 543 822 506 822 c 0
 385 822 335 661 335 502 c 0
 335 344 385 190 507 190 c 0
 536 190 572 198 603 211 c 1
 603 800 l 1
869 212 m 1
 904 198 937 191 966 191 c 0
 1088 191 1139 346 1139 503 c 0
 1139 662 1089 823 968 823 c 0
 938 823 901 814 869 800 c 1
 869 212 l 1
971 24 m 0
 935 24 901 29 871 36 c 1
 871 -175 l 1
 603 -175 l 1
 603 38 l 1
 571 30 539 25 503 25 c 0
 233 25 84 275 84 521 c 0
 84 770 233 1023 505 1023 c 0
 540 1023 574 1015 603 1008 c 1
 603 1225 l 1
 871 1225 l 1
 871 1008 l 1
 903 1016 934 1022 969 1022 c 0
 1241 1022 1389 768 1389 520 c 0
 1389 272 1240 24 971 24 c 0
EndSplineSet
EndChar

StartChar: uni0445
Encoding: 1093 1093 402
Width: 1150
VWidth: 0
Flags: HW
PickledData: "(dp1
S'com.fontlab.hintData'
p2
(dp3
S'vhints'
p4
((dp5
S'position'
p6
I59
sS'width'
p7
I285
s(dp8
g6
I882
sg7
I288
stp9
sS'hhints'
p10
((dp11
g6
I15
sg7
I21
s(dp12
g6
I1041
sg7
I20
stp13
ss."
HStem: 15 21<59 344 59 59 882 1170 882 882> 1041 20<79 367 367 367 884 1157 1157 1157>
VStem: 59 285<15 15> 882 288<15 15>
LayerCount: 2
Fore
SplineSet
1170 15 m 1
 882 15 l 1
 618 406 l 1
 344 15 l 1
 59 15 l 1
 460 539 l 1
 79 1061 l 1
 367 1061 l 1
 618 677 l 1
 884 1061 l 1
 1157 1061 l 1
 776 543 l 1
 1170 15 l 1
EndSplineSet
EndChar

StartChar: uni0447
Encoding: 1095 1095 403
Width: 1241
VWidth: 0
Flags: HW
PickledData: "(dp1
S'com.fontlab.hintData'
p2
(dp3
S'vhints'
p4
((dp5
S'position'
p6
I86
sS'width'
p7
I243
s(dp8
g6
I854
sg7
I244
stp9
sS'hhints'
p10
((dp11
g6
I14
sg7
I21
s(dp12
g6
I349
sg7
I211
stp13
ss."
HStem: 14 21<854 1098 854 854> 349 211<447 588>
VStem: 86 243<771 864 771 1030 771 1030> 854 244<14 458 458 458 749 1029 14 1029>
LayerCount: 2
Fore
SplineSet
854 458 m 1
 766 393 667 349 509 349 c 0
 202 349 86 518 86 769 c 2
 86 1030 l 1
 330 1030 l 1
 329 864 l 1
 329 678 344 560 550 560 c 0
 704 560 823 659 854 749 c 1
 854 1029 l 1
 1098 1029 l 1
 1098 14 l 1
 854 14 l 1
 854 458 l 1
EndSplineSet
EndChar

StartChar: uni0448
Encoding: 1096 1096 404
Width: 1617
VWidth: 0
Flags: HW
PickledData: "(dp1
S'com.fontlab.hintData'
p2
(dp3
S'vhints'
p4
((dp5
S'position'
p6
I162
sS'width'
p7
I243
s(dp8
g6
I704
sg7
I235
s(dp9
g6
I1233
sg7
I243
stp10
sS'hhints'
p11
((dp12
g6
I15
sg7
I211
s(dp13
g6
I1039
sg7
I20
stp14
ss."
HStem: 15 211<405 704 939 1233> 1039 20<162 405 405 405 704 939 939 939 1233 1476 1476 1476>
VStem: 162 243<226 1059 226 1059 226 1059> 704 235<226 1059 226 1059> 1233 243<226 1059>
LayerCount: 2
Fore
SplineSet
1476 15 m 1
 162 15 l 1
 162 1059 l 1
 405 1059 l 1
 405 226 l 1
 704 226 l 1
 704 1059 l 1
 939 1059 l 1
 939 226 l 1
 1233 226 l 1
 1233 1059 l 1
 1476 1059 l 1
 1476 15 l 1
EndSplineSet
EndChar

StartChar: uni044A
Encoding: 1098 1098 405
Width: 1262
VWidth: 0
Flags: HW
PickledData: "(dp1
S'com.fontlab.hintData'
p2
(dp3
S'vhints'
p4
((dp5
S'position'
p6
I515
sS'width'
p7
I431
stp8
sS'hhints'
p9
((dp10
g6
I222
sg7
I261
stp11
ss."
HStem: 222 261<515 753 515 753>
VStem: 515 431<316 397 316 483 316 483>
LayerCount: 2
Fore
SplineSet
515 483 m 1
 753 483 l 2
 869 483 946 436 946 358 c 0
 946 274 872 222 753 222 c 2
 515 222 l 1
 515 483 l 1
1201 346 m 1
 1181 345 l 1
 1174 128 1010 15 775 15 c 2
 263 15 l 1
 233 854 l 1
 -68 854 l 1
 -68 1061 l 1
 484 1061 l 1
 484 691 l 1
 751 691 l 2
 931 691 1136 595 1177 382 c 1
 1197 385 l 1
EndSplineSet
EndChar

StartChar: uni044C
Encoding: 1100 1100 406
Width: 1233
VWidth: 0
Flags: HW
PickledData: "(dp1
S'com.fontlab.hintData'
p2
(dp3
S'vhints'
p4
((dp5
S'position'
p6
I233
sS'width'
p7
I251
s(dp8
g6
I917
sg7
I234
stp9
sS'hhints'
p10
((dp11
g6
I15
sg7
I207
s(dp12
g6
I483
sg7
I208
s(dp13
g6
I1041
sg7
I20
stp14
ss."
HStem: 15 207<485 740 740 763> 483 208<485 485 485 740> 1041 20<233 484 484 484>
VStem: 233 251<691 1061 691 1061 691 1061> 917 234<316.5 396.5>
LayerCount: 2
Fore
SplineSet
485 483 m 1
 485 222 l 1
 740 222 l 2
 851 222 917 275 917 358 c 0
 917 435 848 483 740 483 c 2
 485 483 l 1
763 15 m 2
 233 15 l 1
 233 1061 l 1
 484 1061 l 1
 484 691 l 1
 749 691 l 2
 937 691 1151 587 1151 358 c 0
 1151 132 984 15 763 15 c 2
EndSplineSet
EndChar

StartChar: uni044E
Encoding: 1102 1102 407
Width: 1568
VWidth: 0
Flags: HW
PickledData: "(dp1
S'com.fontlab.hintData'
p2
(dp3
S'vhints'
p4
((dp5
S'position'
p6
I160
sS'width'
p7
I243
s(dp8
g6
I532
sg7
I266
s(dp9
g6
I1236
sg7
I249
stp10
sS'hhints'
p11
((dp12
g6
I-18
sg7
I211
s(dp13
g6
I15
sg7
I21
s(dp14
g6
I436
sg7
I196
s(dp15
g6
I887
sg7
I212
s(dp16
g6
I1041
sg7
I20
stp17
ss."
HStem: -18 211<943 1096.5 943 1168.5> 15 21<160 403 160 160> 436 196<403 532 403 533> 887 212<940 1094.5> 1041 20<160 403 403 403>
VStem: 160 243<15 436 15 632 632 1061> 532 266<436 625.5> 1236 249<441 630.5>
LayerCount: 2
Fore
SplineSet
1015 -18 m 0
 727 -18 570 188 532 436 c 1
 403 436 l 1
 403 15 l 1
 160 15 l 1
 160 1061 l 1
 403 1061 l 1
 403 632 l 1
 533 632 l 1
 572 893 735 1099 1019 1099 c 0
 1333 1099 1485 844 1485 535 c 0
 1485 235 1322 -18 1015 -18 c 0
798 532 m 0
 798 348 867 193 1019 193 c 0
 1174 193 1236 349 1236 533 c 0
 1236 728 1175 887 1014 887 c 0
 866 887 798 719 798 532 c 0
EndSplineSet
EndChar

StartChar: uni044F
Encoding: 1103 1103 408
Width: 1196
VWidth: 0
Flags: HW
PickledData: "(dp1
S'com.fontlab.hintData'
p2
(dp3
S'vhints'
p4
((dp5
S'position'
p6
I148
sS'width'
p7
I235
s(dp8
g6
I835
sg7
I243
stp9
sS'hhints'
p10
((dp11
g6
I15
sg7
I21
s(dp12
g6
I429
sg7
I197
s(dp13
g6
I852
sg7
I209
stp14
ss."
HStem: 15 21<128 396 128 128 835 1078 835 835> 429 197<602 834 555 835 602 602> 852 209<537 555>
VStem: 148 235<704 771.5 704 848> 835 243<15 429 429 429>
LayerCount: 2
Fore
SplineSet
383 737 m 0
 383 671 455 626 555 626 c 2
 834 626 l 1
 834 853 l 1
 555 852 l 2
 451 852 383 806 383 737 c 0
373 467 m 1
 252 513 148 596 148 743 c 0
 148 953 327 1061 537 1061 c 2
 1078 1061 l 1
 1078 15 l 1
 835 15 l 1
 835 429 l 1
 602 429 l 1
 396 15 l 1
 128 15 l 1
 373 467 l 1
EndSplineSet
EndChar

StartChar: uni0455
Encoding: 1109 1109 412
Width: 1086
VWidth: 0
Flags: HW
PickledData: "(dp1
S'com.fontlab.hintData'
p2
(dp3
S'vhints'
p4
((dp5
S'position'
p6
I145
sS'width'
p7
I242
s(dp8
g6
I744
sg7
I243
stp9
sS'hhints'
p10
((dp11
g6
I-16
sg7
I208
s(dp12
g6
I842
sg7
I211
stp13
ss."
HStem: -16 208<480.5 619.5 480.5 688> 842 211<512.5 627>
VStem: 145 242<710 780 710 855.5> 744 243<260.5 334>
LayerCount: 2
Fore
SplineSet
233 293 m 1
 296 236 409 192 552 192 c 0
 687 192 744 219 744 302 c 0
 744 366 680 394 578 420 c 2
 460 450 l 1
 302 488 145 556 145 751 c 0
 145 960 336 1053 563 1053 c 0
 713 1053 829 1023 921 961 c 1
 941 948 l 1
 872 757 l 1
 840 776 l 1
 780 813 685 842 569 842 c 0
 456 842 387 814 387 746 c 0
 387 674 440 661 537 639 c 2
 677 607 l 1
 837 567 987 501 987 303 c 0
 987 84 808 -16 568 -16 c 0
 370 -16 229 35 127 118 c 1
 199 323 l 1
 233 293 l 1
EndSplineSet
EndChar

StartChar: uni0456
Encoding: 1110 1110 413
Width: 587
VWidth: 0
Flags: HW
PickledData: "(dp1
S'com.fontlab.hintData'
p2
(dp3
S'vhints'
p4
((dp5
S'position'
p6
I194
sS'width'
p7
I259
stp8
sS'hhints'
p9
((dp10
g6
I15
sg7
I21
s(dp11
g6
I1041
sg7
I20
s(dp12
g6
I1253
sg7
I258
stp13
ss."
HStem: 15 21<194 453 194 194> 1041 20<194 453 453 453> 1253 258<194 453 194 453>
VStem: 194 259<15 1061 15 1061 1253 1511>
LayerCount: 2
Fore
SplineSet
453 1511 m 1
 453 1253 l 1
 194 1253 l 1
 194 1511 l 1
 453 1511 l 1
453 1061 m 1
 453 15 l 1
 194 15 l 1
 194 1061 l 1
 453 1061 l 1
EndSplineSet
EndChar

